<?xml version="1.0" encoding="UTF-8" standalone="no"?>
<svg
   width="203"
   height="100"
   viewBox="0 0 203 100"
   fill="none"
   version="1.1"
   id="svg40"
   sodipodi:docname="age_rating_icon_with_lk.svg"
   inkscape:version="1.2.2 (732a01da63, 2022-12-09)"
   xmlns:inkscape="http://www.inkscape.org/namespaces/inkscape"
   xmlns:sodipodi="http://sodipodi.sourceforge.net/DTD/sodipodi-0.dtd"
   xmlns="http://www.w3.org/2000/svg"
   xmlns:svg="http://www.w3.org/2000/svg">
  <sodipodi:namedview
     id="namedview42"
     pagecolor="#ff0000"
     bordercolor="#000000"
     borderopacity="0.25"
     inkscape:showpageshadow="2"
     inkscape:pageopacity="0"
     inkscape:pagecheckerboard="0"
     inkscape:deskcolor="#d1d1d1"
     showgrid="false"
     inkscape:zoom="5.6568543"
     inkscape:cx="102.08854"
     inkscape:cy="75.483649"
     inkscape:window-width="2560"
     inkscape:window-height="1334"
     inkscape:window-x="-11"
     inkscape:window-y="-11"
     inkscape:window-maximized="1"
     inkscape:current-layer="svg40" />
  <g
     clip-path="url(#clip0_710_1225)"
     id="g10"
     transform="matrix(0.63423858,0,0,0.63423858,0.51,18.288071)">
    <rect
       width="90"
       height="100"
       rx="3"
       fill="#000000"
       fill-opacity="0.4"
       id="rect2"
       x="0"
       y="0" />
    <path
       d="m 63.4239,21.7214 c 3.57,3.1162 5.3549,7.5543 5.3549,13.1256 0,5.0047 -1.691,11.5203 -6.0125,18.9802 L 51.211,72.0519 H 70.0001 V 84.1001 H 32.5158 V 79.4174 L 50.9291,49.389 c 3.57,-5.7601 5.3549,-10.6704 5.3549,-14.542 0,-4.3437 -2.1607,-6.3267 -6.858,-6.3267 -3.6639,0 -6.5762,2.0774 -8.8309,6.5156 l -0.5637,1.0387 -8.3611,-7.271 0.2818,-0.5666 C 33.3613,25.0264 35.616,22.288 38.7162,20.2106 41.8164,18.0387 45.1984,17 48.9563,17 c 6.1064,0 10.9916,1.6053 14.4676,4.7214 z"
       fill="#ffffff"
       id="path4" />
    <path
       d="M 4.70152,33.0142 C 12.1232,29.0482 18.0418,24.1379 22.2694,18.2833 L 22.4573,18 h 5.5428 V 84.1001 H 15.8811 V 38.7743 L 3.0105,45.8565 V 33.7696 Z"
       fill="#ffffff"
       id="path6" />
    <path
       d="m 79,40 h -4 v 8 h -8 v 4 h 8 v 8 h 4 v -8 h 8 v -4 h -8 z"
       fill="#ffffff"
       id="path8" />
  </g>
  <g
     clip-path="url(#clip1_710_1225)"
     id="g30"
     transform="matrix(0.63423858,0,0,0.63423858,0.51,18.288071)">
    <rect
       x="103"
       width="100"
       height="100"
       rx="3"
       fill="#000000"
       fill-opacity="0.4"
       id="rect12"
       y="0" />
    <path
       fill-rule="evenodd"
       clip-rule="evenodd"
       d="m 105,63 h 96 v 33 c 0,1.1046 -0.895,2 -2,2 h -92 c -1.105,0 -2,-0.8954 -2,-2 z"
       fill="#ffffff"
       id="path14" />
    <path
       d="m 124.369,13.9786 0.092,-0.4618 c 0.085,-0.4312 0.253,-0.8412 0.494,-1.2063 0.241,-0.3652 0.551,-0.6784 0.912,-0.9217 0.361,-0.2433 0.765,-0.4119 1.19,-0.4962 0.425,-0.0843 0.862,-0.0825 1.287,0.0052 l 35.066,7.204 c 0.856,0.1764 1.607,0.6904 2.09,1.4294 0.483,0.7391 0.656,1.6424 0.483,2.5116 l -0.086,0.4326 z"
       fill="#ffffff"
       id="path16" />
    <path
       fill-rule="evenodd"
       clip-rule="evenodd"
       d="m 122.719,22.2355 -3.016,15.0958 c -0.172,0.8696 0.002,1.7731 0.484,2.5125 0.483,0.7393 1.235,1.2538 2.091,1.4304 l 35.066,7.2021 c 0.424,0.0875 0.861,0.0892 1.286,0.0053 0.424,-0.0841 0.828,-0.2522 1.189,-0.4948 0.361,-0.2426 0.67,-0.555 0.912,-0.9194 0.242,-0.3642 0.41,-0.7734 0.496,-1.2039 l 1.416,-7.092 -0.476,-0.6766 -2.791,-3.2378 -6.649,-2.1665 -5.016,-2.6527 -0.341,-2.7254 z m 26.474,20.1529 1.025,-5.0468 c 0.037,-0.1813 0.144,-0.3405 0.298,-0.4428 0.154,-0.1024 0.342,-0.1394 0.524,-0.1032 l 7.299,1.4803 c 0.09,0.018 0.176,0.0536 0.252,0.1047 0.076,0.0511 0.141,0.1167 0.191,0.1932 0.051,0.0764 0.086,0.162 0.103,0.252 0.017,0.09 0.017,0.1825 -0.002,0.2722 l -1.023,5.0468 c -0.037,0.1813 -0.144,0.3407 -0.298,0.443 -0.154,0.1022 -0.342,0.1394 -0.524,0.1031 l -7.299,-1.4803 c -0.182,-0.037 -0.341,-0.1442 -0.443,-0.2983 -0.102,-0.154 -0.139,-0.3425 -0.103,-0.5239 z"
       fill="#ffffff"
       id="path18" />
    <path
       d="m 163.765,40.3648 -0.634,3.1295 4.157,5.3247 1.911,-0.0884 1.496,-1.6898 -4.142,-2.718 z"
       fill="#ffffff"
       id="path20" />
    <path
       d="m 201,32.5 -8.09,-2.3621 -13.6,-13.914 -14.38,-1.6635 -6.92,0.9344 6.222,1.2613 c 1.1,0.2232 2.067,0.874 2.687,1.8096 0.62,0.9356 0.844,2.0793 0.621,3.1795 l -1.19,5.8706 7.406,2.7093 -0.593,1.6211 -18.524,-6.7761 -5.857,-0.4781 0.531,4.2401 4.09,2.1632 6.966,2.2698 3.161,3.6669 4.245,6.028 8.125,5.3317 13.281,0.0299 11.819,4.1713 z"
       fill="#ffffff"
       id="path22" />
    <path
       d="m 166.103,50.1055 -3.424,-4.3844 -0.184,0.9094 c -0.125,0.669 -0.663,2.1431 -1.811,2.6882 -0.27,0.1793 -0.56,0.3265 -0.863,0.4391 l 3.375,2.8669 3.24,-1.0451 z"
       fill="#ffffff"
       id="path24" />
    <path
       id="path1121"
       style="font-size:17.3333px;font-family:'Source Han Sans CN Bold WH';-inkscape-font-specification:'Source Han Sans CN Bold WH';text-align:center;text-anchor:middle;fill:#111d40"
       d="m 117.44336,72.435547 -1.9082,0.710937 c 0.19644,0.300444 0.39339,0.624038 0.58984,0.970704 0.208,0.33511 0.37679,0.652681 0.50391,0.953124 h -2.51368 l 0.51954,-0.728515 c -0.16178,-0.104 -0.35272,-0.224616 -0.57227,-0.363281 -0.21956,-0.138667 -0.45672,-0.27735 -0.71094,-0.416016 -0.24266,-0.150222 -0.48992,-0.294927 -0.74414,-0.433594 -0.25422,-0.138666 -0.48536,-0.267257 -0.69336,-0.382812 l -1.17968,1.474609 c 0.20799,0.127111 0.43913,0.271817 0.69335,0.433594 0.25422,0.150222 0.50343,0.305019 0.7461,0.466797 0.24266,0.161777 0.46778,0.324551 0.67578,0.486328 0.21955,0.150222 0.40447,0.282882 0.55469,0.398437 l 0.69336,-0.917968 v 1.923828 h 1.24804 c -0.0231,0.993775 -0.0573,1.980671 -0.10351,2.96289 -0.0462,0.970665 -0.15072,1.907264 -0.3125,2.808594 -0.15022,0.901331 -0.37534,1.745474 -0.67578,2.53125 -0.30044,0.785775 -0.7165,1.479191 -1.24805,2.080078 0.25422,0.150222 0.5075,0.351248 0.76172,0.605469 0.26578,0.254222 0.4808,0.497405 0.64258,0.728516 0.42756,-0.496888 0.79135,-1.045597 1.09179,-1.646485 0.30045,-0.600886 0.55372,-1.236029 0.76172,-1.90625 0.208,-0.67022 0.37078,-1.375681 0.48633,-2.115234 0.12711,-0.739553 0.22559,-1.497264 0.29492,-2.271485 h 1.0918 c -0.0347,0.993776 -0.0708,1.837919 -0.10547,2.53125 -0.0347,0.681776 -0.0749,1.248554 -0.12109,1.699219 -0.0462,0.450665 -0.0984,0.796396 -0.15625,1.039063 -0.0462,0.23111 -0.0984,0.393884 -0.15625,0.486328 -0.0809,0.104 -0.1613,0.172364 -0.24219,0.207031 -0.0693,0.03467 -0.15577,0.05273 -0.25977,0.05273 h -0.50195 c -0.208,-0.01155 -0.43914,-0.03565 -0.69336,-0.07031 0.15022,0.265777 0.26482,0.573256 0.3457,0.919922 0.0809,0.346666 0.13312,0.658214 0.15625,0.935547 0.33512,0.01155 0.64666,0.01155 0.93555,0 0.30045,-0.01155 0.54965,-0.03565 0.74609,-0.07031 0.23112,-0.03467 0.43409,-0.103032 0.60743,-0.207031 0.17333,-0.104 0.34018,-0.270843 0.50195,-0.501953 0.11556,-0.150222 0.21403,-0.405451 0.29492,-0.763672 0.0924,-0.358222 0.16681,-0.854681 0.22461,-1.490234 0.0694,-0.635554 0.12763,-1.427448 0.17383,-2.375 0.0578,-0.947553 0.11005,-2.097223 0.15625,-3.449219 V 79.23047 c 0,-0.104 0.006,-0.2085 0.0176,-0.3125 h -2.89453 c 0.0231,-0.311999 0.0332,-0.623548 0.0332,-0.935547 0.0116,-0.323554 0.0236,-0.647148 0.0352,-0.970703 h 2.61718 c -0.17333,0.323555 -0.35222,0.606943 -0.53711,0.849609 0.11556,0.05778 0.2422,0.126143 0.38086,0.207031 0.15022,0.06933 0.30095,0.149743 0.45117,0.242188 0.15022,0.08089 0.29493,0.167322 0.4336,0.259765 0.15022,0.08089 0.27686,0.15723 0.38086,0.226563 v 0.865234 h 2.35742 c -0.13867,0.161778 -0.28337,0.312506 -0.43359,0.451172 -0.15023,0.127111 -0.29493,0.249679 -0.4336,0.365235 v 1.507812 H 120.25 v 1.835938 h 2.20117 v 2.808593 c 0,0.104 -0.0222,0.174318 -0.0684,0.208985 -0.0347,0.03467 -0.10905,0.05078 -0.22461,0.05078 h -0.69336 c -0.32356,0 -0.66521,-0.01204 -1.02343,-0.03516 0.11555,0.277333 0.22607,0.590834 0.33007,0.9375 0.104,0.358221 0.17237,0.675792 0.20704,0.953125 0.57778,0 1.08026,-0.01807 1.50781,-0.05273 0.42755,-0.02311 0.79135,-0.115566 1.09179,-0.277343 0.32356,-0.161778 0.53256,-0.374848 0.625,-0.640625 0.104,-0.265777 0.15626,-0.635599 0.15626,-1.109375 v -2.84375 h 2.02734 v -1.835938 h -2.02734 v -0.970703 c 0.38133,-0.369776 0.75115,-0.757666 1.10937,-1.162109 0.35822,-0.404443 0.68182,-0.808447 0.9707,-1.212891 l -1.21484,-0.867187 -0.36328,0.103515 h -3.22461 c 0.0924,-0.196444 0.17888,-0.403492 0.25976,-0.623047 0.0924,-0.23111 0.18491,-0.462249 0.27735,-0.693359 h 4.16015 v -1.941406 h -3.57031 c 0.13867,-0.54311 0.26124,-1.109887 0.36524,-1.699219 l -1.97657,-0.328125 c -0.0924,0.658665 -0.21908,1.29983 -0.38086,1.923828 -0.15022,0.623998 -0.34115,1.212913 -0.57226,1.767578 v -1.212891 h -2.75586 l 1.28125,-0.554687 c -0.13867,-0.288888 -0.3296,-0.624527 -0.57227,-1.005859 -0.24266,-0.392889 -0.47787,-0.750665 -0.70898,-1.074219 z m 34.42383,0.138672 v 2.876953 h -6.03321 v 13.345703 h 2.0625 v -4.886719 c 0.12711,0.09244 0.26173,0.207038 0.4004,0.345703 0.13866,0.127112 0.27132,0.259772 0.39843,0.398438 0.12712,0.138666 0.24773,0.27735 0.36328,0.416015 0.11556,0.138667 0.20801,0.261235 0.27735,0.365235 0.94755,-0.554666 1.72138,-1.173694 2.32226,-1.855469 0.6009,-0.693331 1.06919,-1.402861 1.4043,-2.130859 0.312,0.311999 0.62355,0.635593 0.93555,0.970703 0.32355,0.323554 0.62501,0.641126 0.90234,0.953125 0.28889,0.311999 0.55421,0.611502 0.79688,0.900391 0.24266,0.288887 0.44971,0.554209 0.62304,0.796874 l 1.69922,-1.333984 c -0.23111,-0.300443 -0.52052,-0.630059 -0.86719,-0.988281 -0.33511,-0.358221 -0.69289,-0.728043 -1.07422,-1.109375 -0.38133,-0.381332 -0.77328,-0.763199 -1.17773,-1.144531 -0.40444,-0.381332 -0.79233,-0.739109 -1.16211,-1.074219 0.0693,-0.33511 0.12158,-0.664727 0.15625,-0.988281 0.0347,-0.323555 0.0628,-0.647149 0.0859,-0.970703 h 4.03906 v 6.27539 2.617188 c 0,0.161774 -0.0342,0.272298 -0.10351,0.330078 -0.0578,0.04623 -0.1683,0.07438 -0.33008,0.08594 h -0.39844 -0.60547 -0.72851 c -0.26578,-0.01156 -0.52507,-0.0236 -0.7793,-0.03516 0.0693,0.138667 0.1377,0.295418 0.20703,0.46875 0.0809,0.173333 0.15118,0.352221 0.20898,0.537109 0.0693,0.184888 0.11963,0.363777 0.1543,0.53711 0.0462,0.184888 0.0823,0.353684 0.10547,0.503906 0.77422,0 1.43752,-0.02409 1.99219,-0.07031 0.55466,-0.03467 1.01092,-0.133145 1.36914,-0.294922 0.36978,-0.161778 0.61898,-0.398939 0.74609,-0.710938 0.13866,-0.311999 0.20703,-0.744163 0.20703,-1.298828 V 75.451172 h -6.0664 v -2.876953 z m 19.25586,0 c -0.23111,0.982219 -0.53061,1.940956 -0.90039,2.876953 -0.35822,0.935997 -0.77427,1.750028 -1.24805,2.443359 v -4.367187 h -6.24023 v 10.572265 h 1.54296 v -8.734375 h 3.08594 v 8.63086 h 1.61133 v -5.582032 c 0.23111,0.173334 0.4743,0.370289 0.72851,0.589844 0.26578,0.219555 0.47283,0.398443 0.62305,0.53711 0.24267,-0.335111 0.47983,-0.715024 0.71094,-1.142578 0.24266,-0.427555 0.46778,-0.883809 0.67578,-1.369141 h 4.26367 c -0.0347,1.756439 -0.0749,3.22368 -0.12109,4.402344 -0.0462,1.178662 -0.1045,2.149444 -0.17383,2.912109 -0.0462,-0.265777 -0.10856,-0.561211 -0.18945,-0.884766 -0.0809,-0.323555 -0.17335,-0.659193 -0.27735,-1.005859 -0.104,-0.346666 -0.21452,-0.692397 -0.33007,-1.039063 -0.11556,-0.35822 -0.23015,-0.69386 -0.34571,-1.005859 l -1.40429,0.46875 c 0.0924,0.277333 0.17887,0.570814 0.25976,0.882813 0.0924,0.300443 0.17888,0.607922 0.25977,0.919922 l -1.82032,0.345703 c 0.32356,-0.658665 0.62502,-1.368195 0.90235,-2.13086 0.28888,-0.762664 0.53011,-1.520375 0.72656,-2.271484 l -1.85351,-0.519531 c -0.0809,0.473776 -0.18539,0.952167 -0.3125,1.4375 -0.12711,0.473776 -0.25978,0.919938 -0.39844,1.335937 -0.12712,0.404443 -0.24773,0.762219 -0.36328,1.074219 -0.11556,0.300443 -0.20801,0.513514 -0.27735,0.640625 -0.12711,0.277332 -0.2557,0.502449 -0.38281,0.675781 -0.11555,0.173335 -0.24822,0.283858 -0.39844,0.330078 0.0578,0.127111 0.11603,0.271816 0.17383,0.433594 0.0577,0.150221 0.11603,0.305019 0.17383,0.466797 0.0578,0.150222 0.11005,0.300951 0.15625,0.451172 0.0462,0.138666 0.0804,0.255212 0.10351,0.347656 0.0925,-0.05778 0.20704,-0.116048 0.34571,-0.173828 0.13866,-0.05778 0.34766,-0.122073 0.625,-0.191406 0.28888,-0.08089 0.67075,-0.179367 1.14453,-0.294922 0.47377,-0.115555 1.08482,-0.254239 1.83594,-0.416016 0.0347,0.161777 0.0648,0.312505 0.0879,0.451172 0.0347,0.138666 0.0628,0.271327 0.0859,0.398437 l 1.45704,-0.537109 c -0.0578,0.54311 -0.12208,0.965181 -0.19141,1.265625 -0.0693,0.288889 -0.14974,0.491867 -0.24219,0.607422 -0.0924,0.127113 -0.1849,0.213546 -0.27734,0.259766 -0.0925,0.03467 -0.21502,0.05078 -0.36524,0.05078 h -0.83203 c -0.35822,-0.01155 -0.75018,-0.03369 -1.17773,-0.06836 0.18488,0.300443 0.33562,0.642105 0.45117,1.023437 0.11558,0.392888 0.17792,0.738619 0.18945,1.039063 0.43912,0.01155 0.86119,0.01758 1.26563,0.01758 0.416,0 0.76368,-0.02816 1.04101,-0.08594 0.32356,-0.05778 0.5949,-0.150232 0.81446,-0.277344 0.2311,-0.12711 0.4502,-0.348157 0.6582,-0.660156 0.15022,-0.219555 0.27686,-0.571309 0.38086,-1.05664 0.104,-0.496888 0.19043,-1.196326 0.25976,-2.097657 0.0694,-0.901331 0.12763,-2.038955 0.17383,-3.414062 0.0578,-1.375107 0.11005,-3.05135 0.15625,-5.027344 V 75.15625 h -5.51172 c 0.12711,-0.358221 0.24171,-0.709975 0.34571,-1.056641 0.104,-0.358221 0.20247,-0.72202 0.29492,-1.091797 z m -30.5918,0.06836 -1.49219,1.091797 c 0.1849,0.196444 0.38185,0.405446 0.58985,0.625 0.21956,0.219555 0.42856,0.438648 0.625,0.658203 0.19644,0.219555 0.38135,0.438648 0.55468,0.658203 0.17334,0.207999 0.31804,0.398933 0.4336,0.572266 l 1.55859,-1.230469 c -0.12711,-0.161777 -0.28191,-0.340665 -0.4668,-0.537109 -0.17333,-0.207999 -0.36426,-0.417001 -0.57226,-0.625 -0.208,-0.219555 -0.42303,-0.432626 -0.64258,-0.640625 -0.208,-0.208 -0.403,-0.398933 -0.58789,-0.572266 z m -4.50781,0.05273 c 0.0231,0.797331 0.0472,1.571157 0.0703,2.322266 0.0347,0.739553 0.0749,1.457059 0.12109,2.150391 l -1.87304,0.224609 0.24414,1.888672 1.76758,-0.224609 c 0.0924,1.063107 0.21306,2.045935 0.36328,2.947265 0.15022,0.889776 0.34115,1.697784 0.57226,2.425782 -0.52,0.46222 -1.05666,0.878269 -1.61133,1.248046 -0.55466,0.369777 -1.13348,0.687349 -1.73437,0.953125 0.30045,0.208 0.59588,0.451184 0.88476,0.728516 0.30045,0.288888 0.54966,0.560232 0.7461,0.814453 0.90133,-0.473776 1.7375,-1.056669 2.51172,-1.75 0.39288,0.693331 0.84914,1.229996 1.36914,1.611328 0.52,0.392888 1.133,0.630049 1.83789,0.710938 0.24267,0.02311 0.47982,-0.01709 0.71094,-0.121094 0.2311,-0.104 0.44417,-0.306978 0.64062,-0.607422 0.208,-0.288888 0.39893,-0.692892 0.57227,-1.21289 0.17333,-0.531554 0.31804,-1.208855 0.43359,-2.029297 -0.104,-0.04622 -0.23666,-0.114588 -0.39844,-0.207032 -0.15022,-0.09244 -0.31104,-0.190922 -0.48437,-0.294921 -0.16178,-0.115556 -0.31853,-0.236171 -0.46875,-0.363282 -0.15022,-0.12711 -0.27686,-0.243656 -0.38086,-0.347656 -0.0693,0.912886 -0.16179,1.584165 -0.27735,2.011719 -0.10399,0.427557 -0.25472,0.628582 -0.45117,0.605469 -0.56622,-0.09244 -1.05258,-0.554722 -1.45703,-1.386719 0.67023,-0.762665 1.27118,-1.56465 1.80274,-2.408203 0.5431,-0.855109 1.00131,-1.727413 1.37109,-2.617188 l -1.63086,-0.988281 c -0.54311,1.34044 -1.29285,2.610725 -2.25195,3.8125 -0.24267,-1.074664 -0.4336,-2.332903 -0.57227,-3.777344 l 5.00977,-0.625 -0.24414,-1.837891 -4.9043,0.589844 c -0.0462,-0.67022 -0.0804,-1.357612 -0.10352,-2.0625 -0.0116,-0.704886 -0.0236,-1.432485 -0.0351,-2.183594 z m 57.85937,0.675782 -0.33008,0.121094 h -0.36328 v 0.01758 h -12.48047 v 1.923828 h 11.78711 c -0.18488,0.381332 -0.38184,0.751154 -0.58984,1.109375 -0.19645,0.346665 -0.38738,0.658214 -0.57227,0.935547 l 1.68164,0.814453 c 0.208,-0.277333 0.41701,-0.582859 0.625,-0.917969 0.21956,-0.33511 0.43263,-0.686864 0.64063,-1.056641 0.208,-0.381332 0.41098,-0.769221 0.60742,-1.162109 0.19645,-0.392888 0.38136,-0.780777 0.55469,-1.162109 z m -60.70117,0.988281 -0.34766,0.06836 h -5.11328 v 1.820313 h 4.54102 c -0.11555,0.623998 -0.25424,1.243026 -0.41602,1.855469 -0.15022,0.600887 -0.32911,1.18378 -0.53711,1.75 -0.39288,-0.519999 -0.77882,-1.016459 -1.16015,-1.490235 -0.36978,-0.473777 -0.73358,-0.930031 -1.0918,-1.36914 l -1.4043,1.177734 c 0.43912,0.566221 0.89536,1.173203 1.36914,1.820313 0.47378,0.635553 0.94208,1.282741 1.4043,1.941406 -0.416,0.843553 -0.8843,1.605333 -1.4043,2.287109 -0.52,0.67022 -1.08677,1.236998 -1.69921,1.699219 0.12711,0.09244 0.25977,0.20899 0.39843,0.347656 0.13867,0.138667 0.27133,0.287442 0.39844,0.449219 0.13867,0.150222 0.26725,0.306973 0.38281,0.46875 0.12711,0.150222 0.22966,0.288905 0.31055,0.416015 0.58933,-0.485331 1.12795,-1.034041 1.61328,-1.646484 0.48533,-0.623998 0.92954,-1.305368 1.33399,-2.044922 0.30044,0.43911 0.57178,0.865251 0.81445,1.28125 0.25422,0.415999 0.46924,0.797866 0.64258,1.144532 l 1.59375,-1.472657 c -0.24267,-0.439109 -0.54217,-0.913431 -0.90039,-1.421875 -0.34667,-0.519998 -0.72251,-1.068708 -1.12696,-1.646484 0.40445,-1.016886 0.75018,-2.102261 1.03907,-3.257813 0.28888,-1.167108 0.514,-2.409233 0.67578,-3.726562 z m 50.35352,1.59375 -1.10938,1.369141 c 0.28889,0.138665 0.59441,0.295416 0.91797,0.46875 0.32355,0.161777 0.63511,0.32862 0.93555,0.501953 0.312,0.173333 0.6014,0.348152 0.86718,0.521484 0.27734,0.173333 0.50848,0.328131 0.69336,0.466797 l 1.17969,-1.542969 c -0.19645,-0.138666 -0.43963,-0.287441 -0.72851,-0.449219 -0.27734,-0.161777 -0.57277,-0.32455 -0.88477,-0.486328 -0.312,-0.161777 -0.63559,-0.316575 -0.9707,-0.466796 -0.32356,-0.150222 -0.62306,-0.278813 -0.90039,-0.382813 z m 4.0039,0.138672 c -0.0347,1.086219 -0.0749,2.087113 -0.12109,3 -0.0462,0.90133 -0.16277,1.733429 -0.34766,2.496094 h -7.05469 v 1.888671 h 6.34376 c -0.25422,0.427555 -0.5718,0.819514 -0.95313,1.177735 -0.38133,0.358222 -0.84361,0.687838 -1.38672,0.988281 -0.54311,0.288889 -1.17825,0.55014 -1.90625,0.78125 -0.71644,0.231111 -1.54854,0.438159 -2.49609,0.623047 0.18488,0.219554 0.38184,0.490898 0.58984,0.814453 0.208,0.33511 0.35873,0.636567 0.45117,0.902344 1.17867,-0.242666 2.20577,-0.5381 3.08399,-0.884766 0.87822,-0.33511 1.63593,-0.723 2.27148,-1.162109 0.63556,-0.43911 1.16018,-0.923524 1.57617,-1.455078 0.416,-0.54311 0.75164,-1.138047 1.00586,-1.785157 h 6.67383 v -1.888671 h -6.11914 c 0.1618,-0.797331 0.2663,-1.647497 0.3125,-2.548829 0.0578,-0.912885 0.10401,-1.895712 0.13867,-2.947265 z M 165.07422,76.2832 v 4.644531 c 0,0.519999 -0.0281,1.080754 -0.0859,1.681641 -0.0462,0.600887 -0.16879,1.195825 -0.36523,1.785156 -0.19644,0.589332 -0.48993,1.15611 -0.88282,1.699219 -0.38133,0.531554 -0.91392,0.993831 -1.5957,1.386719 0.18489,0.150222 0.38787,0.341155 0.60742,0.572265 0.21956,0.231111 0.3864,0.432136 0.50196,0.605469 0.728,-0.496887 1.31284,-1.055689 1.75195,-1.679687 0.45067,-0.623998 0.7964,-1.277209 1.03906,-1.958985 0.25422,-0.681776 0.42302,-1.369168 0.50391,-2.0625 0.0809,-0.704886 0.12109,-1.382187 0.12109,-2.029297 V 76.2832 Z m -53.78516,1.074219 -1.16015,1.472656 c 0.21955,0.127111 0.45476,0.265794 0.70898,0.416016 0.25423,0.138666 0.50343,0.283372 0.74609,0.433594 0.25422,0.150221 0.48536,0.294927 0.69336,0.433593 0.21956,0.138666 0.40447,0.265304 0.55469,0.38086 l 1.23047,-1.664063 c -0.16178,-0.104 -0.35874,-0.218592 -0.58984,-0.345703 -0.23112,-0.127111 -0.47235,-0.253749 -0.72657,-0.380859 -0.24266,-0.138667 -0.49187,-0.271327 -0.74609,-0.398438 -0.25423,-0.12711 -0.49138,-0.243656 -0.71094,-0.347656 z m 36.60742,0.103516 h 3.95313 c -0.0231,0.531554 -0.0874,1.086286 -0.19141,1.664062 -0.104,0.56622 -0.30095,1.132998 -0.58984,1.699219 -0.28889,0.554665 -0.68687,1.091329 -1.19531,1.611328 -0.49689,0.519998 -1.15613,0.99432 -1.97657,1.421875 z m 33.66211,0.902343 -1.10937,1.369141 c 0.26577,0.127111 0.54916,0.265794 0.84961,0.416016 0.312,0.150221 0.6115,0.306972 0.90039,0.46875 0.28889,0.161777 0.56023,0.322597 0.81445,0.484374 0.25423,0.161778 0.46925,0.312506 0.64258,0.451172 l 1.19531,-1.52539 c -0.19644,-0.138666 -0.42758,-0.277349 -0.69336,-0.416016 -0.26577,-0.150222 -0.54916,-0.30095 -0.84961,-0.451172 -0.28888,-0.150222 -0.58839,-0.294928 -0.90039,-0.433594 -0.30044,-0.138666 -0.58383,-0.259282 -0.84961,-0.363281 z m -69.14257,3.535157 c -0.16178,0.519998 -0.33465,1.040548 -0.51954,1.560546 -0.17333,0.519999 -0.35221,1.028503 -0.5371,1.525391 -0.18489,0.485332 -0.36981,0.947609 -0.55469,1.386719 -0.1849,0.439109 -0.35369,0.831068 -0.50391,1.177734 l 1.89063,1.00586 c 0.32355,-0.855109 0.64714,-1.767617 0.9707,-2.738282 0.33511,-0.982219 0.64064,-1.946978 0.91797,-2.894531 z m 76.56054,2.289062 -1.03906,1.490234 c 0.56622,0.219555 1.133,0.462739 1.69922,0.728516 0.57778,0.254221 1.12648,0.51352 1.64648,0.779297 0.52,0.265777 1.00442,0.531098 1.45508,0.796875 0.46223,0.265777 0.86623,0.521006 1.21289,0.763672 l 1.33594,-1.595703 c -0.36978,-0.231111 -0.79788,-0.472342 -1.2832,-0.726563 -0.47378,-0.254222 -0.98831,-0.509451 -1.54297,-0.763672 -0.55467,-0.265777 -1.13154,-0.525075 -1.73242,-0.779297 -0.58934,-0.254221 -1.17418,-0.485359 -1.75196,-0.693359 z m -21.64844,0.224609 -1.35156,0.953125 c 0.208,0.242666 0.42709,0.507988 0.65821,0.796875 0.2311,0.277333 0.45622,0.560722 0.67578,0.84961 0.21955,0.277332 0.42253,0.544606 0.60742,0.798828 0.18489,0.265777 0.33968,0.496915 0.4668,0.693359 l 1.42187,-1.076172 c -0.13867,-0.207999 -0.30551,-0.433115 -0.50195,-0.675781 -0.19645,-0.254222 -0.41147,-0.51352 -0.64258,-0.779297 -0.21955,-0.277332 -0.44467,-0.548676 -0.67578,-0.814453 -0.23111,-0.265777 -0.45021,-0.514983 -0.65821,-0.746094 z" />
  </g>
  <defs
     id="defs38">
    <clipPath
       id="clip0_710_1225">
      <rect
         width="90"
         height="100"
         fill="white"
         id="rect32" />
    </clipPath>
    <clipPath
       id="clip1_710_1225">
      <rect
         width="100"
         height="100"
         fill="white"
         transform="translate(103)"
         id="rect35" />
    </clipPath>
  </defs>
  <path
     id="rect362"
     style="fill:#ffffff;stroke-width:0.0838952"
     d="m 139.58236,18.291813 v 63.41709 h 63.4171 v -63.41709 z m 55.34182,4.046645 h 0.33232 c 0.50337,0 1.32886,0.644241 2.47654,1.932873 0.0805,0.120803 0.12078,0.251658 0.12078,0.3926 -0.16108,0.181216 -0.71471,0.322242 -1.66104,0.422917 l -0.57383,-0.120754 h -0.93629 c -0.26176,0 -0.46321,0.04017 -0.60415,0.120754 l -0.54368,-0.120754 -1.38918,0.120754 -1.14766,-0.120754 c -0.74501,0 -1.11752,0.291911 -1.11752,0.875818 v 1.268424 c 0,0.08051 0.13084,0.221578 0.3926,0.422924 0.92621,-0.08051 1.59064,-0.120763 1.99333,-0.120763 h 2.29532 l 1.17799,0.120763 c 0.46311,-0.704729 0.98651,-1.057057 1.57042,-1.057057 1.51011,0.624186 2.386,1.258411 2.62763,1.902727 0,0.644316 -0.64425,0.96644 -1.93287,0.96644 -1.28862,1.248362 -2.66791,1.872573 -4.13774,1.872573 l -0.57385,-0.120771 c -0.12081,0 -0.58397,0.04026 -1.38936,0.120771 -0.54364,0 -1.10742,-0.191272 -1.69134,-0.573839 -0.30202,0 -0.48312,1.077185 -0.54352,3.231612 -0.14093,0.02012 -0.26178,0.261807 -0.36244,0.724908 0,0.120812 0.27171,0.402708 0.81535,0.845681 v 0.09061 l -0.12077,0.603987 c 1.51012,0.765128 3.41297,1.389339 5.70835,1.872572 0.9866,0.221486 2.06378,0.372529 3.2316,0.453069 0.30202,-0.06039 0.61412,-0.09061 0.93629,-0.09061 0.10071,0 0.23152,0.130855 0.3926,0.39261 v 0.422745 l -2.839,1.933043 c -2.29539,-1.067147 -3.52362,-1.600734 -3.68469,-1.600734 h -0.39259 v 0.120763 c -8.6e-4,0 -0.003,-1.61e-4 -0.003,-1.69e-4 -0.0332,0.604122 -0.32418,0.906299 -0.87272,0.906299 h -0.21137 c -0.72484,0 -1.09738,-0.04044 -1.11751,-0.120921 -0.68459,0.08051 -1.2382,0.120921 -1.66103,0.120921 h -1.96318 c -0.66447,0 -1.3591,0.04026 -2.08395,0.120771 -1.10743,-0.10068 -1.6612,-0.271755 -1.6612,-0.513371 0,-0.100681 0.14102,-0.271912 0.42292,-0.51353 0.10072,0 0.15091,0.04026 0.15091,0.120762 1.18796,-0.08051 2.05384,-0.120762 2.59747,-0.120762 h 1.96321 c 0.94633,-0.281896 1.85228,-0.634217 2.71808,-1.057056 v -0.392601 c 0,-0.08051 -0.94636,-0.724941 -2.83902,-1.933041 -4.22833,2.134302 -7.45987,3.674635 -9.69484,4.620969 l -0.81552,-0.09061 -0.60414,0.09061 v -0.332142 c 0.60404,0 2.35584,-0.926295 5.25526,-2.778703 2.05375,-0.946343 3.72493,-2.06375 5.01358,-3.352373 v -5.345888 c 0,-0.342289 -0.1711,-0.634201 -0.51339,-0.875818 l -5.31555,0.241525 c -0.12081,-0.08051 -0.34245,-0.120762 -0.66461,-0.120762 0,0.161083 -0.0502,0.241692 -0.15091,0.241692 l 0.15091,0.301994 c -0.24163,1.630921 -0.49332,2.446403 -0.75506,2.446403 -0.38255,0.36243 -0.83554,0.634142 -1.35904,0.815356 -0.32217,-0.140941 -0.49324,-0.271797 -0.51336,-0.392609 0,-0.201345 0.38253,-1.197915 1.14766,-2.989911 0.18121,-1.127558 0.39268,-1.69135 0.6343,-1.69135 0.28187,0 0.69463,0.191262 1.23826,0.573831 0.82554,-0.06039 2.68798,-0.130836 5.5874,-0.211378 l 0.27184,-0.392769 v -1.510117 c 0,-0.201345 -0.37251,-0.342213 -1.11749,-0.422755 -0.62419,0.08052 -1.00674,0.16099 -1.14767,0.241524 l -0.69477,-0.120762 -1.0269,0.120762 -0.57382,-0.120762 -0.81536,0.120762 c -1.10742,-0.120805 -1.6612,-0.291877 -1.6612,-0.513362 v -0.33214 l 0.0907,-0.18123 c 2.87929,-0.08052 5.05384,-0.120933 6.52369,-0.120933 h 3.80562 c 0.28186,0 0.62402,-0.04016 1.02671,-0.120752 0.10071,0.08051 0.38258,0.120752 0.84569,0.120752 h 0.12091 c 0.36243,-0.120802 0.87584,-0.664396 1.54029,-1.630877 z m -1.57369,17.30573 c 0.003,-0.039 0.003,-0.07908 0.003,-0.120602 v -0.06048 c 0,-0.181216 -0.36251,-0.513354 -1.08738,-0.996588 h -0.18123 v 0.42275 c 0.42174,0.502074 0.84358,0.753604 1.26532,0.7549 z M 174.96052,23.033052 c 2.25509,0.34229 3.38267,1.167789 3.38267,2.476559 0,0.926204 -0.59399,1.43975 -1.78195,1.540423 -0.32216,0 -0.76511,-0.835672 -1.32888,-2.506862 -0.68458,-0.442964 -1.02691,-0.845698 -1.02691,-1.208126 0.26174,-0.201355 0.51345,-0.301994 0.75507,-0.301994 z m -29.41715,0.301994 c 2.67793,0.201345 4.01699,1.047039 4.01699,2.537019 0,0.744989 -0.41293,1.308781 -1.23846,1.691341 h -0.60398 c -0.34229,0 -0.78524,-0.885916 -1.32887,-2.657783 -0.94635,-0.523504 -1.41952,-0.845627 -1.41952,-0.966432 l -0.0301,-0.211376 c 0,-0.261758 0.20131,-0.392769 0.60398,-0.392769 z m 18.72539,0.996746 c 0.72486,0 1.66116,0.62421 2.80886,1.872572 0.22148,0.221486 0.33229,0.442963 0.33229,0.664448 0,0.140944 -0.0604,0.302001 -0.18122,0.483217 -0.28189,0.281886 -0.75505,0.634215 -1.4195,1.057048 -0.16108,0.503373 -0.28191,1.026943 -0.36245,1.570586 -0.60405,3.624274 -2.04374,7.228349 -4.31896,10.81235 2.87926,2.275238 5.45656,3.453226 7.73179,3.533768 l 1.60074,-0.241686 c 0.16108,0 0.29193,0.100639 0.3926,0.301985 0.0403,0.08051 0.0605,0.151137 0.0605,0.211539 0,0.201354 -0.1006,0.412655 -0.30197,0.634142 l -1.84244,1.570577 c -0.38255,0.724851 -0.8155,1.087363 -1.29874,1.087363 -1.02688,-0.563774 -2.03362,-1.057132 -3.02023,-1.47997 -2.11415,-1.369168 -3.55368,-2.557176 -4.31879,-3.563913 l -0.39278,-0.03016 c -1.06715,0.966466 -2.49668,1.973218 -4.28868,3.020226 -1.36916,0.724859 -3.00013,1.409489 -4.8928,2.053804 l -0.99657,0.271679 -0.21155,0.03033 c -0.2819,0 -0.48317,-0.09063 -0.60398,-0.271838 l -0.0301,-0.151084 c 0,-0.201347 0.23147,-0.402634 0.69457,-0.60398 0.62419,-0.201344 1.39946,-0.513453 2.32566,-0.936285 2.5571,-1.389306 4.68127,-3.100719 6.37261,-5.134339 l -2.0538,-4.288824 c -1.14768,-3.463197 -1.80195,-6.604287 -1.96303,-9.423162 l 0.0603,-0.422754 c -0.72486,0 -1.26847,-0.02021 -1.63089,-0.06048 -0.28188,-0.06039 -0.42292,-0.25168 -0.42292,-0.573839 0,-0.241618 0.10082,-0.392659 0.30216,-0.453061 l 1.20796,0.06048 h 8.75871 l 1.47998,-1.449657 c 0.12079,-0.100671 0.26166,-0.151077 0.42275,-0.151077 z m -3.26177,2.597321 -6.19155,0.06048 0.27185,1.570588 0.81553,3.171143 c 0.46309,1.469848 1.31879,3.463317 2.56716,5.980172 0.22148,0.402699 0.43294,0.755028 0.63429,1.057058 h 0.42276 c 1.8524,-3.724946 2.91958,-7.127743 3.20147,-10.208372 0.0201,-0.281897 0.0503,-0.503373 0.0905,-0.664456 -0.0201,-0.34229 -0.15099,-0.583957 -0.39262,-0.7249 -0.22148,-0.161084 -0.69464,-0.241693 -1.4195,-0.241693 z m -9.63454,0.573991 c 0.2215,0 0.40275,0.150883 0.54368,0.452901 0,0.302028 -0.63437,1.771935 -1.90287,4.409592 0,0.4027 -0.63425,2.094083 -1.90274,5.074041 -0.84565,2.174564 -1.26841,3.503434 -1.26841,3.986675 0.74498,2.496715 1.11752,4.037057 1.11752,4.620961 v 0.785211 c 0,0.906071 -0.56381,1.520268 -1.69137,1.842424 -0.64431,0 -1.24848,-0.46315 -1.81225,-1.389354 0,-0.543643 0.22164,-1.802079 0.66459,-3.7753 0,-1.228221 -0.6948,-2.09394 -2.0841,-2.597312 0,-0.78526 0.73504,-1.17798 2.20486,-1.17798 1.99337,-3.644402 3.64435,-6.996795 4.95312,-10.057292 0.68458,-1.449708 1.0773,-2.174566 1.17797,-2.174567 z m 27.27275,0.694594 h 0.12077 c 0.0805,0 0.17114,0.10065 0.27182,0.301994 v 0.271839 c -0.28188,0 -0.9363,2.094117 -1.96317,6.282164 -0.76513,4.067243 -1.14766,6.654548 -1.14766,7.761967 0.84565,2.859152 1.26842,4.469918 1.26842,4.832347 -0.3423,1.187951 -0.89592,1.781956 -1.66103,1.781956 h -0.12094 c -1.10742,-0.100671 -1.66102,-0.65445 -1.66102,-1.661194 0.22148,-0.885933 0.33213,-1.81207 0.33213,-2.778543 0,-1.047018 -0.61401,-1.983329 -1.84225,-2.808859 v -0.301994 c 0,-0.201344 0.45297,-0.332198 1.35903,-0.392601 0.8658,-1.469845 1.95317,-4.600912 3.26194,-9.393015 0.6846,-2.536994 1.27859,-3.835651 1.78196,-3.896061 z m 11.26541,0 -0.15107,0.271847 v 0.150908 c 0,0.120813 0.0302,0.181231 0.0906,0.181231 l -0.0906,0.151079 v 0.694592 c 0,0.604046 0.14104,0.936346 0.4229,0.996749 0.50338,-0.161077 0.84571,-0.241684 1.02692,-0.241684 h 1.75164 c 0.22148,0 0.6042,-0.151052 1.14783,-0.45307 l 0.57383,0.120922 h 0.72475 c 0.40269,-0.342291 0.60414,-0.714811 0.60414,-1.117509 0,-0.221487 -0.0906,-0.473168 -0.27184,-0.755065 -0.78527,0.08052 -1.36924,0.120771 -1.75182,0.120771 h -1.72149 c -0.50336,0 -1.28863,-0.04026 -2.35579,-0.120771 z m -4.10743,1.510118 c 0.50339,0.221486 0.86571,0.513397 1.08719,0.875825 v 0.120762 c 0,0.342299 -1.20803,0.51354 -3.62421,0.51354 h -0.69475 c -0.0805,0 -0.1812,-0.10065 -0.30198,-0.301994 v -0.120931 c 0,-0.221484 0.92629,-0.473175 2.7787,-0.755053 0,-0.100671 0.25169,-0.211334 0.75505,-0.332149 z m -42.49484,0.362456 c 2.57726,0.362426 3.8659,1.187925 3.8659,2.476557 0,0.4027 -0.15104,0.785235 -0.45307,1.147666 -0.30202,0.322157 -0.60394,0.483215 -0.90596,0.483215 -0.68459,0 -1.2988,-0.825498 -1.84243,-2.476559 -0.78525,-0.322149 -1.17782,-0.704694 -1.17782,-1.147656 0,-0.221484 0.17108,-0.382544 0.51338,-0.483223 z m 29.68899,0.09061 c 1.73159,0.342299 2.59731,1.208014 2.59731,2.59732 0,0.04026 0.0302,0.191315 0.0906,0.453071 -0.40272,0.74499 -0.83549,1.11751 -1.29859,1.11751 -0.72485,0 -1.20819,-0.956512 -1.44982,-2.86932 -0.44295,-0.362429 -0.67446,-0.61412 -0.69458,-0.755064 0.10071,-0.362429 0.35235,-0.543517 0.75505,-0.543517 z m 21.68533,2.537019 c 0.56377,0 1.11738,0.342147 1.66104,1.026733 v 0.271848 c -0.38258,0.06039 -0.66447,0.09061 -0.84568,0.09061 -1.71147,0 -3.02014,0.08062 -3.92622,0.241684 -0.66444,-0.181214 -0.99673,-0.352456 -0.99673,-0.513531 0,-0.322158 1.07718,-0.53346 3.2316,-0.634133 0,-0.140944 0.29209,-0.302002 0.87599,-0.483216 z m -9.24194,0.241525 c 0.34231,0.100682 0.78524,0.402767 1.3289,0.906139 v 0.181232 c 0,0.120804 -0.21145,0.221444 -0.6343,0.301985 -0.18122,0 -0.48331,-0.04018 -0.90613,-0.120762 -0.88594,0.08052 -1.70126,0.120762 -2.44625,0.120762 -0.66444,0 -1.13761,-0.221477 -1.41949,-0.664447 v -0.03033 h 2.3556 c 0.18121,0 0.7552,-0.231493 1.72167,-0.694594 z m 8.78887,8.426414 c 0.8658,0 1.61085,0.523572 2.23504,1.570579 -0.30203,0.583914 -0.45308,1.077271 -0.45308,1.479972 0,0.442971 0.0402,1.056998 0.12076,1.842258 0,0.966473 -0.9061,1.721536 -2.71823,2.265182 -0.28191,0 -0.96653,-0.614037 -2.05381,-1.842269 -0.68458,-0.543633 -1.1778,-0.815514 -1.4798,-0.815514 v -0.06048 c 0.0201,-0.120805 0.0806,-0.181063 0.18123,-0.181063 h 0.93629 c 0.26174,0 0.90598,0.08044 1.93286,0.241532 0.50338,0 0.79529,-0.795291 0.87582,-2.385943 -0.16108,-0.382562 -0.33216,-0.594022 -0.51337,-0.634291 h -3.2316 c -0.18121,0 -0.33227,0.04017 -0.45307,0.12076 -0.12081,-0.08051 -0.27185,-0.12076 -0.45306,-0.12076 h -0.12078 c -0.28189,0 -0.42293,0.906105 -0.42293,2.71824 v 0.483217 c 0,0.604047 0.0403,1.399337 0.12094,2.385942 -0.28189,0.74499 -0.72484,1.117511 -1.32889,1.117511 -0.70473,0 -1.10745,-0.483175 -1.20814,-1.449649 l 0.48323,-4.983425 -0.30198,-0.151077 c -4.10752,0 -6.16141,-0.171073 -6.16141,-0.513371 v -0.09061 c 0.12082,-0.281894 0.32226,-0.422923 0.60413,-0.422923 3.44308,0.161084 5.86933,0.241693 7.27875,0.241693 0.58392,0 1.62088,-0.08062 3.11087,-0.241693 0.0604,0 0.29191,0.04035 0.69458,0.120932 0.72485,-0.08051 1.50011,-0.312201 2.32565,-0.694763 z m -45.54523,8.57061 c 0.26175,0.02012 1.31891,0.453078 3.17133,1.298741 0,0.06039 0.0805,0.12082 0.24152,0.181221 -0.0201,0.543645 -0.34226,0.966408 -0.96644,1.268435 -0.60405,0.281887 -0.92618,0.563782 -0.96645,0.84567 -0.0201,0.261756 -0.77517,1.570588 -2.26517,3.926368 v 0.392607 c 0,0.342291 0.38254,0.603995 1.14766,0.785211 l 0.2417,0.362456 v 0.543677 c -0.54364,0.261756 -0.81553,0.724908 -0.81553,1.389355 l 0.2417,0.78521 c -0.0805,1.006746 -0.12094,1.600741 -0.12094,1.781955 0.12083,0.543644 0.18124,0.936201 0.18124,1.177819 l -0.0301,0.09061 c 0,0.503381 -0.0402,1.016929 -0.12077,1.540433 0.0604,0.221484 0.0906,0.493205 0.0906,0.815364 l -0.0906,0.181222 0.0906,0.181231 c -0.0805,0.825532 -0.12093,1.349095 -0.12093,1.57058 0.16108,0.644316 0.24169,1.248336 0.24169,1.812111 l -0.12076,0.815525 c 0.0402,0.885932 0.1107,1.328886 0.21137,1.328886 l -0.0605,0.603977 v 3.443159 c -0.38257,0.402701 -0.74489,0.60398 -1.0872,0.60398 l -0.87601,-0.03016 c -0.32214,-0.201354 -0.55363,-0.553842 -0.69457,-1.057216 0.0805,-0.966474 0.18119,-3.181251 0.30198,-6.644457 l -0.0603,-0.634293 c 0.12081,-0.201346 0.18122,-0.432848 0.18122,-0.694595 0.0402,-1.067148 0.0806,-1.691356 0.12077,-1.87257 -0.0402,-0.302028 -0.0806,-1.389221 -0.12077,-3.26176 l 0.0905,-0.362462 c -0.0402,-0.221487 -0.0603,-0.694646 -0.0603,-1.419503 v -0.09061 c 0,-0.221484 -0.0402,-0.755071 -0.12077,-1.600732 h -0.18122 l -1.44981,2.114095 -1.63088,2.174566 c -0.16109,0.120811 -0.46316,0.241641 -0.90613,0.362455 l -0.0603,-0.181233 v -0.271837 c 0.0201,-0.161084 0.71477,-1.298681 2.08394,-3.412836 1.79202,-3.946448 2.68795,-6.241826 2.68795,-6.886142 0.48322,-0.785268 0.79532,-1.842417 0.93627,-3.171321 0.32217,-0.523504 0.54365,-0.785201 0.66444,-0.785201 z m 6.97677,0.332307 h 0.51351 c 1.71149,0.281888 2.56718,0.563783 2.56718,0.845672 v 0.543516 l -0.99677,1.389356 c -0.0201,1.590651 -0.0702,2.738433 -0.15089,3.443151 0.0403,0.241616 0.0603,0.452919 0.0603,0.634133 0,0.06039 -0.0302,0.141011 -0.0906,0.241693 0.0402,0.241607 0.0605,0.765179 0.0605,1.570577 v 0.905971 l -0.12077,1.419503 h -0.0906 l 0.15091,0.362454 h 0.45307 c 3.96657,-3.322253 5.94985,-5.285341 5.94985,-5.889395 l 0.66445,-0.724908 c 0.50337,0.02012 0.93632,0.332248 1.29874,0.936287 1.22822,0.583913 1.84243,1.268544 1.84243,2.053804 -1.38931,0.201344 -2.37603,0.533484 -2.95993,0.996587 -0.94635,0.604046 -1.42953,0.98658 -1.44967,1.147663 h -0.0303 c -0.34229,0 -0.74487,0.292071 -1.20796,0.875984 -1.38932,0.845662 -2.14437,1.268427 -2.2652,1.268427 -0.18121,0.281885 -0.68458,0.624202 -1.51011,1.026901 h -0.45306 c -0.24162,0.38256 -0.36245,0.694669 -0.36245,0.936286 0,0.100671 0.0302,0.191298 0.0906,0.27184 l 0.0301,2.144417 c 0,0.201347 -0.0302,0.352229 -0.0906,0.452902 0.0807,0.724849 0.12094,1.671184 0.12094,2.839005 l -0.0303,1.661194 c 0,1.026885 0.22148,1.540272 0.66444,1.540272 0.32216,0.140944 0.97658,0.241752 1.96319,0.302155 1.2685,-0.04026 2.21483,-0.06048 2.83901,-0.06048 0,-0.140944 0.23165,-0.211378 0.69477,-0.211378 l 0.63413,0.09061 c 1.55036,-0.463101 2.47668,-1.06728 2.77869,-1.81227 l 0.57383,-2.748396 0.27185,-0.181225 0.63413,0.03033 c 0.12081,0.02012 0.18123,0.08052 0.18123,0.181224 l -0.0301,2.204712 c 0,0.10067 0.25168,0.755096 0.75505,1.963188 l -0.0301,0.271838 c -0.0201,1.22823 -0.68456,1.983293 -1.99334,2.265182 -0.76513,0.161074 -1.14784,0.30194 -1.14784,0.422753 l -0.60396,-0.09061 c -0.24162,0 -0.62417,0.05038 -1.14767,0.151077 -0.66446,-0.06039 -1.25845,-0.100786 -1.78195,-0.120922 -0.24164,0 -0.42289,0.03025 -0.54369,0.09061 -0.0604,0 -0.0906,-0.03024 -0.0906,-0.09061 l -0.42276,0.09061 h -0.81552 c -1.04701,0 -1.8725,0.06039 -2.47657,0.181232 l -0.87579,-0.03016 c -1.63094,-0.704719 -2.44642,-1.258496 -2.44642,-1.661186 v -0.03014 c -0.0604,0 -0.0906,-0.03024 -0.0906,-0.09061 0,-1.389307 0.0702,-2.245009 0.21137,-2.567166 -0.0604,-0.120813 -0.0906,-0.241642 -0.0906,-0.362455 0.0201,-0.201346 0.0604,-0.352397 0.12076,-0.453071 l -0.15092,-1.781955 c 0.0604,-0.281888 0.12082,-0.422756 0.18122,-0.422756 -0.0604,-0.80539 -0.11079,-1.278568 -0.15106,-1.41951 0.0604,-0.281879 0.10061,-0.96651 0.12076,-2.053795 0,-0.100671 -0.0604,-0.161092 -0.18124,-0.181224 h -0.72475 c 0,0.241617 -0.6746,0.614137 -2.02364,1.11751 l -0.90597,0.211378 h -0.0906 c -0.22149,-0.120813 -0.3323,-0.261672 -0.3323,-0.422755 0,-0.463103 0.77525,-0.926255 2.32564,-1.389358 0.94634,-0.543643 1.57055,-0.966397 1.87257,-1.268425 v -4.711575 c 0.0805,-0.503373 0.12076,-0.795444 0.12076,-0.875984 -0.10072,-0.241617 -0.15108,-0.634177 -0.15108,-1.177819 0,-0.604045 0.0302,-1.006779 0.0906,-1.208125 -0.18123,-2.597397 -0.27184,-4.177957 -0.27184,-4.741732 0.0604,0 0.24166,-0.100638 0.54367,-0.301993 z m 40.44103,0.362287 h 0.57383 c 0.0805,0 0.2014,0.05038 0.36246,0.151075 0.16108,-0.100671 0.26172,-0.151075 0.30199,-0.151075 1.02688,0.402698 1.64091,0.825621 1.84225,1.268594 v 0.422746 c -0.38255,0.583913 -0.69466,0.875993 -0.93628,0.875993 v 2.929621 c 0,0.100671 -0.0702,0.150917 -0.21138,0.150917 l 0.21138,1.117508 -0.0906,0.664448 c 0.0604,0.865802 0.0906,1.469821 0.0906,1.812102 l -0.0906,0.573832 c 0.0604,0.100671 0.0906,0.211496 0.0906,0.332308 h -0.12076 c 0.0805,0.161076 0.12076,0.281913 0.12076,0.362454 -0.12082,0.4027 -0.18123,0.684604 -0.18123,0.845671 0,0.161084 0.0905,0.513405 0.27185,1.057048 -0.12081,1.812146 -0.18123,2.929544 -0.18123,3.352385 l 0.0906,1.268585 c -0.0604,0.221484 -0.0906,0.493364 -0.0906,0.815523 0.10072,0.181215 0.22152,0.704618 0.36246,1.570421 -0.0604,0.543643 -0.0906,0.956392 -0.0906,1.238277 0,0.60403 0.0302,1.59076 0.0906,2.959935 0,1.389298 -0.58384,2.396059 -1.75167,3.020236 -1.18792,0 -1.78194,-0.231668 -1.78194,-0.694753 -0.94635,-0.543644 -1.64098,-0.845578 -2.08394,-0.90598 l -0.24169,-0.27184 -0.33216,0.15091 c -0.2416,0 -0.40267,-0.110654 -0.48321,-0.332141 v -0.664447 l 0.12077,-0.211368 c 0.5839,0.120803 1.4396,0.181224 2.56717,0.181224 1.10741,0 1.66119,-0.342325 1.66119,-1.026903 0.12079,-0.624177 0.21143,-1.480047 0.27185,-2.567325 l -0.0906,-0.211377 0.0906,-0.483218 c -0.0604,-0.966483 -0.0906,-1.671149 -0.0906,-2.114104 0,-0.08051 0.0301,-0.18135 0.0906,-0.302153 l -0.0906,-0.543517 c 0,-0.78525 -0.0302,-1.751786 -0.0906,-2.899473 l 0.18122,-0.39261 -0.0906,-1.11751 c 0,-0.201355 0.0301,-0.432837 0.0906,-0.694594 l -0.18122,-3.443151 c 0,-0.08051 0.0302,-0.181189 0.0906,-0.302001 -0.12081,-2.013473 -0.21143,-3.221514 -0.27184,-3.624214 0.12081,-0.302018 0.18123,-0.714926 0.18123,-1.238439 -0.12082,-0.08052 -0.27186,-0.946252 -0.45307,-2.597314 0.18121,-0.181212 0.27184,-0.292035 0.27184,-0.332306 z m -11.38636,0.785368 h 0.33233 c 0.6443,0.221486 1.23814,0.765087 1.78179,1.630889 0.0805,0 0.18134,0.100639 0.30215,0.301985 0,0.261757 -0.28189,0.432998 -0.84568,0.51354 -0.90606,-0.04026 -1.3592,-0.130904 -1.3592,-0.271848 -0.44295,0.161083 -0.69465,0.241532 -0.75507,0.241532 l 0.0906,0.03033 c -1.1477,0 -1.91277,0.03024 -2.29534,0.09061 l -0.48323,-0.09061 -0.45307,0.09061 -1.99332,-0.181222 c -0.26176,0.120803 -0.43298,0.181222 -0.51353,0.181222 -0.22147,0 -0.8053,-0.06039 -1.75165,-0.181222 -0.40268,0.06039 -0.81545,0.09061 -1.23827,0.09061 -0.16108,-0.06039 -0.24169,-0.302079 -0.24169,-0.724909 0.14093,-0.261756 0.3524,-0.392607 0.6343,-0.392607 l 1.11751,0.09061 c 0.22148,0 0.45296,-0.03025 0.69459,-0.09061 2.31551,0.08051 3.47331,0.22141 3.47331,0.422755 0.42283,-0.221478 0.82558,-0.332139 1.20812,-0.332139 h 0.66446 l 0.93627,-1.147664 c 0.18121,0 0.41272,-0.09061 0.69459,-0.271839 z m 6.94662,1.812112 h 0.12077 c 1.14769,0.523512 1.7315,0.885849 1.75164,1.087202 v 0.66444 c 0,0.241624 -0.13085,0.563916 -0.3926,0.966601 v 1.147662 c 0,0.281888 -0.0604,0.422756 -0.18123,0.422756 0.0604,0.78526 0.0906,1.570537 0.0906,2.355788 0,0.221485 -0.0906,0.453146 -0.27184,0.694762 v 0.513372 c 0.20136,0 0.36257,0.946327 0.48337,2.839004 l -0.12091,1.208125 c 0.0806,0.140952 0.12091,0.231576 0.12091,0.271847 -0.14094,0.02012 -0.21153,0.100587 -0.21153,0.241524 0,1.369174 0.0705,3.000129 0.21153,4.892807 -0.14094,0.140953 -0.48326,0.362438 -1.02691,0.664448 l 0.0301,0.03033 -0.81553,-0.09061 0.0303,-1.298748 c -0.0604,-2.557117 -0.0907,-4.409558 -0.0907,-5.557248 0,-0.261756 0.0605,-0.583871 0.18124,-0.966441 -0.1208,-0.382559 -0.18124,-0.634251 -0.18124,-0.755054 l 0.0907,-1.328895 c -0.1208,-3.583985 -0.30204,-6.080843 -0.54368,-7.490288 0.3423,-0.342281 0.58398,-0.513364 0.72492,-0.513364 z m -4.04714,1.630879 h 0.45307 c 1.10742,0.966466 1.66103,1.68131 1.66103,2.144411 -0.24161,0.241626 -0.36246,0.382486 -0.36246,0.422756 h -0.1509 c -0.60405,-0.140944 -1.01678,-0.211369 -1.23829,-0.211369 0,0.201346 -0.0302,0.301984 -0.0905,0.301984 -0.56379,0 -1.36926,-0.03024 -2.41627,-0.09061 l -0.81551,0.09061 c -0.3423,-0.06039 -0.96634,-0.09061 -1.87242,-0.09061 0,0.241616 0.13086,0.543711 0.39261,0.906139 0.0604,0.100671 0.0905,0.231526 0.0905,0.39261 -0.20135,0.161074 -0.45303,0.241684 -0.75505,0.241684 0,-0.08051 -0.15104,-0.120922 -0.45308,-0.120922 0,0.261747 -0.61419,0.95656 -1.84242,2.084109 0,0.08052 -0.19127,0.342239 -0.57383,0.78521 v 0.51337 c 0.32216,0 0.60406,0.463145 0.84568,1.389356 v 0.785203 c -0.46311,0.704725 -0.83562,1.057215 -1.11752,1.057215 h -0.12078 c -0.72483,-0.34229 -1.08719,-0.916272 -1.08719,-1.721656 -1.00674,-1.590659 -1.80219,-2.385943 -2.3861,-2.385943 l -0.30198,-0.332308 c 0.12079,-0.382561 0.22144,-0.583846 0.30198,-0.603977 0.54364,0.04026 0.81553,0.23154 0.81553,0.573831 0.84566,0.06039 1.52011,0.09061 2.02348,0.09061 0.24162,-0.161083 0.87601,-1.147639 1.90289,-2.959775 0.22147,0 0.33214,-0.08061 0.33214,-0.241693 l -0.24152,-0.483216 -1.41968,0.181224 c 0,-0.100671 -0.12069,-0.151077 -0.36227,-0.151077 -0.48327,0 -2.1244,0.03024 -4.92314,0.09061 -0.82553,0 -1.37913,-0.140869 -1.66103,-0.422755 v -0.181223 c 0,-0.42284 0.2617,-0.634292 0.78519,-0.634292 0.76513,0.261748 1.25849,0.392598 1.47998,0.392598 l 0.63431,-0.18123 c 0.58388,0.06039 1.57046,0.09061 2.95976,0.09061 1.38932,0 2.235,0.03024 2.53701,0.0906 3.90617,0 5.85925,-0.251687 5.85925,-0.755063 0.0403,0 0.4128,-0.352337 1.11752,-1.057046 z m -2.68809,4.681432 h 0.51353 c 0.42284,0.463102 1.02686,0.865835 1.81211,1.208133 0.18122,0.261748 0.27184,0.483233 0.27184,0.664437 l -0.87582,0.815365 h -0.72492 l -0.45306,-0.241532 c 0,0.8054 -0.27188,1.348992 -0.81553,1.630888 -0.12081,0.563775 -0.96632,1.57052 -2.53684,3.020228 -0.10071,0 -0.60406,0.42278 -1.51011,1.268434 -2.17458,0.986608 -3.60425,1.771882 -4.28885,2.35579 -0.40268,0 -0.95647,0.221477 -1.66118,0.664447 -0.18121,0 -0.60399,0.161218 -1.26842,0.483376 -0.0604,0 -0.34231,0.06022 -0.84568,0.181062 l -0.21138,-0.301985 v -0.18123 c 0,-0.684579 0.87591,-1.147572 2.62764,-1.389189 0.6443,-0.543642 1.59065,-1.077238 2.83901,-1.600733 0,-0.161075 0.76506,-0.795317 2.29532,-1.902718 0,-0.100681 0.25167,-0.191305 0.75505,-0.271847 0,-0.563775 0.27189,-1.016902 0.81553,-1.359201 0.78527,-0.885932 1.65098,-2.073935 2.59732,-3.563922 l 0.36244,-0.271669 -0.0905,-0.211547 z m 0.90614,5.285417 c 0.4631,0.08052 1.20814,0.533511 2.23502,1.35904 0,0.865785 -0.22147,1.298741 -0.66444,1.298741 -0.30202,0.322158 -0.88602,0.755105 -1.75181,1.29874 0,0.241616 -0.45298,0.694585 -1.35903,1.359043 0.10071,0.281885 0.34218,0.553776 0.72474,0.815514 h 0.96644 c 1.63092,0.583914 2.44638,1.107319 2.44638,1.57042 0.62419,0.362428 0.93629,1.228322 0.93629,2.597479 l -0.84566,0.996587 h -0.81536 c -0.44295,-0.382559 -0.66445,-0.946182 -0.66445,-1.691181 h 0.12077 c -0.24162,-0.322157 -0.49331,-0.825521 -0.75506,-1.510108 l -1.93304,-1.781965 c -0.2416,0 -0.55356,-0.05038 -0.93612,-0.151077 0,0.221486 -0.67461,0.865886 -2.02364,1.933042 -0.44297,0.483233 -1.29869,1.057047 -2.56718,1.721487 -0.26175,0.302027 -0.76513,0.513488 -1.51012,0.634301 -0.62417,0.30202 -1.28861,0.563717 -1.99332,0.785203 -0.36244,0.422837 -0.97664,0.634299 -1.84244,0.634299 -0.1007,-0.161083 -0.15091,-0.40275 -0.15091,-0.724908 0.46312,-0.523512 1.07713,-0.78521 1.84226,-0.78521 l 3.77529,-2.446404 c 0.26176,-0.342289 1.00682,-0.986706 2.23504,-1.933032 1.9128,-1.812144 2.86914,-3.000147 2.86914,-3.563922 1.10744,-1.590642 1.66121,-2.395958 1.66121,-2.416089 z" />
</svg>
