<?xml version="1.0" encoding="UTF-8" standalone="no"?>
<svg
   width="542"
   height="112"
   viewBox="0 0 542 112"
   fill="none"
   version="1.1"
   id="svg32"
   sodipodi:docname="game_logo.svg"
   inkscape:version="1.4.2 (f4327f4, 2025-05-13)"
   xmlns:inkscape="http://www.inkscape.org/namespaces/inkscape"
   xmlns:sodipodi="http://sodipodi.sourceforge.net/DTD/sodipodi-0.dtd"
   xmlns="http://www.w3.org/2000/svg"
   xmlns:svg="http://www.w3.org/2000/svg">
  <defs
     id="defs36" />
  <sodipodi:namedview
     id="namedview34"
     pagecolor="#3f008c"
     bordercolor="#000000"
     borderopacity="0.25"
     inkscape:showpageshadow="2"
     inkscape:pageopacity="0"
     inkscape:pagecheckerboard="0"
     inkscape:deskcolor="#d1d1d1"
     showgrid="false"
     inkscape:zoom="2.0000001"
     inkscape:cx="287.24999"
     inkscape:cy="138.24999"
     inkscape:window-width="2560"
     inkscape:window-height="1494"
     inkscape:window-x="-11"
     inkscape:window-y="-11"
     inkscape:window-maximized="1"
     inkscape:current-layer="svg32" />
  <g
     id="g297"
     transform="matrix(0.81647658,0,0,0.81647658,-0.00463671,8.1718578)">
    <path
       id="path2"
       style="fill:#ffffff;fill-opacity:1;stroke-width:0.953723"
       d="M 0.09179732,5.1668527 V 45.891261 L 16.30417,57.67847 V 21.379226 h 6.674954 V 5.1668527 Z m 29.56475968,0 V 21.379226 h 4.76747 v 6.677435 H 22.979124 v 40.550774 l 11.444903,8.135953 v 9.678806 L 16.30417,73.223596 v -8.33439 L 0.09179732,53.032544 V 81.319861 L 42.053962,111.98347 84.018607,81.319861 V 53.042466 L 67.803755,64.896647 v 8.336871 L 49.683898,86.414751 V 76.743388 L 61.128803,68.607435 V 28.056661 H 49.683898 v -6.677435 h 4.769951 V 5.1668527 Z m 31.472246,0 V 21.379226 h 6.674952 v 35.59231 L 84.018607,45.402608 V 5.1668527 Z m -19.064918,29.8128063 3.891861,9.862363 10.410547,0.701974 -7.959839,6.650149 2.470553,10.234432 -8.832966,-5.588507 -8.810641,5.588507 2.477993,-10.244354 -7.982164,-6.674954 10.452714,-0.706935 z" />
    <path
       id="path42"
       style="fill:#ffffff;fill-opacity:1;stroke-width:1.21401"
       d="M 110.97391,5.1618925 V 48.865349 H 92.762275 v 63.130521 h 19.424585 v -4.85676 h 18.21163 v 4.85676 h 9.71106 L 149.8206,99.856444 V 48.865349 H 130.39849 V 34.29753 h 13.96011 l 6.06476,-13.354868 H 130.39849 V 5.1618925 Z m 46.73955,0 3.03364,15.7807695 h -6.06974 l -6.06972,13.354868 h 14.56784 l 8.49809,44.313653 -26.70725,33.384687 h 19.3948 l 10.95625,-13.90305 2.46807,13.90305 h 21.81825 l -6.71216,-35.051565 6.71216,-7.791165 V 45.228976 L 189.2775,57.36345 184.42072,34.29753 h 15.17554 l -2.42838,-24.278872 h -13.35239 l 2.42591,10.924004 h -4.24906 L 178.90415,5.1618925 Z m -45.5266,57.0583245 h 18.21163 v 31.564021 h -18.21163 z" />
    <path
       id="path46"
       style="fill:#ffffff;fill-opacity:1;stroke-width:1.21401"
       d="m 223.09873,5.1618925 -2.23739,7.2826685 h -12.76698 v 41.277554 h -3.03361 l 3.03361,12.747151 v 45.526604 h 12.14191 l 3.64134,-3.64133 V 65.861552 l 12.13944,26.709736 V 65.861552 h 3.64132 v 46.134318 h 11.97077 l 3.81249,-3.64133 V 65.861552 h 3.0361 l -3.0361,-12.139437 V 12.444561 h -16.99621 l 1.99678,-7.2826685 z m 37.19968,0 V 84.680901 l 14.5678,-13.962583 V 17.41791 l 26.70726,-0.116579 V 84.17737 h 11.1274 l 3.44291,-3.745516 V 5.1618925 Z M 279.6957,23.371046 V 71.93375 L 260.29841,90.750618 V 111.99587 L 296.7192,75.575085 V 23.371046 Z m -55.81809,2.393656 15.78076,0.03473 V 53.722121 L 227.51895,28.835534 v 24.886587 h -3.64134 z m 72.84159,55.880101 -17.0235,16.388486 v 13.962581 h 36.44808 V 96.212622 H 296.7192 Z" />
    <path
       d="m 418.12102,24.651485 12.14025,-0.06553 v 10.926216 l -2.42803,2.428049 h -9.71221 v 43.704856 l -3.64209,3.653006 h -52.20302 l 19.42436,-20.042328 v 6.677135 h 16.99636 V 37.940194 h -16.99636 v 21.245423 l -19.42436,20.031395 v -41.27682 h -12.14026 v 57.059132 h 80.12561 v 13.354266 l -3.64209,3.6421 H 329.49724 V 39.154217 l -7.85351,-14.502731 h 7.85351 V 5.1615437 h 20.63842 V 24.651485 h 12.14026 V 5.1615437 h 19.42436 V 24.585928 l 16.99636,0.06553 V 5.1615437 h 19.72663 z"
       fill="#ffffff"
       id="path50"
       style="stroke-width:1.21401"
       sodipodi:nodetypes="cccccccccccccccccccccccccccccccccccc" />
    <path
       id="path52"
       style="fill:#ffffff;fill-opacity:1;stroke-width:1.21401"
       d="M 438.75853,5.1618925 V 59.791832 h 14.57029 l -18.20915,9.713535 v 19.424585 l 53.52364,-28.957045 53.30786,28.957045 V 69.505367 l -18.20916,-9.713535 h 10.9265 l 2.42588,-2.428382 V 5.1618925 Z M 459.39854,18.51676 h 18.20916 v 8.4981 h -14.56782 l 4.85677,10.926486 h 9.71105 v 8.408804 h -18.20916 z m 57.05833,0 v 27.83339 h -18.13226 v -8.346793 h 12.06253 l 2.42841,-2.490395 V 27.01486 h -14.49094 v -8.483217 z m -44.9189,55.845372 -23.06592,12.139437 v 25.494301 h 19.09469 l 3.97123,-3.64133 z m 35.17063,0 v 37.633738 h 19.58582 l 3.51731,-3.64133 V 86.501569 Z" />
  </g>
  <g
     id="g1"
     transform="matrix(0.11247326,0,0,0.11247326,445.80895,34.379692)">
    <path
       d="m 334.94776,-30.74473 0.125,27 11.20083,0.116117 0.10215,-21.315092 7.6752,-5.799502 40.83811,0.0054 0.18371,26.993068 11.30714,-0.02589 -0.0152,-20.734366 7.5477,-6.256212 h 41.13821 l 0.0221,26.602252 11.00888,0.06629 0.14464,-20.448095 7.97148,-6.297733 42.34375,-0.03125 0.53125,61.125 h -226 v 8 h 226 l 0.11638,81.292893 46.88388,16.70711 -2e-4,29 21.12494,5.25 -0.125,-29.25 c 0,0 29.43031,6.2797 44,10 v 30 l 22.87177,3.94454 0.15167,-30.28829 43.72656,6.34375 0.25,29 23.67754,1.0625 -0.11546,-29.125 43.4375,2.0625 v 29 l 23.53039,-0.125 0.10425,-29.10002 c 0,0 29.34561,0.22502 44.36536,0.22502 0.24128,17.46324 0.004,34.63042 -2,52 l -0.40674,3.61768 c -5.32304,46.53973 -17.63705,91.00346 -36.51514,133.88818 -1.07249,2.48111 -2.08598,4.97996 -3.07812,7.49414 -60.45365,0.73967 -119.86842,-5.39357 -179,-18 l -2.32544,-0.49493 c -25.75508,-5.51081 -51.15673,-12.25815 -76.56354,-19.16614 -22.9376,-6.23544 -45.885,-12.14827 -69.17547,-16.93903 -1.86389,-0.38509 -3.72593,-0.77904 -5.58789,-1.17334 -12.50661,-2.64043 -25.05433,-4.72236 -37.7227,-6.41406 l -3.46704,-0.46997 c -23.49021,-2.95905 -47.01571,-3.63977 -70.66128,-3.54532 -3.76481,0.0128 -7.52964,0.0137 -11.29447,0.0161 -7.07875,0.006 -14.15744,0.0224 -21.23616,0.0427 -24.52268,0.0409 -49.04529,0.0964 -73.56784,0.18818 l 0.24678,-39.78833 c 0,0 -0.35642,-7.50398 -0.23563,-11.25586 -62.08262,11.81099 -122.20803,43.58116 -168.60812,86.44531 -2.18705,1.99489 -4.3947,3.94964 -6.6289,5.89063 -4.1641,3.63199 -8.21036,7.37812 -12.23438,11.16406 l -2.02539,1.89453 c -4.38869,4.11999 -8.68176,8.32316 -12.91211,12.60547 -3.35307,-3.11746 -5.0759,-6.77937 -7,-10.875 l -1.17163,-2.4939 C 9.59235,308.98914 -2.38689,265.79981 -5.71118,221.99697 -5.90116,219.58617 -6,206.48658 -6,206.48658 c 5.39954,-6.29487 32.07276,-37.23131 32.07276,-37.23131 v 38 l 9.11612,-8.46967 0.10497,-35.91041 6.29452,-7.36601 39.48439,-27.25391 -0.25,33.46875 10.60355,-5.99908 -0.0441,-29.52309 7.294,-6.97599 38.39655,-18.97059 v 32 l 10,-4 -0.01,-26.66406 8.35742,-7.85938 39.77758,-11.35156 -0.125,31.875 10.0625,-3.0625 0.28064,-24.78454 9.1941,-7.2968 c 0,0 21.61287,-3.3481 23.97748,-3.32583 L 238.7876,4.403707 c 0,0 6.35971,-4.013863 53.26954,-34.929687 z"
       fill="#cd0711"
       id="path2-0"
       sodipodi:nodetypes="ccccccccccccccccccccccccccccccccccccccccccccccccccccccccccccsccccccccccccccccccccccccccc"
       style="display:inline" />
    <path
       d="m 291.03897,295.21108 -52.61266,0.13258 0.33907,-290.958154 52.29176,-34.786486 z"
       fill="#ab010a"
       id="path4"
       sodipodi:nodetypes="ccccc"
       style="display:inline" />
    <path
       d="m 406.26026,-199.99473 c 1.54014,0.005 1.54014,0.005 3.11139,0.009 24.28312,0.0858 47.79016,1.82586 71.70111,6.2406 0.97614,0.17902 1.95229,0.35804 2.95801,0.54248 79.37409,14.85448 160.27714,55.43806 211.08496,120.0083 1.81683,2.27377 3.72116,4.38606 5.70703,6.51172 6.39372,7.12951 11.77659,15.0963 17.25,22.9375 0.51643,0.7396 1.03286,1.4792 1.56494,2.24121 30.91937,44.60271 63.43506,109.09438 63.43506,164.75879 -21.12,0 -42.24,0 -64,0 -1.485,-9.9 -1.485,-9.9 -3,-20 -0.9457,-4.46509 -1.92055,-8.84105 -3.0625,-13.25 -0.29818,-1.16346 -0.59635,-2.32692 -0.90356,-3.52563 -14.48373,-55.3332 -37.63423,-109.23511 -75.6438,-152.62378 -1.47033,-1.69291 -2.91455,-3.40563 -4.35498,-5.12403 -8.64403,-10.2828 -17.76636,-19.78475 -28.03516,-28.47656 -0.9075,-0.79664 -1.815,-1.59328 -2.75,-2.41406 -67.15383,-58.56314 -157.63909,-87.96312 -246.29834,-82.34717 -37.53678,2.64217 -75.67593,10.00305 -110.45898,24.71606 -5.18533,2.14762 -5.18533,2.14762 -8.49268,1.04517 53.37347,-26.94175 110.2732,-41.57403 170.1875,-41.25 z"
       fill="#e8b862"
       id="path5" />
    <path
       d="m 407.07276,-163.74473 c 0.86996,0.0965 1.73991,0.19304 2.63623,0.29248 51.99021,5.85358 103.15602,22.84603 146.36377,52.70752 -0.66,0.33 -1.32,0.66 -2,1 -2.40405,-0.96875 -2.40405,-0.96875 -5.43359,-2.5 -1.11391,-0.55414 -2.22783,-1.10827 -3.37549,-1.6792 -0.88731,-0.44615 -0.88731,-0.44615 -1.79254,-0.9013 -33.012,-16.53399 -68.60549,-25.799 -105.39838,-28.9195 -1.18336,-0.11086 -2.36672,-0.22172 -3.58594,-0.33594 -61.73041,-5.042 -122.8855,8.37783 -177.41406,37.33594 -0.63921,0.33822 -1.27843,0.67644 -1.93701,1.0249 -15.98857,8.536505 -30.92006,18.656987 -45.06299,29.9751 -0.8959,0.702539 -1.7918,1.405078 -2.71484,2.128906 -8.16985,6.514286 -15.73633,13.657624 -23.28516,20.871094 -0.87141,0.82887 -1.74281,1.65773 -2.64062,2.51172 -4.6737,4.55113 -8.85918,9.36854 -12.92334,14.46997 -2.33766,2.89641 -4.74109,5.72373 -7.1587,8.55347 -5.22848,6.21707 -9.81664,12.80273 -14.27734,19.58984 -0.58311,0.8814 -0.58311,0.8814 -1.17801,1.78061 -6.45505,9.76949 -12.46718,19.67686 -17.82199,30.09439 -0.44924,0.86432 -0.89848,1.72863 -1.36133,2.61914 -1.45458,2.80824 -2.89405,5.6236 -4.32617,8.44336 -0.47139,0.92539 -0.94279,1.85077 -1.42847,2.8042 -2.14069,4.29047 -4.09506,8.50875 -5.60669,13.06299 -3.60083,10.82315 -3.60083,10.82315 -8.16015,14.21484 -3.1842,1.46388 -6.35693,2.68704 -9.64844,3.875 -5.12286,2.03456 -9.9649,4.67702 -14.84375,7.23047 -1.07967,0.56203 -2.15934,1.12406 -3.27173,1.70312 -17.15055,9.03711 -33.11391,19.8503 -47.35327,33.04688 -1.52601,-3.05202 -0.34644,-5.06954 0.55469,-8.31641 0.17657,-0.63963 0.35314,-1.27926 0.53506,-1.93827 0.58566,-2.10539 1.18408,-4.20682 1.78525,-6.30782 0.30611,-1.07852 0.30611,-1.07852 0.61841,-2.17883 5.91012,-20.75231 13.16496,-40.79569 22.50659,-60.25867 0.42539,-0.89316 0.85078,-1.78632 1.28906,-2.70654 14.66269,-30.61695 33.71494,-58.8724 56.60547,-83.96924 1.84525,-2.03696 3.63629,-4.10693 5.41797,-6.19922 7.24165,-8.302631 15.2228,-16.079235 23.6875,-23.125 0.78246,-0.66 1.56492,-1.32 2.37109,-2 17.72021,-14.74489 36.54509,-27.69761 56.62891,-39 0.7317,-0.4125 1.46341,-0.825 2.21729,-1.25 60.32228,-33.66581 132.42168,-45.82892 200.78271,-37.75 z"
       fill="#cd0811"
       id="path6" />
    <path
       d="m 469.01026,90.94277 c 5.73471,4.237785 9.75597,9.56744 12.0625,16.3125 0.25727,2.88306 0.25727,2.88306 0.26743,6.11467 l 0.0258,3.72516 0.19077,109.0319 c 0,0 0.0195,7.63159 0.005,11.44765 -0.002,1.3939 0.003,2.78782 0.0147,4.18167 0.0822,10.08574 -0.76645,18.66012 -7.75373,26.37395 -8.39182,7.60452 -18.54639,9.52105 -29.5625,9.5 l -2.66456,-0.005 c -9.97862,-0.18797 -18.76552,-2.82541 -26.10888,-9.89746 -7.67145,-8.25149 -7.85526,-16.71335 -7.81812,-27.53272 -0.006,-1.41351 -0.0208,-4.24052 -0.0208,-4.24052 l -0.0824,-110.28648 c 0,0 -0.009,-4.03718 -0.0237,-6.05572 0.0711,-8.84967 1.37294,-16.45282 6.78094,-23.6696 13.77461,-13.461552 38.33989,-14.999286 54.6875,-5 z"
       fill="#e8b963"
       id="path7"
       sodipodi:nodetypes="ccccccccccccccccc" />
    <path
       d="m 389.94776,92.49746 c 5.83182,4.44928 9.48064,10.51514 10.58646,17.7962 0.17934,3.3854 0.16745,10.12568 0.16745,10.12568 l -0.0625,30.93749 0.015,3.55802 c -0.1786,12.49764 -4.87629,20.03172 -8.93286,21.77746 l 0.0311,1.64499 3.69531,2.73047 c 3.83508,4.17274 4.76964,8.56572 4.91553,14.33618 l 0.0387,3.84499 c 0.003,1.38883 0.007,4.16649 0.007,4.16649 l 0.12146,33.61606 c 0,0 0.0111,2.81369 0.0267,4.22044 0.10315,10.28234 -0.61042,19.00414 -7.73405,26.87834 -8.61149,7.80358 -18.86374,9.4783 -30.125,9.4375 l -2.67188,0.0488 c -10.01981,0.007 -18.60039,-2.33994 -25.95312,-9.36133 -5.596,-6.23021 -8.21643,-11.91529 -8.32227,-20.41333 l -0.0582,-3.79341 c -0.01,-1.35425 -0.0258,-4.06279 -0.0258,-4.06279 l -0.24089,-32.97056 c 0,0 -0.0219,-2.75962 -0.0484,-4.13919 -0.15841,-8.8943 0.60486,-14.90018 6.69551,-21.62072 0,0 3.00004,-2.99997 5.00004,-2.99997 v -2 c -6.27483,-2.32401 -9.43629,-8.26439 -11,-13 -0.28088,-2.60853 -0.28088,-2.60853 -0.32227,-5.42602 l -0.0582,-3.21828 -0.27576,-33.32835 -0.0748,-3.41042 c 0.0503,-9.09126 2.48353,-17.12193 8.84766,-23.856811 14.7612,-12.936229 39.96221,-11.982924 55.75843,-1.517929 z"
       fill="#e8b862"
       id="path8"
       sodipodi:nodetypes="cccccccccccccccccccccccccccccccc" />
    <path
       d="m 339.07276,501.25527 c 11.65848,0.4484 21.73218,7.14148 30,15 5.04407,5.47154 9.33233,11.41122 13.5,17.5625 5.86417,8.59739 13.68926,19.78511 23.42969,24.33984 4.73094,0.22316 8.73119,-4.9481 12.07031,-7.90234 0.6007,-0.50531 1.20141,-1.01063 1.82031,-1.53125 4.88693,-4.43837 8.32014,-9.90988 11.98975,-15.34375 9.31355,-13.7554 20.67323,-27.75266 37.729,-31.71484 2.21094,-0.28516 2.21094,-0.28516 5.46094,-0.41016 -0.47566,0.71736 -0.47566,0.71736 -0.96094,1.44922 -4.90572,7.76514 -8.68707,16.02485 -12.57422,24.33203 -0.8213,1.73973 -1.64292,3.47931 -2.46484,5.21875 -0.40597,0.87664 -0.81195,1.75329 -1.23022,2.65649 -2.50953,5.26294 -5.1716,9.57409 -9.20728,13.78101 -0.67772,0.75313 -0.67772,0.75313 -1.36914,1.52148 -3.0909,3.31012 -6.13748,5.11704 -10.19336,7.04102 1.29527,0.006 1.29527,0.006 2.6167,0.0124 19.36433,0.16024 37.4289,1.68451 56.3833,5.98755 3.57899,0.77175 7.16269,1.51796 10.75,2.25 0.80381,0.16573 1.60762,0.33145 2.43579,0.5022 6.91878,1.37626 13.75757,2.01414 20.81421,2.2478 -2.67915,3.21694 -6.14767,4.73174 -9.875,6.4375 -0.66765,0.30639 -1.33531,0.61279 -2.02319,0.92847 -28.21352,12.64974 -57.35953,10.54163 -86.05884,1.04028 -0.68992,-0.22745 -1.37984,-0.4549 -2.09067,-0.68924 -3.43094,-1.13566 -6.85019,-2.29546 -10.25699,-3.50168 -1.26943,-0.43403 -2.53896,-0.8678 -3.80859,-1.30127 -1.11158,-0.39236 -2.22315,-0.78471 -3.36841,-1.18896 -7.43996,-1.53332 -14.23548,0.55744 -21.28784,2.92724 -1.20338,0.3903 -1.20338,0.3903 -2.43108,0.78847 -2.54005,0.82406 -5.07633,1.65893 -7.61189,2.49669 -31.3424,10.35513 -60.24788,11.77826 -90.37744,-3.0083 -2.34586,-1.20421 -4.61092,-2.47314 -6.81006,-3.92915 0,-0.33 0,-0.66 0,-1 1.05187,-0.0516 2.10375,-0.10312 3.1875,-0.15625 9.13988,-0.60574 18.03581,-1.79807 26.98828,-3.72266 1.22401,-0.26295 1.22401,-0.26295 2.47275,-0.53122 1.69323,-0.36493 3.3864,-0.73018 5.0795,-1.09573 18.57758,-4.00122 36.26952,-5.78425 55.27197,-5.49414 -0.53544,-0.32396 -1.07089,-0.64792 -1.62256,-0.98169 -13.50455,-8.28208 -19.11018,-19.94831 -25.43994,-34.14331 -3.25104,-7.28465 -6.50856,-14.22752 -10.9375,-20.875 z"
       fill="#cc0811"
       id="path10" />
    <path
       d="m 283.07276,478.25527 c 24.60557,8.09081 39.15103,24.43326 51.5625,46.5 7.33514,15.12541 7.33514,15.12541 18.4375,26.5 0,0.66 0,1.32 0,2 -1.11375,-0.165 -2.2275,-0.33 -3.375,-0.5 -13.39767,-1.43812 -26.42769,-0.40185 -39.68073,1.63898 -30.4171,4.61054 -56.8524,4.53323 -84.94427,-9.13898 -1.05961,-0.51434 -2.11922,-1.02867 -3.21094,-1.55859 -2.27555,-1.12503 -4.53849,-2.26743 -6.78906,-3.44141 0,-0.66 0,-1.32 0,-2 0.66081,-0.009 1.32161,-0.0187 2.00244,-0.0283 13.46649,-0.2354 26.60924,-1.03387 39.93506,-3.03418 20.15827,-2.93335 40.43451,-4.21846 60.0625,2.0625 -0.56848,-0.3893 -1.13695,-0.77859 -1.72266,-1.17969 -16.28724,-11.80079 -22.4518,-32.75008 -29.49121,-50.80666 -0.91489,-2.34348 -1.84691,-4.67984 -2.78613,-7.01367 z"
       fill="#cc0811"
       id="path11" />
    <path
       d="m 529.07276,478.25527 c 0.99,0.495 0.99,0.495 2,1 -0.4125,0.85078 -0.825,1.70156 -1.25,2.57812 -3.55683,7.43408 -6.77196,14.92451 -9.75,22.60938 -4.81296,12.23347 -10.12535,21.84286 -20,30.8125 -0.66,0.66 -1.32,1.32 -2,2 0.58008,-0.20496 1.16016,-0.40992 1.75781,-0.62109 0.78117,-0.26942 1.56235,-0.53883 2.36719,-0.81641 0.7657,-0.26684 1.53141,-0.53367 2.32031,-0.80859 15.59466,-4.6021 34.61736,-2.54584 50.3711,0.49218 9.68421,1.83434 19.47994,2.01902 29.30859,2.31641 1.35157,0.0433 2.70314,0.0869 4.05469,0.13086 3.27335,0.10521 6.54677,0.20735 9.82031,0.30664 0,0.66 0,1.32 0,2 -31.06279,16.27492 -57.15816,19.01141 -91.71878,14.14346 -15.20333,-2.12603 -29.91664,-2.76819 -45.28122,-2.14346 0.39542,-0.52602 0.79084,-1.05204 1.19824,-1.59399 6.03417,-8.03481 11.68865,-16.08726 16.73926,-24.78101 6.44817,-11.07411 13.04129,-21.41082 22.0625,-30.625 0.5891,-0.6252 1.1782,-1.25039 1.78516,-1.89453 6.28547,-6.11971 14.37421,-9.41426 22.21484,-13.10547 0.77859,-0.42668 1.55719,-0.85336 2.35937,-1.29297 0.54141,-0.23332 1.08282,-0.46664 1.64063,-0.70703 z"
       fill="#cc0811"
       id="path12" />
    <path
       d="m 589.07276,440.25527 c 1,2 1,2 0.21484,4.73828 -0.42152,1.17949 -0.84304,2.35899 -1.27734,3.57422 -2.23843,6.39586 -4.13508,12.84391 -5.9375,19.375 -3.53401,12.58647 -7.44446,24.93061 -17,34.3125 1.15661,-0.21656 2.31322,-0.43313 3.50488,-0.65625 13.83628,-2.42271 27.23268,-2.61442 41.24512,-2.34375 13.84122,0.26557 26.73949,0.27612 40.25,-3 1.83299,-0.39743 3.66627,-0.79353 5.5,-1.1875 1.155,-0.26813 2.31,-0.53625 3.5,-0.8125 -11.55333,14.74264 -31.02888,23.30863 -49,27 -1.05832,0.2243 -2.11664,0.44859 -3.20703,0.67969 -14.67437,2.59064 -30.11681,1.82396 -44.89453,0.54687 -5.57063,-0.32374 -11.13194,-0.34188 -16.71094,-0.35156 -1.06275,-0.005 -2.1255,-0.009 -3.22046,-0.0137 -6.07161,0.0114 -11.94669,0.34602 -17.96704,1.13867 0.78375,-0.88688 1.5675,-1.77375 2.375,-2.6875 0.82564,-0.98227 0.82564,-0.98227 1.66797,-1.98438 1.37444,-1.63506 2.77546,-3.24796 4.19531,-4.84375 7.29179,-8.69898 11.62244,-18.24517 16.12109,-28.61718 8.79919,-20.05738 21.34488,-34.38034 40.64063,-44.86716 z"
       fill="#cc0912"
       id="path13" />
    <path
       d="m 224.07276,440.25527 c 24.04246,11.85847 35.8445,30.57462 46.0625,54.375 4.73149,10.97085 11.1774,19.49395 19.9375,27.625 -2.56631,1.28316 -3.83722,0.89954 -6.6875,0.5625 -6.37909,-0.59755 -12.71972,-0.67991 -19.125,-0.6875 -1.48536,-0.007 -1.48536,-0.007 -3.00073,-0.0134 -3.90983,0.008 -7.65395,0.0599 -11.52661,0.63062 -27.95672,3.8787 -58.1785,-0.0941 -81.66016,-16.49222 -4.5135,-3.45913 -8.7826,-7.18893 -13,-11 3.3773,-1.12577 3.84222,-0.9123 7,0.3125 8.93184,3.1917 17.70068,3.972 27.125,3.77734 2.11067,-0.0204 4.22135,-0.0406 6.33203,-0.0605 3.25972,-0.0432 6.51926,-0.0914 9.77881,-0.14576 12.66397,-0.19531 24.72395,0.11381 37.19385,2.46241 3.45717,0.74415 3.45717,0.74415 6.57031,0.65405 -0.51949,-0.52207 -1.03898,-1.04414 -1.57422,-1.58203 -10.36777,-10.94269 -13.44576,-24.40238 -17.58252,-38.54151 -0.79011,-2.69516 -1.59314,-5.38604 -2.40185,-8.07568 -0.46,-1.53765 -0.91966,-3.0754 -1.37891,-4.61328 -0.21141,-0.70463 -0.42281,-1.40927 -0.64063,-2.13525 -1.42187,-4.82064 -1.42187,-4.82064 -1.42187,-7.05229 z"
       fill="#cc0811"
       id="path14" />
    <path
       d="m 642.07276,403.25527 c 1.57634,3.15269 0.0679,5.99203 -0.87891,9.21875 -0.20719,0.72604 -0.41439,1.45208 -0.62786,2.20012 -0.67718,2.36279 -1.36563,4.72209 -2.05573,7.08113 -0.46708,1.61042 -0.93412,3.22085 -1.40112,4.8313 -2.37041,8.14146 -4.74237,16.28675 -7.34888,24.3562 -0.20504,0.65484 -0.41008,1.30969 -0.62134,1.98437 -1.65054,4.92223 -4.19936,9.04509 -7.06616,13.32813 0.74121,-0.26104 1.48242,-0.52207 2.24609,-0.79102 16.03186,-5.60232 32.00977,-10.5707 48.57618,-14.34375 9.18493,-2.14743 17.51784,-5.1875 26.17773,-8.86523 1.66492,-0.67102 3.33087,-1.33951 5,-2 -13.19731,19.06278 -33.29361,34.18139 -55.5625,40.875 -0.63527,0.19118 -1.27053,0.38237 -1.92505,0.57935 -12.59909,3.46817 -25.91528,4.11552 -38.88745,5.17065 -1.62243,0.13504 -3.24482,0.27045 -4.86719,0.40625 -3.91892,0.32722 -7.83823,0.64942 -11.75781,0.96875 0.55397,-1.01985 0.55397,-1.01985 1.11914,-2.0603 4.75097,-9.07409 7.91626,-18.3783 11.05811,-28.09717 3.76662,-11.58869 7.98879,-22.14824 16.13525,-31.40503 0.4722,-0.54028 0.9444,-1.08056 1.43091,-1.63721 0.95615,-1.0904 1.91691,-2.17679 2.88257,-3.25879 1.28036,-1.43642 2.54278,-2.88877 3.80371,-4.34228 4.53053,-5.16543 9.26413,-9.83283 14.57031,-14.19922 z"
       fill="#cc0811"
       id="path15" />
    <path
       d="m 170.07276,403.25527 c 9.92193,4.27869 17.60169,14.70843 24,23 0.77473,0.94746 1.54945,1.89492 2.34766,2.87109 9.4451,11.8734 13.71306,25.73031 18.40771,39.97974 0.6196,1.87341 1.24843,3.74375 1.87744,5.61401 0.35981,1.08918 0.71962,2.17836 1.09033,3.30054 1.45098,3.67572 3.24773,6.84748 5.27686,10.23462 -39.88123,-2.74476 -72.91503,-6.83832 -102.625,-36.3125 -0.59216,-0.5866 -1.18433,-1.17321 -1.79443,-1.77759 -3.04473,-3.09642 -5.53065,-6.03541 -7.58057,-9.90991 2.62766,1.02038 5.19501,2.09215 7.74438,3.29687 10.99117,5.09537 22.46302,7.82057 34.19312,10.70313 12.11841,2.98323 23.92118,5.9288 35.39673,10.89844 2.4931,1.22886 2.4931,1.22886 4.66577,1.10156 -0.39397,-0.47019 -0.78794,-0.94037 -1.19385,-1.4248 -4.02256,-5.03591 -6.30574,-9.69104 -8.18115,-15.8252 -0.28255,-0.88244 -0.56509,-1.76489 -0.8562,-2.67407 -3.56693,-11.30612 -6.74429,-22.73637 -9.91846,-34.15772 -0.87451,-3.00115 -1.84344,-5.95912 -2.85034,-8.91821 z"
       fill="#cc0811"
       id="path16" />
    <path
       d="m 444.57276,112.75527 c 4.09607,0.58515 4.98805,1.31213 7.5,4.5 0.50336,2.48004 0.50336,2.48004 0.50793,5.31348 l 0.0342,3.26281 -0.0342,114.11023 -0.0983,1.86469 c -0.66243,3.26378 -1.81032,5.42467 -4.40961,7.44879 -3.5,0.5625 -3.5,0.5625 -7,0 -2.69972,-2.19174 -3.85481,-4.01949 -4.36671,-7.47653 -0.1565,-3.23499 -0.15087,-9.68582 -0.15087,-9.68582 0,0 -0.12615,-53.96929 -0.0245,-106.33593 l 0.0342,-3.23294 0.005,-2.80715 c 0.95609,-4.67564 3.45024,-6.31118 8.00336,-6.96163 z"
       fill="#cd0711"
       id="path17"
       sodipodi:nodetypes="cccccccccccccc" />
    <path
       d="m 107.07276,375.25527 c 29.31233,15.32236 48.0983,42.93916 62,72 -14.89067,-2.12724 -26.80577,-10.38771 -37,-21 -0.59039,-0.58266 -1.18078,-1.16531 -1.78906,-1.76563 -12.06191,-12.77143 -18.80809,-32.57305 -23.21094,-49.23437 z"
       fill="#cc0811"
       id="path19" />
    <path
       d="m 706.07276,376.25527 c -7.29012,26.34121 -18.58456,50.66076 -43.05078,64.75781 -5.92213,3.11533 -11.35025,5.14236 -17.94922,6.24219 8.11335,-17.06362 17.10089,-33.08403 30,-47 0.81082,-0.88043 1.62164,-1.76086 2.45703,-2.66797 20.47214,-21.33203 20.47214,-21.33203 28.54297,-21.33203 z"
       fill="#cc0811"
       id="path20" />
    <path
       d="m 367.07276,191.25527 c 1.72084,1.21742 1.72084,1.21742 3,3 0.38768,2.27 0.38768,2.27 0.40405,4.95874 0.0127,1.00792 0.0254,2.01584 0.0384,3.05431 -0.003,1.08753 -0.006,2.17506 -0.009,3.29554 0.005,1.11827 0.0105,2.23654 0.0159,3.38869 0.006,2.36628 0.005,4.73259 -0.003,7.09886 -0.009,3.62387 0.0202,7.24616 0.052,10.86988 0.002,2.29752 0.001,4.59505 -0.002,6.89257 0.0112,1.08551 0.0225,2.17102 0.034,3.28942 -0.009,1.01107 -0.0188,2.02214 -0.0284,3.06385 -1.7e-4,0.88808 -3.3e-4,1.77616 -5e-4,2.69115 -0.66678,3.1888 -1.98628,4.39047 -4.50121,6.39699 -2.9375,0.5625 -2.9375,0.5625 -6,0 -2.96393,-2.06027 -4.73971,-3.69448 -5.46243,-7.31937 -0.18403,-2.92708 -0.2041,-5.81435 -0.16648,-8.74704 -0.004,-1.60656 -0.004,-1.60656 -0.007,-3.24559 9.8e-4,-2.26021 0.0144,-4.52045 0.0393,-6.78053 0.0343,-3.46152 0.0206,-6.92049 0.001,-10.38208 0.007,-2.19728 0.0166,-4.39455 0.0293,-6.5918 -0.005,-1.03548 -0.01,-2.07097 -0.015,-3.13783 0.11741,-7.15077 0.11741,-7.15077 2.48964,-10.4481 3.58176,-2.30757 5.89062,-1.81446 10.09181,-1.34766 z"
       fill="#cd0911"
       id="path27" />
    <path
       d="m 362.81388,112.25527 c 4.05968,0.011 7.66545,1.85503 7.64706,8.51562 l 0.0287,2.76075 v 32.32226 c 0.0161,7.85103 -3.52516,9.71758 -7.77082,9.71387 -4.24566,-0.004 -8.34947,-1.5017 -8.21072,-9.62305 -0.033,-1.76079 -0.002,-5.4082 -0.002,-5.4082 l -0.0625,-23.5625 0.0482,-6.21583 c -0.048,-6.71981 4.26214,-8.51396 8.32182,-8.50292 z"
       fill="#cd0911"
       id="path28"
       sodipodi:nodetypes="zccczccccz" />
    <path
       d="m 41.595974,155.50013 0.02708,37.36744 -6.428545,5.92345 0.100908,-35.92247 z"
       fill="#a50207"
       id="path30"
       style="display:inline"
       sodipodi:nodetypes="ccccc" />
    <path
       d="m 98.674556,119.22069 0.0232,32.51443 -7.351562,4.0514 0.03456,-29.58136 z"
       fill="#a70107"
       id="path32"
       style="display:inline"
       sodipodi:nodetypes="ccccc" />
    <path
       d="m 155.42551,93.728347 -0.10275,31.276923 -8.26563,3.26562 0.003,-26.67138 z"
       fill="#a50107"
       id="path33"
       style="display:inline"
       sodipodi:nodetypes="ccccc" />
    <path
       d="m 719.63679,162.18305 0.13105,29.23184 -14.82597,-0.70358 0.0747,-12.3319 z"
       fill="#a60309"
       id="path35"
       style="display:inline"
       sodipodi:nodetypes="ccccc" />
    <path
       d="m 214.63082,79.19461 -0.0581,29.24816 -9.43913,2.79062 0.2849,-24.834405 z"
       fill="#a70208"
       id="path36"
       style="display:inline"
       sodipodi:nodetypes="ccccc" />
    <path
       d="m 585.07276,141.25527 0.12638,29.24724 -13.77482,-3.39568 0.0234,-17.35156 z"
       fill="#a50208"
       id="path37"
       style="display:inline"
       sodipodi:nodetypes="ccccc" />
    <path
       d="m 652.1001,154.90371 -0.0273,30.35156 -14.46361,-2.5026 -0.0838,-14.9847 z"
       fill="#a60209"
       id="path38"
       sodipodi:nodetypes="ccccc" />
    <path
       d="m 786.71504,164.02533 0.014,29.26119 -14.33563,0.0571 0.058,-12.93461 z"
       fill="#a40208"
       id="path39"
       sodipodi:nodetypes="ccccc"
       style="display:inline" />
    <path
       d="m 413.94018,-30.821856 0.0221,27.104854 h -7.62998 l 0.0217,-20.811908 z"
       fill="#a60208"
       id="path40"
       style="display:inline"
       sodipodi:nodetypes="ccccc" />
    <path
       d="m 354.05714,-30.980656 0.004,27.355469 -7.78857,0.0015 0.0972,-21.559112 z"
       fill="#a60208"
       id="path41"
       style="display:inline"
       sodipodi:nodetypes="ccccc" />
    <path
       d="m 474.1944,-30.843846 -0.0115,26.757262 -8.11579,0.005 0.14606,-20.461341 z"
       fill="#a60309"
       id="path42-9"
       style="display:inline"
       sodipodi:nodetypes="ccccc" />
    <path
       d="m 519.82276,-131.99473 c 0.83257,0.41032 1.66515,0.82065 2.52295,1.24341 11.6839,5.85301 23.0226,12.50433 33.72705,20.00659 -0.99,0.495 -0.99,0.495 -2,1 -2.40405,-0.96875 -2.40405,-0.96875 -5.43359,-2.5 -1.11561,-0.55454 -2.23121,-1.10908 -3.38062,-1.68042 -0.88762,-0.44622 -0.88762,-0.44622 -1.79318,-0.90146 -10.38305,-5.20892 -20.79792,-9.86628 -31.79495,-13.64859 -2.68594,-0.9478 -5.11336,-1.90089 -7.59766,-3.26953 0.66,0 1.32,0 2,0 0,-0.66 0,-1.32 0,-2 5.23615,-3.30924 8.77048,-0.79106 13.75,1.75 z"
       fill="#c70d10"
       id="path43" />
    <path
       d="m 719.07276,113.25527 c 0.33,0 0.66,0 1,0 0.33,2.64 0.66,5.28 1,8 19.8,0 39.6,0 60,0 0,-1.65 0,-3.3 0,-5 2,3 2,3 2,7 -21.12,0 -42.24,0 -64,0 0,-3.3 0,-6.6 0,-10 z"
       fill="#e5b354"
       id="path45" />
    <path
       d="m 386.07276,292.25527 c 0,0.33 0,0.66 0,1 3.96,0.33 7.92,0.66 12,1 -0.66,0.66 -1.32,1.32 -2,2 -3.10353,-0.003 -6.10861,-0.12532 -9.19922,-0.33984 -1.91962,-0.11286 -3.83939,-0.22329 -5.75928,-0.33155 -0.9969,-0.0573 -1.99381,-0.11452 -3.02093,-0.17352 -4.82387,-0.24768 -9.64884,-0.36527 -14.4776,-0.4715 -0.93658,-0.0212 -1.87315,-0.0424 -2.83811,-0.0643 -2.83907,-0.0627 -5.67821,-0.12234 -8.51736,-0.18179 -1.97592,-0.0434 -3.95183,-0.087 -5.92773,-0.13086 -4.7532,-0.10501 -9.50646,-0.20678 -14.25977,-0.30664 0,-0.33 0,-0.66 0,-1 18.00886,-1.06832 35.96814,-1.11055 54,-1 z"
       fill="#cd191e"
       id="path47" />
    <path
       d="m 531.07276,-123.74473 c 6.34058,0.32223 10.73845,3.6781 15.875,7.0625 0.87914,0.56783 1.75828,1.13566 2.66406,1.7207 2.15964,1.39673 4.31283,2.80243 6.46094,4.2168 -0.99,0.495 -0.99,0.495 -2,1 -2.33838,-0.89624 -2.33838,-0.89624 -5.22656,-2.30859 -1.03125,-0.49952 -2.0625,-0.99903 -3.125,-1.51368 -1.08024,-0.53302 -2.16047,-1.06605 -3.27344,-1.61523 -1.63195,-0.79374 -1.63195,-0.79374 -3.29687,-1.60352 -2.69624,-1.31264 -5.38866,-2.63256 -8.07813,-3.95898 0,-0.99 0,-1.98 0,-3 z"
       fill="#c61012"
       id="path50-4" />
    <path
       d="m 567.07276,538.25527 c 10.23,0 20.46,0 31,0 0,0.66 0,1.32 0,2 -1.65,0.66 -3.3,1.32 -5,2 0,-0.66 0,-1.32 0,-2 -1.12277,0.0116 -2.24555,0.0232 -3.40234,0.0352 -7.61073,0.0543 -15.04769,0.063 -22.59766,-1.03516 0,-0.33 0,-0.66 0,-1 z"
       fill="#cb1317"
       id="path52-8" />
    <path
       d="m 518.07276,-132.74473 c -0.33,1.32 -0.66,2.64 -1,4 -4.29,-0.66 -8.58,-1.32 -13,-2 0.66,-0.33 1.32,-0.66 2,-1 0,-0.66 0,-1.32 0,-2 4.93509,-2.84142 7.25416,-1.41945 12,1 z"
       fill="#cc1218"
       id="path53" />
    <path
       d="m 33.07276,101.25527 c 0.33,0.66 0.66,1.32 1,2 1.65,0 3.3,0 5,0 0,0.66 0,1.32 0,2 -2.536988,2.18589 -5.277965,4.04354 -8,6 0.66,-3.3 1.32,-6.6 2,-10 z"
       fill="#cd1d20"
       id="path59" />
    <path
       d="m 333.07276,-163.74473 c 0.33,0.66 0.66,1.32 1,2 -2.44972,1.22486 -4.14234,1.16723 -6.875,1.1875 -1.29551,0.0213 -1.29551,0.0213 -2.61719,0.043 -2.63194,-0.24188 -4.24761,-0.90063 -6.50781,-2.23047 5.02472,-0.6253 9.92528,-1.13012 15,-1 z"
       fill="#ce181d"
       id="path61" />
    <path
       d="m 543.07276,-118.74473 c 1.98283,1.11852 3.96118,2.24501 5.9375,3.375 1.65322,0.93973 1.65322,0.93973 3.33984,1.89844 2.72266,1.72656 2.72266,1.72656 3.72266,3.72656 -4.97234,-1.4917 -9.41846,-3.60457 -14,-6 0.33,-0.99 0.66,-1.98 1,-3 z"
       fill="#c22021"
       id="path62" />
    <path
       d="m 137.07276,-76.74473 c 0.33,0.66 0.66,1.32 1,2 -1.1875,3.0625 -1.1875,3.0625 -3,6 -2.52523,1.10479 -4.21359,1 -7,1 2.97,-2.97 5.94,-5.94 9,-9 z"
       fill="#cb171b"
       id="path63" />
    <path
       d="m 781.07276,116.25527 c 2,3 2,3 2,7 -5.28,-0.33 -10.56,-0.66 -16,-1 0,-0.33 0,-0.66 0,-1 4.62,0 9.24,0 14,0 0,-1.65 0,-3.3 0,-5 z"
       fill="#e5af4c"
       id="path64" />
    <path
       d="m 639.07276,499.25527 c 0,0.66 0,1.32 0,2 -4.31649,0.76173 -7.74433,1.16064 -12,0 0,-0.33 0,-0.66 0,-1 4.04141,-0.63395 7.90653,-1.12404 12,-1 z"
       fill="#cb1417"
       id="path66" />
    <path
       d="m 702.07276,440.25527 c 0.66,0.33 1.32,0.66 2,1 -2.0625,2.5 -2.0625,2.5 -5,5 -3.8125,0.3125 -3.8125,0.3125 -7,0 3.28261,-2.1884 6.50818,-4.15886 10,-6 z"
       fill="#c91718"
       id="path68" />
    <path
       d="m 340.55323,-164.81895 c 0.89332,0.12762 1.78664,0.25523 2.70703,0.38672 0.90106,0.11988 1.80211,0.23976 2.73047,0.36328 0.68707,0.10699 1.37414,0.21398 2.08203,0.32422 -3.31371,2.20914 -4.3446,2.22481 -8.1875,2.125 -0.90105,-0.018 -1.80211,-0.0361 -2.73047,-0.0547 -0.68707,-0.0232 -1.37414,-0.0464 -2.08203,-0.0703 1.79066,-2.31417 2.48872,-2.9847 5.48047,-3.07422 z"
       fill="#cf131a"
       id="path69" />
    <path
       d="m 170.07276,403.25527 c 3.76688,1.88344 4.79422,2.69132 7,6 -0.66,0 -1.32,0 -2,0 -0.99,1.485 -0.99,1.485 -2,3 -0.99,-2.97 -1.98,-5.94 -3,-9 z"
       fill="#c71918"
       id="path71" />
    <path
       d="m 261.07276,477.25527 c 2.32472,2.85307 3.75083,5.54075 5,9 -2,0 -2,0 -3.625,-1.125 -1.93151,-2.63388 -1.58706,-4.69417 -1.375,-7.875 z"
       fill="#cb1518"
       id="path80" />
    <path
       id="text10"
       style="font-stretch:condensed;font-size:82.098px;font-family:'SrcHelios Medium';-inkscape-font-specification:'SrcHelios Medium,  Condensed';display:inline;fill:#e8b963;stroke:#e8b963;stroke-width:5.641"
       d="m 243.1587,356.91543 c -0.29398,2.29832 -0.78954,4.15586 -1.48438,5.57226 -0.66811,1.38968 -1.58974,2.48537 -2.76562,3.28711 -1.17588,0.77501 -2.57879,1.29525 -4.20899,1.5625 -1.60348,0.24052 -3.47336,0.36133 -5.61133,0.36133 v 5.25 h 12.58594 v 43.09375 h 6.57422 v -59.12695 z m 38.5625,0 c -2.24487,0 -4.32974,0.48127 -6.25391,1.44336 -1.89745,0.96208 -3.5543,2.35069 -4.9707,4.16796 -1.38968,1.79055 -2.48538,3.96959 -3.28711,6.53516 -0.77501,2.53883 -1.16211,5.39789 -1.16211,8.57813 0,2.40521 0.29487,4.69077 0.88281,6.85546 0.61467,2.13797 1.5363,4.04877 2.76563,5.73243 1.22933,1.65692 2.81863,2.97798 4.76953,3.96679 1.95089,0.98882 4.23645,1.48438 6.85547,1.48438 2.08452,0 4.11613,-0.57545 6.09375,-1.72461 2.00434,-1.14916 3.58131,-3.00671 4.73047,-5.57227 h 0.16015 c -0.16034,2.19142 -0.38767,4.62442 -0.68164,7.29688 -0.29397,2.67246 -0.80187,5.18339 -1.52344,7.53515 -0.72156,2.32504 -1.71073,4.26248 -2.96679,5.8125 -1.25606,1.55003 -2.95383,2.32618 -5.0918,2.32618 -2.77936,0 -4.78239,-0.69431 -6.01172,-2.08399 -1.22933,-1.38968 -1.84375,-3.43558 -1.84375,-6.13476 h -6.6543 c 0,4.27594 1.24118,7.71044 3.72657,10.30273 2.48539,2.56556 5.9199,3.84961 10.30273,3.84961 2.85953,0 5.25161,-0.53454 7.17578,-1.60352 1.9509,-1.06898 3.56683,-2.47383 4.84961,-4.21093 1.28278,-1.76383 2.25962,-3.78115 2.92774,-6.05274 0.69484,-2.27159 1.20274,-4.63703 1.52343,-7.0957 0.34741,-2.48539 0.5481,-4.94306 0.60157,-7.375 0.0535,-2.43194 0.0801,-4.66425 0.0801,-6.69531 0,-2.99316 -0.13509,-6.10617 -0.40234,-9.33985 -0.26725,-3.23368 -0.97389,-6.17262 -2.12305,-8.81836 -1.14915,-2.67246 -2.86122,-4.86384 -5.13281,-6.57422 -2.27159,-1.73709 -5.3846,-2.60546 -9.33984,-2.60546 z m 48.57617,0 -22.08789,38.36328 v 5.97265 h 21.60742 v 14.79102 h 6.57422 v -14.79102 h 5.25195 v -5.89257 h -5.25195 v -38.44336 z m 27.57227,0 -3.52735,30.625 h 5.8125 c 1.60347,-3.60782 4.36836,-5.41016 8.29688,-5.41016 2.08452,0 3.768,0.41373 5.05078,1.24219 1.28278,0.82846 2.27195,1.89752 2.96679,3.20703 0.72157,1.30951 1.20284,2.7923 1.44336,4.44922 0.26725,1.6302 0.40039,3.28705 0.40039,4.9707 0,1.87073 -0.17211,3.72827 -0.51953,5.57227 -0.3207,1.81727 -0.85523,3.45983 -1.60351,4.92968 -0.72157,1.44314 -1.68411,2.62067 -2.88672,3.5293 -1.20261,0.88191 -2.6854,1.32227 -4.44922,1.32227 -1.68365,0 -3.0885,-0.26824 -4.21094,-0.80274 -1.12243,-0.56121 -2.01743,-1.29448 -2.68554,-2.20312 -0.6414,-0.93536 -1.10837,-2.05768 -1.40235,-3.36719 -0.26724,-1.33623 -0.40039,-2.79435 -0.40039,-4.37109 h -6.81445 c 0,5.42509 1.28209,9.5682 3.84765,12.42773 2.59229,2.83281 6.5347,4.25 11.82618,4.25 3.07333,0 5.63752,-0.66963 7.69531,-2.00586 2.05779,-1.36296 3.71464,-3.0997 4.9707,-5.21094 1.25606,-2.13796 2.13872,-4.51575 2.64649,-7.13476 0.53449,-2.64574 0.80273,-5.27943 0.80273,-7.89844 0,-2.40522 -0.28058,-4.72974 -0.8418,-6.97461 -0.53449,-2.24487 -1.40481,-4.23556 -2.60742,-5.97266 -1.2026,-1.76382 -2.76528,-3.18101 -4.68945,-4.25 -1.92417,-1.06898 -4.2487,-1.60351 -6.97461,-1.60351 -2.03107,0 -3.76781,0.36242 -5.21094,1.08398 -1.44313,0.69484 -2.88695,1.74961 -4.33008,3.16602 l 2.64649,-17.63867 h 19.88281 v -5.93164 z m 81.88867,0 c -2.61902,0 -4.91691,0.45268 -6.89453,1.36132 -1.9509,0.90864 -3.56878,2.15177 -4.85157,3.72852 -1.25605,1.55003 -2.20431,3.38094 -2.8457,5.49219 -0.61467,2.08452 -0.92187,4.37008 -0.92187,6.85547 v 2.68554 h 6.49414 c 0,-1.97762 0.0942,-3.83516 0.28125,-5.57226 0.18707,-1.76383 0.57416,-3.27325 1.16211,-4.5293 0.61466,-1.25606 1.49537,-2.24524 2.64453,-2.9668 1.17588,-0.74829 2.71388,-1.12304 4.61132,-1.12304 1.71038,0 3.12562,0.26824 4.24805,0.80273 1.12243,0.50777 2.01743,1.2287 2.68555,2.16406 0.69484,0.90864 1.17611,2.01862 1.44336,3.32813 0.26724,1.28278 0.40234,2.65905 0.40234,4.1289 0,1.87073 -0.28058,3.59318 -0.8418,5.16993 -0.53449,1.57675 -1.25738,3.0472 -2.16601,4.41015 -0.88191,1.33624 -1.91006,2.5917 -3.08594,3.76758 -1.17589,1.17589 -2.36575,2.25924 -3.56836,3.24805 -3.23367,2.61901 -5.81215,4.97017 -7.73633,7.05469 -1.92417,2.08452 -3.42124,4.11613 -4.49023,6.09375 -1.04226,1.9509 -1.73657,3.95392 -2.08398,6.01171 -0.3207,2.0578 -0.48047,4.39662 -0.48047,7.01563 h 31.78906 v -5.89258 h -24.81445 c 0.2138,-1.44313 0.49437,-2.65962 0.84179,-3.64844 0.37415,-1.01553 1.02949,-2.09693 1.96485,-3.24609 0.93536,-1.14915 2.24408,-2.51309 3.92773,-4.08984 1.71037,-1.60348 4.00828,-3.72732 6.89453,-6.37305 1.46986,-1.30951 2.86042,-2.64486 4.16992,-4.00781 1.33624,-1.36296 2.47089,-2.80678 3.40625,-4.33008 0.96209,-1.55003 1.7116,-3.20688 2.2461,-4.9707 0.56121,-1.79055 0.84179,-3.80787 0.84179,-6.05274 0,-4.91733 -1.28404,-8.90066 -3.8496,-11.94726 -2.56557,-3.04661 -6.37288,-4.56836 -11.42383,-4.56836 z m 43.68554,0 c -2.53883,0 -4.68929,0.48127 -6.45312,1.44336 -1.7371,0.96208 -3.20755,2.22988 -4.41016,3.80664 -1.2026,1.55002 -2.15086,3.3686 -2.8457,5.45312 -0.66811,2.08452 -1.19031,4.23499 -1.56445,6.45313 -0.34742,2.19142 -0.57474,4.40943 -0.68164,6.65429 -0.1069,2.24487 -0.16016,4.32974 -0.16016,6.25391 0,3.34057 0.1208,6.80171 0.36133,10.38281 0.26724,3.5811 0.92258,6.85388 1.96484,9.82031 1.06898,2.93971 2.68492,5.35842 4.84961,7.25586 2.16469,1.89745 5.14456,2.84766 8.93945,2.84766 3.82162,0 6.82812,-0.95021 9.01953,-2.84766 2.19142,-1.89744 3.80931,-4.31615 4.85157,-7.25586 1.04226,-2.96643 1.68331,-6.23921 1.92383,-9.82031 0.24052,-3.5811 0.36132,-7.04224 0.36132,-10.38281 0,-2.96643 -0.14743,-6.18596 -0.4414,-9.66016 -0.26724,-3.4742 -0.93492,-6.7223 -2.00391,-9.74218 -1.04226,-3.04661 -2.64585,-5.58417 -4.81055,-7.61524 -2.16469,-2.03107 -5.13221,-3.04687 -8.90039,-3.04687 z m 43.125,0 c -2.61901,0 -4.91691,0.45268 -6.89453,1.36132 -1.95089,0.90864 -3.56878,2.15177 -4.85156,3.72852 -1.25606,1.55003 -2.20432,3.38094 -2.8457,5.49219 -0.61467,2.08452 -0.92188,4.37008 -0.92188,6.85547 v 2.68554 h 6.49414 c 0,-1.97762 0.0942,-3.83516 0.28125,-5.57226 0.18707,-1.76383 0.57417,-3.27325 1.16211,-4.5293 0.61466,-1.25606 1.49733,-2.24524 2.64649,-2.9668 1.17588,-0.74829 2.71192,-1.12304 4.60937,-1.12304 1.71037,0 3.12757,0.26824 4.25,0.80273 1.12243,0.50777 2.01743,1.2287 2.68555,2.16406 0.69484,0.90864 1.17611,2.01862 1.44336,3.32813 0.26724,1.28278 0.40039,2.65905 0.40039,4.1289 0,1.87073 -0.28059,3.59318 -0.8418,5.16993 -0.53449,1.57675 -1.25737,3.0472 -2.16601,4.41015 -0.88192,1.33624 -1.91006,2.5917 -3.08594,3.76758 -1.17588,1.17589 -2.36575,2.25924 -3.56836,3.24805 -3.23368,2.61901 -5.81216,4.97017 -7.73633,7.05469 -1.92417,2.08452 -3.42125,4.11613 -4.49023,6.09375 -1.04226,1.9509 -1.73657,3.95392 -2.08399,6.01171 -0.3207,2.0578 -0.48047,4.39662 -0.48047,7.01563 h 31.78907 v -5.89258 h -24.81446 c 0.2138,-1.44313 0.49438,-2.65962 0.8418,-3.64844 0.37415,-1.01553 1.02948,-2.09693 1.96484,-3.24609 0.93536,-1.14915 2.24408,-2.51309 3.92774,-4.08984 1.71037,-1.60348 4.00827,-3.72732 6.89453,-6.37305 1.46985,-1.30951 2.86041,-2.64486 4.16992,-4.00781 1.33623,-1.36296 2.47284,-2.80678 3.4082,-4.33008 0.96209,-1.55003 1.70965,-3.20688 2.24414,-4.9707 0.56122,-1.79055 0.8418,-3.80787 0.8418,-6.05274 0,-4.91733 -1.28209,-8.90066 -3.84765,-11.94726 -2.56556,-3.04661 -6.37483,-4.56836 -11.42579,-4.56836 z m 32.3418,0 -3.52734,30.625 h 5.8125 c 1.60348,-3.60782 4.36835,-5.41016 8.29687,-5.41016 2.08452,0 3.76996,0.41373 5.05274,1.24219 1.28278,0.82846 2.27,1.89752 2.96484,3.20703 0.72157,1.30951 1.20284,2.7923 1.44336,4.44922 0.26725,1.6302 0.40039,3.28705 0.40039,4.9707 0,1.87073 -0.17211,3.72827 -0.51953,5.57227 -0.3207,1.81727 -0.85523,3.45983 -1.60352,4.92968 -0.72156,1.44314 -1.68411,2.62067 -2.88672,3.5293 -1.2026,0.88191 -2.68539,1.32227 -4.44921,1.32227 -1.68366,0 -3.08656,-0.26824 -4.20899,-0.80274 -1.12243,-0.56121 -2.01939,-1.29448 -2.6875,-2.20312 -0.64139,-0.93536 -1.10837,-2.05768 -1.40234,-3.36719 -0.26725,-1.33623 -0.40039,-2.79435 -0.40039,-4.37109 h -6.81446 c 0,5.42509 1.2821,9.5682 3.84766,12.42773 2.59229,2.83281 6.5347,4.25 11.82617,4.25 3.07334,0 5.63752,-0.66963 7.69531,-2.00586 2.0578,-1.36296 3.7166,-3.0997 4.97266,-5.21094 1.25605,-2.13796 2.13677,-4.51575 2.64453,-7.13476 0.5345,-2.64574 0.80274,-5.27943 0.80274,-7.89844 0,-2.40522 -0.28059,-4.72974 -0.8418,-6.97461 -0.53449,-2.24487 -1.40286,-4.23556 -2.60547,-5.97266 -1.20261,-1.76382 -2.76723,-3.18101 -4.69141,-4.25 -1.92417,-1.06898 -4.2487,-1.60351 -6.9746,-1.60351 -2.03108,0 -3.76782,0.36242 -5.21094,1.08398 -1.44314,0.69484 -2.88695,1.74961 -4.33008,3.16602 l 2.64648,-17.63867 h 19.88282 v -5.93164 z m -276.94922,5.93164 c 1.97762,0 3.5955,0.46893 4.85156,1.40429 1.25606,0.93536 2.23095,2.11095 2.92579,3.52735 0.72156,1.4164 1.21712,2.99337 1.48437,4.73047 0.29397,1.71037 0.43945,3.35293 0.43945,4.92968 0,1.55003 -0.15977,3.05945 -0.48046,4.5293 -0.29398,1.46985 -0.81422,2.78053 -1.5625,3.92969 -0.72157,1.14916 -1.69841,2.08508 -2.92774,2.80664 -1.22933,0.72157 -2.77966,1.08203 -4.65039,1.08203 -1.89745,0 -3.44583,-0.41568 -4.64844,-1.24414 -1.2026,-0.82847 -2.13852,-1.88324 -2.80664,-3.16602 -0.66811,-1.28278 -1.12275,-2.71231 -1.36328,-4.28906 -0.24052,-1.60348 -0.36133,-3.16615 -0.36133,-4.68945 0,-1.46986 0.12081,-3.00786 0.36133,-4.61133 0.24053,-1.63021 0.70751,-3.0987 1.40234,-4.4082 0.69484,-1.33624 1.63076,-2.41959 2.80665,-3.24805 1.17587,-0.85519 2.68529,-1.2832 4.52929,-1.2832 z m 201.48242,0 c 2.0578,0 3.70232,0.77614 4.93164,2.32617 1.25606,1.5233 2.20431,3.47307 2.84571,5.85156 0.66811,2.37849 1.09613,4.98555 1.2832,7.81836 0.18707,2.80609 0.2793,5.51771 0.2793,8.13672 0,3.07333 -0.0922,6.07982 -0.2793,9.01953 -0.18707,2.91299 -0.61509,5.50576 -1.2832,7.77734 -0.6414,2.2716 -1.58965,4.10251 -2.84571,5.49219 -1.22932,1.38968 -2.87384,2.08399 -4.93164,2.08399 -2.13796,0 -3.83379,-0.69431 -5.08984,-2.08399 -1.22933,-1.38968 -2.16525,-3.22059 -2.80664,-5.49219 -0.61467,-2.27158 -1.00176,-4.86435 -1.16211,-7.77734 -0.16035,-2.93971 -0.24023,-5.9462 -0.24023,-9.01953 0,-2.61901 0.0799,-5.33063 0.24023,-8.13672 0.16035,-2.83281 0.54744,-5.43987 1.16211,-7.81836 0.64139,-2.37849 1.57731,-4.32826 2.80664,-5.85156 1.25605,-1.55003 2.95188,-2.32617 5.08984,-2.32617 z m -153.62695,4.33008 v 28.18164 h -16.35547 z m 64.52734,16.05664 v 5.57226 h 20.52344 v -5.57226 z" />
  </g>
</svg>
