<?xml version="1.0" encoding="UTF-8" standalone="no"?>
<svg
   id="b21dd4e1-6437-4fc7-9a37-75c6f1294d6c"
   data-name="e3fc59e1-bbdc-42ff-88b4-4cc8c75ebce3"
   viewBox="0 0 542 112"
   version="1.1"
   sodipodi:docname="game_logo_national_day.svg"
   inkscape:version="1.4.2 (f4327f4, 2025-05-13)"
   xmlns:inkscape="http://www.inkscape.org/namespaces/inkscape"
   xmlns:sodipodi="http://sodipodi.sourceforge.net/DTD/sodipodi-0.dtd"
   xmlns="http://www.w3.org/2000/svg"
   xmlns:svg="http://www.w3.org/2000/svg">
  <sodipodi:namedview
     id="namedview1171"
     pagecolor="#000093"
     bordercolor="#000000"
     borderopacity="0.25"
     inkscape:showpageshadow="2"
     inkscape:pageopacity="0"
     inkscape:pagecheckerboard="0"
     inkscape:deskcolor="#d1d1d1"
     showgrid="false"
     inkscape:zoom="1.0280446"
     inkscape:cx="120.13098"
     inkscape:cy="-369.14743"
     inkscape:window-width="2560"
     inkscape:window-height="1494"
     inkscape:window-x="-11"
     inkscape:window-y="-11"
     inkscape:window-maximized="1"
     inkscape:current-layer="b21dd4e1-6437-4fc7-9a37-75c6f1294d6c" />
  <defs
     id="defs1113">
    <style
       id="style1106">.b91ba486-8858-4919-9717-c380eb21b765{fill:url(#e44bdbcf-c92c-49d2-9cfb-b170302f54b3);}.bc2efbb4-997a-41db-8876-3903896f938d,.ef06b456-a17b-4320-8650-785e88897555{fill:#fff;}.ef06b456-a17b-4320-8650-785e88897555{fill-rule:evenodd;}.b772c575-4354-414f-b3e9-f7dcd7a2d5d9{fill:#fec401;}.ee7ec5ab-a9da-41b5-9154-e8426a778d05{fill:#ee1c25;}.bd4c0d83-09f7-4db5-8560-b4c5e9b85b5a{fill:#ff0;}.af93773a-333b-4cc5-813b-f50efc5b81da{fill:#ffcf60;}</style>
    <radialGradient
       id="e44bdbcf-c92c-49d2-9cfb-b170302f54b3"
       cx="271"
       cy="4935.1"
       r="384.36"
       gradientTransform="translate(0 -1770.43) scale(1 0.37)"
       gradientUnits="userSpaceOnUse">
      <stop
         offset="0"
         stop-color="#939393"
         id="stop1108" />
      <stop
         offset="0.68"
         stop-color="#382caf"
         stop-opacity="0"
         id="stop1110" />
    </radialGradient>
  </defs>
  <path
     id="a3985593-948d-4863-aa81-ae90390248a1"
     data-name="b393e1fe-7331-4826-b793-6bc37e820f10"
     class="bc2efbb4-997a-41db-8876-3903896f938d"
     d="M25.1,26.7h5.3V13.9h-18V46l12.8,9.3Z" />
  <path
     id="bfdc8bdf-2098-4ac4-a7dc-d1dec24947f2"
     data-name="a7aadb53-417b-40cb-a9b1-6bb50a5df6e8"
     class="ef06b456-a17b-4320-8650-785e88897555"
     d="M55.1,26.7V13.9H35.6V26.7h3.8V32h-9V63.9l9,6.4v7.6L25.1,67.5V61L12.3,51.7V74l33,24.1L78.3,74V51.6L65.7,61v6.6L51.4,77.9V70.3l9-6.4V32h-9V26.7ZM48.5,45.2l8.2.6L50.4,51l1.9,8.1-7-4.4L38.4,59l2-8.1-6.3-5.3,8.2-.6,3.1-7.7Z" />
  <path
     id="b045bb36-5364-4be3-bd9d-a95b1529785e"
     data-name="b0088236-eb1c-4203-af62-153878ed4d23"
     class="bc2efbb4-997a-41db-8876-3903896f938d"
     d="M78.4,45.6,65.6,54.7v-28H60.3V13.9h18V45.6Z" />
  <path
     id="bfbbdff4-41fd-4ff4-88f6-491483237cbf"
     data-name="a202341d-bd75-4d7c-8b24-eb3583ec3829"
     class="bc2efbb4-997a-41db-8876-3903896f938d"
     d="M157,17.8h10.5l1.9,19.1H157.5l3.8,18.2,8.1-9.6V64.3l-5.3,6.1L169.4,98H152.2l-1.9-10.9L141.7,98H126.4l21-26.3-6.7-34.9H129.2L134,26.3h4.8l-2.4-12.4h16.7l2.4,12.4h3.3Z" />
  <path
     id="bff874b0-77f8-4210-9f5d-c8bc70eaa904"
     data-name="baee6368-4292-41fc-bd0c-cb427742de23"
     class="ef06b456-a17b-4320-8650-785e88897555"
     d="M114.9,48.3h15.3V88.4L122.6,98H115V94.2H100.7V98H85.3V48.3H99.6V13.9h15.3V26.3h15.8l-4.8,10.5h-11ZM100.6,83.7h14.3V58.9H100.6Zm112.8-64V52.2l2.4,9.6h-2.4V95.3l-3,2.9H201V61.7h-2.9v21l-9.6-21V95.2l-2.9,2.9H176V62.2l-2.4-10H176V19.7h10.1l1.8-5.7h13.7L200,19.7Zm-22,12.9L201,52.2v-22H188.6v22h2.9V32.6Z" />
  <path
     id="a895cc1a-1921-4fd3-9fa0-358379d2ac2e"
     data-name="ae1a192c-24bd-41e7-b8ed-e7e7e0b3421e"
     class="bc2efbb4-997a-41db-8876-3903896f938d"
     d="M232.5,87.1l13.4-12.9V85.7h15.3V98.1H232.5Z" />
  <path
     id="e0577246-c93c-46f3-bbd6-4b8abf50e4d5"
     data-name="b7335604-e28c-436d-a995-85100bc1937f"
     class="bc2efbb4-997a-41db-8876-3903896f938d"
     d="M228.7,65.6l-11.5,11V13.9h44V73.2l-2.7,2.9h-8.8V23.5l-21,.1Z" />
  <path
     id="aa1ff473-633c-43ee-8a50-b1926bc36afe"
     data-name="acd3a19f-4f2c-4dfd-80f0-e8bc4f815535"
     class="bc2efbb4-997a-41db-8876-3903896f938d"
     d="M341.5,29.3l9.6-.1v8.6l-1.9,1.9h-7.6V74.1L338.7,77H297.6l15.3-15.8v5.3h13.4V39.7H312.9V56.4L297.6,72.2V39.7H288V84.6h63.1V95.1L348.2,98H271.7V40.7l-6.2-11.4h6.2V13.9H288V29.2h9.6V13.9h15.3V29.2l13.4.1V13.9h15.5Z" />
  <path
     id="e176212f-f2d0-4b08-869c-665b6d07d791"
     data-name="a98c7764-3d4e-4bab-a133-27de8d2818d7"
     class="ef06b456-a17b-4320-8650-785e88897555"
     d="M433.3,57h-8.6L439,64.6V79.9L397,57.1,354.9,79.9V64.6L369.2,57H357.7V14h77.4V55ZM376.9,31.1h11.5V24.4H374V46.3h14.3V39.7h-7.6Zm27.8,15.3H419V24.5H404.7v6.7h11.4v6.7l-1.9,2h-9.5Z" />
  <path
     id="ad45a934-a00f-4282-99ed-56516bf611df"
     data-name="f9c61a56-7d94-49ed-8602-617555e31409"
     class="bc2efbb4-997a-41db-8876-3903896f938d"
     d="M426.7,98.1H411.3V68.4L429.5,78V95.2Zm-46.3,0h-15V78l18.2-9.6V95.2Z" />
  <path
     id="f54ca19c-efb3-44e2-921a-66fdd6b17541"
     data-name="beb9ed52-d647-4ce4-a822-6bc4f52d5904"
     class="bc2efbb4-997a-41db-8876-3903896f938d"
     d="M232.5,28.3h13.4V69.4L217.2,98.1V81.3l15.3-14.8Z" />
  <path
     id="f03a9abb-5be3-4b69-b9aa-40f06db95227"
     data-name="b8b67576-f483-406d-8cf5-ed7a9362aaca"
     class="b772c575-4354-414f-b3e9-f7dcd7a2d5d9"
     d="M494.6,55.8h-1.1V49.4h1.1v.7h2V47.6h1.1v2.5h2v-.7h1.1v6.3h-1.1v-.8h-2v4.7h-1.1V54.9h-2Zm3.1-5.2v3.9h2V50.6Zm-1.1,3.8V50.5h-2v3.9Z" />
  <path
     id="b2df4fb3-c577-40e9-b26b-348be3ddccbf"
     data-name="fca55030-bd62-4440-9133-d7409ac0ee31"
     class="b772c575-4354-414f-b3e9-f7dcd7a2d5d9"
     d="M509.8,51.6V47.7h1v3.1a2.48,2.48,0,0,0,1.1-2.3h1.3q0,1.35-2.4,3v1.3c-.1.3.1.5.5.4h.8c.5.1.7-.1.7-.5l.2-1.5h.1v1.4h.3c0,1.2-.4,1.7-1.1,1.5h-2c-.2,0-.3,0-.3-.1v1.4h3.7v.5H510v3.8h-1V55.9h-3.7v-.5H509V54h.9a.37.37,0,0,1-.1-.3V52.3c-.5.4-1,.6-1.4.9h-.5v1.3h-1V51.1c-.3.4-.6.8-1.1,1.4a.3.3,0,0,0-.1.2h-.3a7.17,7.17,0,0,0,1.9-4.6h1.2a6.18,6.18,0,0,1-.9,2.3h.4v2.8C508.4,52.7,509.1,52.3,509.8,51.6Z" />
  <path
     id="ac328907-9bc6-475d-9540-4a8425bab0d9"
     data-name="bf6d1a59-a4c7-4ea4-b237-681734a6f2c2"
     class="b772c575-4354-414f-b3e9-f7dcd7a2d5d9"
     d="M520.7,52V47.7h1.1v4.6c.3,2.9,1.4,4.8,3.6,5.7a2.44,2.44,0,0,0-.3,1.4v.1H525c-2-1.1-3.1-3.1-3.3-5.9-.1,1.8-1.4,3.8-4.1,5.9h-.5a11.84,11.84,0,0,0,2.9-3.4,9.59,9.59,0,0,0,.7-4.1Z" />
  <path
     id="eff022dd-e8d0-44f3-9445-238b2f7326c1"
     data-name="f9d57063-8a9b-4906-abde-57b9370ff579"
     class="b772c575-4354-414f-b3e9-f7dcd7a2d5d9"
     d="M530,58h.6V47.7h1v.5h4.6v-.5h1v3.9h-1v-.5h-1.5v2.2h3.1v.5h-3c.1,2.2,1,3.6,2.6,4.3l.4-2.3h.2l-.1,2.3.3.1v1.3a5.72,5.72,0,0,1-4.3-5.8h-2.1V58a5.33,5.33,0,0,0,2.2-1.2c.1-.1.1,0,.1.1q-.75,1.65-3.9,2.4A3.84,3.84,0,0,0,530,58Zm6.2-9.3h-4.6v1.8h4.6Zm-4.6,2.4v2.2h2.1V51.1Z" />
  <path
     id="a27cee96-f2ac-46de-bd3c-532ba475e8de"
     data-name="ae52f9ee-16b8-4be4-9493-e59f4fb4ec8b"
     class="b772c575-4354-414f-b3e9-f7dcd7a2d5d9"
     d="M504.7,63.4V60.7h1v2.7h1.8v.5h-1.8v4.2h2.2v.5h-8.4v-.5h2.2V63.9h-1.8v-.5h1.8V60.7h1v2.7Zm0,.5h-2.1v4.2h2.1ZM505,69h0a3.9,3.9,0,0,0,2.6,2.4,1.26,1.26,0,0,0-.3,1.2v.2h-.1A4,4,0,0,1,505,69Zm-3.4.2h1.3c-.1.9-.9,2-2.4,3.1-.2.1-.3.3-.4.4h-.3A6.64,6.64,0,0,0,501.6,69.2Z" />
  <path
     id="b38d1755-0ed0-47ab-ba47-4afe212bebbf"
     data-name="a2c6b85e-0313-4e85-ad0b-0ae135529adb"
     class="b772c575-4354-414f-b3e9-f7dcd7a2d5d9"
     d="M513.5,62h-1.8v-.1a19,19,0,0,0,3.7-1.1l1.1,1h.9v.8h1.5v-.8h1v9.3h-1V70h-1.5v1.3h-1V61.9h-1.8v2.2h1.5v.5h-1.5v.9c.6.5,1.1.8,1.4,1.1a4,4,0,0,1-.4,1.3,8.8,8.8,0,0,1-1-1.8v6.6h-1V67.5c-.5.9-1.1,1.7-1.6,2.5h-.3a12.39,12.39,0,0,0,1.8-5.3H512v-.5h1.6Zm3.8,7.5h1.5V63h-1.5Z" />
  <path
     id="b0e23791-1fa1-4fb6-9adf-ae36fc517a21"
     data-name="b9d90848-7ee4-4550-8d1a-034e9f31384e"
     class="b772c575-4354-414f-b3e9-f7dcd7a2d5d9"
     d="M525.8,71.9v.8h-1V61h1v.4h5.4v-.5h1V72.6h-1v-.7Zm5.4-.5V61.8h-5.4v9.6ZM528,65.8V63.4h-1.8v-.5h4.6v.5h-1.9v2.4h1.6v.5h-1.6v3.5h1.9v.5h-4.7v-.5H528V66.3h-1.4v-.5Zm1.4,1h0a8,8,0,0,1,1.3,1.3,5.57,5.57,0,0,1-.6,1.1A10,10,0,0,1,529.4,66.8Z" />
  <path
     id="e514d53e-6ec4-4478-89af-758d20784a70"
     data-name="fa63a569-11cc-4ec9-b97b-62f669c25984"
     class="b772c575-4354-414f-b3e9-f7dcd7a2d5d9"
     d="M494.6,74.7h1v.6h5.1v-.6h1V85.2c0,.5-.3.9-1,1.4-.1-.2-.3-.2-.6-.1l-.9.2-.1-.2c1.1-.5,1.6-.9,1.6-1.3V75.8h-5.1v7.8a5.71,5.71,0,0,1-1.4,2.7.3.3,0,0,0-.1.2h-.3c0-.1.1-.3.1-.4a4.53,4.53,0,0,0,.7-2.2V74.7Zm1.3,4.5h1.7V77.8H496v-.5h1.6V76h1v1.3H500v.5h-1.4v1.4h1.6v.5h-4.3v-.5Zm.6,5.8V80.6h1V81h1.2v-.4h1V85h-1v-.9h-1.2V85Zm1-3.6v2.2h1.2V81.4Z" />
  <path
     id="b7a9745f-af5b-40f8-8d7e-fd774fb300a1"
     data-name="b5cc949c-a1fc-48ea-826b-2c1bd1316d88"
     class="b772c575-4354-414f-b3e9-f7dcd7a2d5d9"
     d="M506.6,78.5h-.4a5.79,5.79,0,0,0,1.4-3.9h1.3a7.41,7.41,0,0,1-.5,1.2H514v.5h-2.7v2.5h2.1v.5h-2.1v3h3.1v.6h-3.1v3.5h-1.1V82.9h-4.1v-.6h1.4V78.2h1.1v.6h1.6V76.3h-2.1A20.32,20.32,0,0,1,506.6,78.5Zm3.6.9h-1.6v3h1.6Z" />
  <path
     id="b6413c18-3ce6-4406-9497-c8443d7a24f5"
     data-name="f0227314-138c-4164-b00c-399643f661cb"
     class="b772c575-4354-414f-b3e9-f7dcd7a2d5d9"
     d="M523.1,78.6V74.7h1v3.1a2.48,2.48,0,0,0,1.1-2.3h1.3q0,1.35-2.4,3v1.3c-.1.3.1.5.5.4h.8c.5.1.7-.1.7-.5l.2-1.5h.1v1.4h.3c0,1.2-.4,1.7-1.1,1.5h-2c-.2,0-.3,0-.3-.1v1.4H527v.5h-3.7v3.8h-1V82.9h-3.7v-.5h3.7V81h.9a.37.37,0,0,1-.1-.3V79.3c-.5.4-1,.6-1.4.9h-.5v1.3h-1V78.1c-.3.4-.6.8-1.1,1.4a.3.3,0,0,0-.1.2h-.3a7.17,7.17,0,0,0,1.9-4.6h1.2a6.18,6.18,0,0,1-.9,2.3h.4v2.8c.4-.5,1.1-.9,1.8-1.6Z" />
  <path
     id="e416de20-cf55-4ede-ac20-16f99cf8561b"
     data-name="b2d6c146-1a79-4d0b-b184-7abd9b15a05e"
     class="b772c575-4354-414f-b3e9-f7dcd7a2d5d9"
     d="M531.3,74.7h0a5.11,5.11,0,0,1,1.5,1.5,6.72,6.72,0,0,1-.6,1.2A14.27,14.27,0,0,1,531.3,74.7Zm4.1,1.8h0a12.65,12.65,0,0,0,2.5-1.5,7,7,0,0,1,.9.6.3.3,0,0,1,.1.2h-.1a.35.35,0,0,1-.2.1,4.46,4.46,0,0,1-.8.2v3.2h1v.5h-1v3.8h.9v.5h-2.2v.5h-.9V77.7h.9v5.9h.5V76.3a5.91,5.91,0,0,1-1.1.2ZM533,79.4h.2a6.77,6.77,0,0,0,1-3.3h-1.1v-.6h1.2V75h.9a5.44,5.44,0,0,1-1.7,4.3h.9V79h.9v2.7a3.92,3.92,0,0,1-.8,2.8,1.66,1.66,0,0,0,1.5.8h1.8c.4,0,.8-.1,1.2-.1a.71.71,0,0,0-.2,1,.4.4,0,0,0,.1.12h-2.4a2.23,2.23,0,0,1-2.4-1.4l-.9.9a1.84,1.84,0,0,0-.6.7h-.3a15.41,15.41,0,0,0,1.6-2,3.09,3.09,0,0,1-.2-.9,4.21,4.21,0,0,1-2.7,2.1,1.09,1.09,0,0,0-.1-1.1,1.63,1.63,0,0,0,1-.1V79h-1.2v-.5h1.2V78h.9v6.2a3.08,3.08,0,0,0,.9-.7,6.56,6.56,0,0,1-.1-1.4V80.8h.1a11.41,11.41,0,0,0,.6,3,5.07,5.07,0,0,0,.2-1.5V79.7h-1l-.3.4v-.7Z" />
  <path
     id="a133629c-9072-4e42-a1cf-7cc0935e7f93"
     data-name="e450f24d-a5eb-437d-8fc1-c42ae8ef6595"
     class="ee7ec5ab-a9da-41b5-9154-e8426a778d05"
     d="M439.8,13.9h46.8V45.1H439.8Z" />
  <path
     id="fcee2f7e-c27a-484a-a010-0061a765d328"
     data-name="f68287e5-96ae-41e5-8fee-076fe4f4566c"
     class="bd4c0d83-09f7-4db5-8560-b4c5e9b85b5a"
     d="M447.6,17l2.7,8.5-7.2-5.2H452l-7.2,5.2Z" />
  <path
     id="af24a7e7-b66d-4fac-804e-33c60f058ded"
     data-name="bbc4a93b-60ed-4877-8538-ca3207b08428"
     class="b772c575-4354-414f-b3e9-f7dcd7a2d5d9"
     d="M516.3,14.5l4.2,13-11-8h13.6l-11,8Z" />
  <path
     id="af1ffac3-2ad6-4bf5-b6da-ea2f7177a19f"
     data-name="b67b0efc-cf1a-4b8d-b051-4991015d2a3e"
     class="bd4c0d83-09f7-4db5-8560-b4c5e9b85b5a"
     d="M456,15.6l-.3,3-1.5-2.5,2.7,1.2L454,18Z" />
  <path
     id="b5e8f505-11ad-4a89-b480-66e6ea57f5f5"
     data-name="aaa70728-151d-4604-b27b-248afd85b2d0"
     class="bd4c0d83-09f7-4db5-8560-b4c5e9b85b5a"
     d="M459.6,19.1l-1.4,2.6-.4-2.9,2.1,2.1-2.9-.5Z" />
  <path
     id="f807dd4f-4c73-4366-aa9a-edb209138e95"
     data-name="fb55b2d5-a9df-45f7-9087-f6ead8129e4a"
     class="bd4c0d83-09f7-4db5-8560-b4c5e9b85b5a"
     d="M460,24.3l-2.3,1.8.8-2.9,1,2.8L457,24.3Z" />
  <path
     id="b1c9061a-4d0d-44e3-ae90-a65723b7d948"
     data-name="a944bfd2-d58a-4c58-b3ca-ec36b82b11de"
     class="bd4c0d83-09f7-4db5-8560-b4c5e9b85b5a"
     d="M455.9,26.5l-.1,3L454.2,27l2.8,1-2.9.8Z" />
  <path
     id="e705f696-cba8-429c-ac43-623327f03d1a"
     data-name="bd997469-f15e-4c23-aee3-2637804900a1"
     class="b772c575-4354-414f-b3e9-f7dcd7a2d5d9"
     d="M497,37.4V35.8h-.7v-.5h.7V33.4h1v1.9h1v-.6h1V39a2.32,2.32,0,0,0,.4,1.4l.4-2.2h.1l-.1,2.5.2.1v1.4c-1.4-.4-2-1.4-2-3V35.9h-1v2.3l.7.6a5.91,5.91,0,0,1-.2,1.1,3.87,3.87,0,0,1-.7-.7,8.39,8.39,0,0,1-2.1,2.6h-.4a5.08,5.08,0,0,0,1.7-3.5c-.1,0-.1-.1-.2-.2a2.17,2.17,0,0,1-.4-.6,4.34,4.34,0,0,1-1.1.9v2c0,.6-.4,1-1.4,1.3-.1-.1-.2-.1-.5-.1l-.5.1v-.2c1.1-.2,1.6-.6,1.4-1.1V38.8a4.69,4.69,0,0,1-1.4.5,2,2,0,0,0-.1-1.3h1.5V35.8h-1.4v-.5h1.4V33.4h1v1.9h.8v.5h-.8v2a3.91,3.91,0,0,0,1-.6c-.2-.2-.3-.3-.3-.4h0A6.31,6.31,0,0,0,497,37.4Zm2,4.4h0a3.61,3.61,0,0,0,1.9,2.1c-.3.3-.3.7-.2,1.3v.1h-.1A4.34,4.34,0,0,1,499,41.8Zm-1.8.1h0a13,13,0,0,1,1.3,1.9c0,.3-.2.6-.6,1.1a11,11,0,0,1-.7-3Zm-1.8.3h0a9.67,9.67,0,0,1,1.1,1.6,5.87,5.87,0,0,1-.6,1.1A8.6,8.6,0,0,1,495.4,42.2Zm-2.7,3v-.4a1.68,1.68,0,0,0,.8-1.4V42.1h1v1.1C494.5,44.1,493.9,44.7,492.7,45.2Z" />
  <path
     id="a526d2ba-373e-4a5d-89c0-aa7f1e2ba40b"
     data-name="b224d09e-2921-4f23-a666-6f0c4306a9af"
     class="b772c575-4354-414f-b3e9-f7dcd7a2d5d9"
     d="M511.1,40.5V33.4h1v7c0,.7-.4,1.2-1.3,1.4.1.9.7,1.5,1.8,2a1.71,1.71,0,0,0-.3,1.4c-1.1-.6-1.6-1.8-1.7-3.4,0-.1-.2-.1-.5-.1l-.6.1v-.2c1.3-.2,1.8-.6,1.6-1.1Zm-5-6.2h-1.4v-.5h4.4v.5h-2a9.51,9.51,0,0,1-.6,1.8h1.1v-.4h1.1c.2,2.6-1,4.6-3.7,6h-.5a5.49,5.49,0,0,0,3.2-5.1h-1.3l-.4.8a11.42,11.42,0,0,0,1.1,1.1,3.16,3.16,0,0,1-.6,1.3,6.73,6.73,0,0,1-.6-2.2,15.49,15.49,0,0,1-1,1.3h-.4a7.66,7.66,0,0,0,1.6-4.6Zm4.3,4.9h-1V34.9h1ZM507.2,42h0c.4.7.8,1.3,1.1,1.9a4.4,4.4,0,0,1-.5.9A6.74,6.74,0,0,1,507.2,42Zm1.8,0h0a14.46,14.46,0,0,1,1.2,1.7,3.91,3.91,0,0,1-.6,1A12.41,12.41,0,0,1,509,42Zm-4.5,3.1v-.4a1.21,1.21,0,0,0,.7-.7,6.42,6.42,0,0,0,.2-1.8h1.1A2.66,2.66,0,0,1,504.5,45.1Z" />
  <path
     id="fefa893b-3c47-44e4-a24d-ae35b362e452"
     data-name="b9bcdd5a-bc6d-4636-930b-bc4303c78c20"
     class="b772c575-4354-414f-b3e9-f7dcd7a2d5d9"
     d="M519.3,34.3v.6H522l-.6-1.2a.76.76,0,0,1-.1-.3v-.1a5.58,5.58,0,0,1,1.4.9,2.9,2.9,0,0,1-.3.7h3v.5h-6.2v6.1a6.16,6.16,0,0,1-1.3,3.2.76.76,0,0,0-.2.4h-.4a5.33,5.33,0,0,0,.9-2.7V34.2h1.1Zm.3,3.9h2.2V35.9h1v2.3h2.6v.6h-2.6V41a3.82,3.82,0,0,0,2.9,2.7,2.17,2.17,0,0,0-.1,1.4,4.6,4.6,0,0,1-3-3.6c-.3,1.3-1.4,2.5-3.4,3.7h-.4c2-1.3,3-2.7,3-4.3V38.8h-2.2Z" />
  <path
     id="b6c61b7f-6830-429d-a769-db8c99ac5629"
     data-name="b98604f5-56a6-45f9-af77-36c695c4bd11"
     class="b772c575-4354-414f-b3e9-f7dcd7a2d5d9"
     d="M530.8,33.5h0a4.12,4.12,0,0,1,1.5,1,1.87,1.87,0,0,1-.5.9A11.48,11.48,0,0,1,530.8,33.5Zm5.3,4.7h-1.8v.5h-1V33.6h1v.6h1.8v-.6h1v5.1h-1Zm0-3.6h-1.8v3.1h1.8Zm-4.5,1.9h-1.9V36h2v-.4h1.1a7.52,7.52,0,0,1-.8,2.9,11.49,11.49,0,0,1,1.4,1,8.1,8.1,0,0,1-.3,1.2H533a3.57,3.57,0,0,1-.6-1.1,1.82,1.82,0,0,1-.3-.7v6.4h-1V39.9c-.8,1.1-1.3,1.5-1.5,1.3A10.54,10.54,0,0,0,531.6,36.5Zm2.3,2.7h1v.4c.2,1.9-.6,3.7-2.2,5.6h-.4a8,8,0,0,0,1.6-6Zm1.3,5.1V39.1h1v4.5q0,.3.6.3c.3-.1.4-.3.5-.6l.3-2.4h.2v2.4h.2v.9c0,.4-.3.6-.7.7h-1.4c-.4.1-.6-.2-.7-.6Z" />
  <path
     id="e90b0a45-732c-4062-941e-fab7f2400bd9"
     data-name="bcd4f9a2-6da0-40a7-838d-be606f56155a"
     class="b772c575-4354-414f-b3e9-f7dcd7a2d5d9"
     d="M438.7,89.9c.2.1.5.6.8,1.7a2.94,2.94,0,0,0,1-.5h.2l.2.2v.2c-.4.1-.6.2-.6.4l.6.4-.1.3.3.3a.83.83,0,0,1-.5.5h-.4l-.2-.2.3-.7-.3-.1.1-.1V92l-.2-.2h-.6l.4,2.5,1.6-.9h.3l.2.2a4.14,4.14,0,0,0-1.8,1.9h.1l.8-.2c.7,0,1,.1,1,.3l-.9,1q1.2,0,1.2.3V97c0,.5-.5.9-1.6,1v-.2c.8-.3,1.2-.5,1.2-.7V97l-1.1-.2a5.12,5.12,0,0,1-1.3,1.2H439c-.1,0-.2-.1-.2-.3a5.88,5.88,0,0,1,1.3-3H440c-.4.7-.8,1-1.1,1v-.1l.5-.5h-.1c-1.7,1.2-2.7,1.7-3.1,1.7l-.1-.1v-.1c1-.6,2.2-1.4,3.5-2.3-.5-2.9-.9-4.4-1.2-4.4l.1-.1Zm1.7,2.9h0l.2-.1v-.1Zm-.5,3V96a1,1,0,0,0,.8.5c.2-.3.3-.5.5-.5v-.3l-.6-.1Zm-.4.3-.4.8.1.1v.1l-.1.4q.3,0,1.2-.9Z" />
  <path
     id="eed96f6a-7947-474e-8207-de6a8527fc7b"
     data-name="f18ff908-8816-458b-b34e-1873caebe3a6"
     class="b772c575-4354-414f-b3e9-f7dcd7a2d5d9"
     d="M448.6,89.8h.6l.3.3-.6,3c0,2.4.7,3.8,2,4.3h.3l.1-.3-.5-1.1h.1a2.26,2.26,0,0,1,.8,1.5v.1l-.3.3H451l-.4-.3-.1.1c-1.2,0-2-1.2-2.3-3.7l-.1-1.2.3-1.9c-1.9,1.6-3,2.5-3.3,2.5h-.4a.56.56,0,0,1-.6-.4v-.1c0-.1.5-.4,1.4-.8Zm-.9,2.6h0L447,94v.2l.1.1h.1l.7-.2h.2l.1.3c-.1.4-.4.5-.9.5v.3l-.1.9a1.05,1.05,0,0,1,.9.5v.3l-.8.5-.1-.1v-.1c.1,0,.2-.2.3-.5-.4,0-.5-.1-.5-.3V94.9h-.1c0,.2-.2.4-.5.6l-.2-.2v-.1a5,5,0,0,1,.7-1.6h-.1l-.8.3-.1-.1v-.1C446.8,92.8,447.4,92.4,447.7,92.4Zm-3.2,1.1a9.59,9.59,0,0,1,.6,3,3.35,3.35,0,0,1-.5,1.6.53.53,0,0,1-.6-.45.38.38,0,0,1,0-.15h.1l-.3-1.2h.2q0,.6.3.6a3.78,3.78,0,0,0,.2-1.2v-.4l-.1-.5.1-.3-.2-.7v-.1Z" />
  <path
     id="e2cb0307-5156-4225-8814-7806c8858c60"
     data-name="b6ad9b4a-446b-4637-908e-99d6cc30c75a"
     class="b772c575-4354-414f-b3e9-f7dcd7a2d5d9"
     d="M454.4,91.1h0l.5.6v.4a11.65,11.65,0,0,0-1.2,2.7l.1-.1h.1a.68.68,0,0,1,.4.6v.3c-.3,1.1-.6,1.6-.8,1.6h-.1a.68.68,0,0,1-.4-.5h-.1c0,.2-.3.7-1,1.3h-.1l-.3-.3v-.4l1.6-2.6,1.1-2.8a2.23,2.23,0,0,1-1.6.9l-.2-.2Zm3.7.3h.5l.2.2v.1c-.4,1.3-1,1.9-1.7,1.9v.9H457c-.2,0-.4-.4-.4-1.1v-.3h-.2a1.84,1.84,0,0,1-.7.5l-.1-.1v-.2a1.92,1.92,0,0,0,1-1.6.83.83,0,0,1,.6-.3l.1.1v.1l-.1.3Zm-1,1.2v.2h.1a.73.73,0,0,0,.7-.6h-.1A2.7,2.7,0,0,1,457.1,92.6Zm.4,1.9h0l.2.1.1-.1h.5c.2,0,.3.1.3.4a4.05,4.05,0,0,1-.5,1.1c.5,0,.7.1.8.4v.1c0,.1-.2.2-.5.4a1.27,1.27,0,0,1-.9-.4,2.22,2.22,0,0,0-1.2.5c-.6-.1-.9-.2-.9-.4V96l.5-.5,1.6.1.6-.7v-.1h-.5l-.2-.2Zm-4.1,1-.1.4.3-.3-.2-.1Zm2.4.5h0l.8.1v-.2l-.6-.1Z" />
  <path
     id="ad4e104f-6b49-4d81-9ad4-37acea6baaf4"
     data-name="b49a0862-81de-450b-874d-3ea77693fe9a"
     class="b772c575-4354-414f-b3e9-f7dcd7a2d5d9"
     d="M466,90.6h.1l.2.2V91a3.58,3.58,0,0,0-.7.9,2,2,0,0,1,.1,1.3c-.1.4-.3.6-.4.6h-.2a3,3,0,0,1-1.1-.5l-.2,1.1-.2.6a4,4,0,0,1,1.7-.8h.3c.4,0,.5.1.5.2v.2a3.58,3.58,0,0,1-.7.9v.1a.63.63,0,0,1,.6.5v.2c0,.2-.3.2-.9.2l-2,1.1h-.3q-.45-.3-.3-1.5v-.2l.9-2.9h0l.2-.2h.2a3,3,0,0,0,1.1.3l.2-.2v-.1a.84.84,0,0,1-.2-.8l.2-.3a2.4,2.4,0,0,1-.9.3h-.5l-.2-.2v-.2a9.34,9.34,0,0,1,2.5-1Zm-5.1,1.1c.5.2.7.4.6.8q-.45.6-.6.6l-.2-.2.1-.1a.87.87,0,0,1-.2-.8v-.2Zm-.4,2.6.3.3-.1.4c-.1.3-.2.5-.4.5V94.3Zm3.6.8c0,.1.3.2.9.2l.5-.5v-.2l-.4-.1A9.12,9.12,0,0,0,464.1,95.1Zm-.5.4-.3.5v1h.1l1.2-1.2a2,2,0,0,0-1-.3Zm-2.7.8.2.2a1.57,1.57,0,0,1-.8,1h-.1a.61.61,0,0,1-.63-.59.76.76,0,0,1,0-.21l.3-.2h.2v.3h.1c.1,0,.3-.2.5-.6h.2Z" />
  <path
     id="ee5ecb80-ff58-4258-840d-df77000b4a0f"
     data-name="b67fcd6b-4baf-470f-b17f-90a0383f5e89"
     class="b772c575-4354-414f-b3e9-f7dcd7a2d5d9"
     d="M472,90.5h.7l.3.3a7.29,7.29,0,0,1-2.6,1.1,8.39,8.39,0,0,1-2.4,1.4l-.1-.1v-.5q0-.3,1.5-1.5v.3l-.6.9h.2Zm-1.1,2.7c.2.1.4.2.4.3l-.5.5h-.4c0-.1-.2-.2-.5-.2l-.1-.1v-.1A3.54,3.54,0,0,1,470.9,93.2Zm.4,1.3h0l.4.3v.1l-1.5,1.8h.3a8.54,8.54,0,0,1,2.6-.9,1.21,1.21,0,0,1,.5.5c0,.6-.4,1-1.3,1.4h-.5v-.1q1.2-1,1.2-1.5V96h-.3a13.8,13.8,0,0,0-3.1,1.6l-.3-.3V97l1.4-1.6v-.1h-.2l-.5.1-.1-.1v-.2Z" />
  <path
     id="ee2722e3-45a3-4721-a5ee-39831b17c76f"
     data-name="b5a88210-b3f9-493c-a25d-5fa0f3fa2c1d"
     class="b772c575-4354-414f-b3e9-f7dcd7a2d5d9"
     d="M479.2,90c.5.2.8.4.8.6l.5-.1h.4l.3.3c-.5.6-.9.9-1.3.9l-.1-.1v-.1l.5-.6h-.1a18.3,18.3,0,0,1-3.6,3.7l-.1-.1v-.1l2-2.6h-.1l-1.9.7h-.1l-.2-.2L479,91l.3-.6-.3-.3Zm1.7,2.1.1.3-1,5.3a1.61,1.61,0,0,1-1.1.3h-.1l-1.1-.4-.5.3-.4-.3v-.1l.3-.4-.1-.3c.6-.2.9-.8.9-1.7h.3l.1.6-.1.4.1.1v.1l-.2.6.5.1h.5c.2,0,.5-.6.7-1.8a2.41,2.41,0,0,1-1.2.5l-.2-.2.4-.5-.2-.7.3-.7-.1-.1h-.5v-.1a4.85,4.85,0,0,1,2.6-1.3Zm-1.7,1v.2c.2,0,.4.1.4.3v.1l-.5.6v.1c.5.3.7.6.7.7h.1l.5-2.6Z" />
  <path
     id="ec50f65d-6350-4eea-9fee-87e6787641f9"
     data-name="a3b2b444-f9c4-440f-8a68-da9f2a316dcc"
     class="b772c575-4354-414f-b3e9-f7dcd7a2d5d9"
     d="M488.8,89.6h0l.4.3V90l-1.1,1.9h.1l.9-.9.3.3v.1l-1.3,1.3h.1l.8-.4.1.1v.1l-.5.5c.2,0,.3.1.5.4v.4l-.7.7.1,1.4v1c-.1.8-.3,1.2-.5,1.2l-.1-.1V95h-.1a.83.83,0,0,1-.6.3H487v-.1l.2-.7h.2v.1l-.1.1v.1l.1.1.5-.3v-.7l-.1.1h-.1v-.1l.5-.7v-.1l-.6.5h-.1c-.1,0-.2-.1-.2-.3l-.9.3-.1-.1v-.1c1.2-.8,1.7-1.5,1.7-2.1Zm-2.3,2.1h0l.1.2c-.2,0-.5,1.3-.8,3.8l.4,1.6v.2l-.2.2h-.1c-.2,0-.3-.3-.5-1h.1l-.1-.6c-.3.3-.5.5-.7.5s-.4-.2-.5-.5q1.2-.3,1.2-.6V95a5.27,5.27,0,0,1,.6-2.4v-.1a2.07,2.07,0,0,1-1.6.9l-.1-.1v-.1a11.74,11.74,0,0,0,1.8-1.5l.1.1h.1Zm1.7,1.7v.8l.5-.5v-.3l-.2-.2h-.1Zm-3.8.8c.2,0,.3.1.3.4-.1.5-.2.8-.4.8h-.1l.1-.1v-.4l-.1-.6Zm-1.1.7h0c.3.1.5.6.5,1.6,0,.3-.1.5-.3.5C483.5,96.9,483.4,96.2,483.3,94.9Zm3.7.9h0l.5.4a.56.56,0,0,1-.4.6c-.2,0-.3-.2-.4-.7V96Z" />
  <path
     id="ab1977c3-e56c-4e51-86dd-f83572424d5d"
     data-name="f91d5cf3-4508-4624-88fa-c8e6f2b074ba"
     class="b772c575-4354-414f-b3e9-f7dcd7a2d5d9"
     d="M496.7,91h.2v.2l-.1.8h.1q.9-.45.9-.6v-.1l-.1-.1v-.1l.1-.1h.6v.3a4.13,4.13,0,0,1-1.7,1.4V93l.1.1v.1l.4-.1h.1c.3,0,.5.1.5.3a1.1,1.1,0,0,1-.6.6l-.1.1v.2c.5,0,.8.2.9.5a1.39,1.39,0,0,1-1.1.8l-1.3.8h-.2V96c.4,0,1-.4,1.9-1.3v-.1c-.4,0-.6-.2-.6-.7v-.1h-.1c0,.9-.1,1.3-.3,1.3H496c-.2-.1-.2-.2-.2-.5l.2-2h-.4l-.2-.2.1-.1.6-.2c.3-.6.5-1.1.6-1.1Zm1.2,5a1,1,0,0,1,.6.5.83.83,0,0,1-.6.3h-.2l-.2-.2h-.4a12.91,12.91,0,0,0-2.6.6h-.2V97a1.26,1.26,0,0,1,1.1-.7l-.5.5h.1a11.67,11.67,0,0,1,2.9-.8Z" />
  <path
     id="b1ef32b8-f4b0-4199-91ee-53894d9abc76"
     data-name="bbf66582-50fd-4422-8e1d-0bc958b926a5"
     class="b772c575-4354-414f-b3e9-f7dcd7a2d5d9"
     d="M504.1,90.9l.2.6-.1.2.1.8-.1.2c.1,0,.2-.1.2-.3l.1-.1h.1l.1.1v.2c-.3,0-.5,1.1-.7,3.2.3,0,.4.1.4.2v.1l-1.2,1.4H503v-.2a3,3,0,0,0,.6-1l-.2.2h-.1l-.1-.1h-.1q0-1.5.6-1.5v-.1l.1-1.2h-.1l-2,1.7v1c0,.9-.1,1.4-.3,1.4-.9-.2-1.3-.4-1.3-.5l-.1-.3a7.18,7.18,0,0,1,.9-1.3c.2,0,.2-.3.2-.8V94h-.3l.3-.4v-.5L501,93v-.1h.1l.3.4.1-.1h.4v.1l-.4.5c0,.7.1,1,.2,1,1.4-1.1,2.1-1.7,2.1-1.9l.1-1.2v-.2l.1-.1-.1-.1V91Zm1.9,2.4.7.6v.2l-.2.2h-.3c-.1,0-.2-.3-.4-.9l.2-.1Zm-.3,2.1h.2l.4.4V96q0,.6-.9,1.2l-.3-.2.1-.1a1.17,1.17,0,0,0,.9-1.2l-.3-.1Zm-5.3,1.1v.3h.1c.3,0,.4-.1.4-.4.1,0,.1-.3.2-.9C500.6,95.8,500.4,96.1,500.4,96.5Z" />
  <path
     id="f68d8f7d-9712-44e1-aa67-7170ebc3f3d8"
     data-name="b705952d-7886-47de-9a3f-d2b37ae03d55"
     class="b772c575-4354-414f-b3e9-f7dcd7a2d5d9"
     d="M511.1,90.4l.3.3a2,2,0,0,1-1.3.7c-.2,0-.2.1-.2.2l.1.2,1.6-.5.3.2a3,3,0,0,1-.9,1.3v-.1a1.74,1.74,0,0,0,.6-1.2h-.1l-1.4.8v1.1l-.1.3.1.1-.1.4.2.4-.2.4v.1a.72.72,0,0,1,.6.4l-.2.3a1.72,1.72,0,0,1,.6.6v.2l-1.3,1.1-.1-.1v-.1a3.37,3.37,0,0,0,.8-1.3c-.3-.1-.5-.2-.5-.3v-.4c-.2,0-.3-.1-.3-.2l.1-.4c-.2,0-.3-.1-.3-.2l.5-.5V94l-.6-1.3a4.72,4.72,0,0,0-1.9,1.1h-.1l-.2-.2,2.2-2v-.1l-.8.1h-.6v-.2a32.64,32.64,0,0,0,3.2-1.1Zm-1.8,1.4-.1.3.1.1h.2l.2-.2-.1-.2Zm-1.1.8v.2h.1l.7-.5v-.2h-.1Zm1.1-.1.2.8h.1l.1-.8Z" />
  <path
     id="ff021193-1d9c-4c65-8e9f-f368da988a17"
     data-name="ad380492-8ba1-4b9a-9ad3-da1080b93927"
     class="b772c575-4354-414f-b3e9-f7dcd7a2d5d9"
     d="M518,90.6a.94.94,0,0,1,.6.8v.1c-.5.7-.8,1-1.1,1l-.1-.1.5-1.3-.2-.2C517.8,90.8,517.9,90.6,518,90.6Zm-2,1.8a.56.56,0,0,1,.4.6v.4a2.25,2.25,0,0,1-.9,1.7h-.3l-.2-.2V95c-.1,1.6-.2,2.4-.5,2.4h-.2l-.2-.2.4-2.5c-.6.8-1,1.2-1.1,1.2h-.2l-.2-.2v-.2a3,3,0,0,1,.6-1.2l.1.1v.1l-.2.5h0a2,2,0,0,0,1.1-1.8l-.1-.1V93l.1-.2h.1c.2.1.2.2.2.5l.1-.1h.1l.2.2-.3.5v.4h.3a1.36,1.36,0,0,0,.6-1v-.5l-.1.1h-.2v-.1Zm2.4.4h.2c.2,0,.3.3.5.9a9.39,9.39,0,0,0-.4,2.1h.6a1,1,0,0,1,.5.6.56.56,0,0,1-.6.4h-.5a1.22,1.22,0,0,1-.6-1l.2-2.1h-.2c-.8.5-1.2.8-1.2,1.1a4.29,4.29,0,0,1-.9,2.5h0l-.1-.1h-.1L517,94a.72.72,0,0,0,.6-.4Zm-3,0h0l.1.2-.2.2h-.1V93Z" />
  <path
     id="fac5ec41-1628-41e6-abd5-d749172fc62d"
     data-name="f9f82d91-327c-44f2-8805-f27b64161fb7"
     class="b772c575-4354-414f-b3e9-f7dcd7a2d5d9"
     d="M524.1,90.5l.8.4.7-.2.1.1V91c-.5.4-.7.7-.7.8l-.8.3v.1a.56.56,0,0,1,.5.3c0,.1-.3.2-.8.3l-.1-.1v-.1l.2-.1-.2-.4.5-.4-.1-.3h-.1a2.47,2.47,0,0,1-1.6.7V92l1.8-1-.3-.4.1-.1Zm-2.9.8q.9.6.9.9v.1c-.3.4-.5.5-.7.5l-.1-.1.1-.3-.3-1.1Zm4.1,1.2a.56.56,0,0,1,.3.4l-.8.4-.1-.1v-.1Q525.3,93,525.3,92.5Zm-1.4.4h.6c.1,0,.2.3.3.8h.1l.6-.4h.2l.6.7h0c0,.1-.3.2-.9.4l-.1.1h-.1v.1l.2.2-.1.7.2,1.3-.2.3H525l-.2-.2.2-.2v-1l.1-.8-.1-.3-.1.1h-.4c0-.1.1-.1.3-.2l.1-.1v-.1c-.2,0-.2-.1-.2-.4h-.1c0,.2-.1.3-.2.3h-.7c0,.2-.1.4-.2.4s-.2-.1-.3-.4h-.1a2.73,2.73,0,0,1-.8,1.6h-.1v-.5a5.74,5.74,0,0,0,.6-1.5l-.2-.2.8-.5.2.1Zm-.1.2-.1.8.1.1h.2c.3,0,.5-.1.5-.4l-.1-.4H524l-.2-.1Zm-.7.5v.2l.2.2h.1l.1-.7h-.1Zm-1.9-.2.2.7-.1.1.1.3-.1.4V95h.1a5.12,5.12,0,0,1,.6-1.3h.1a7.73,7.73,0,0,1-.9,2.8l.1.3-.3.2h-.2c-.2,0-.2-.3-.2-.8a11.23,11.23,0,0,0,.4-2.7l.2-.1Zm4.2.1-.3.4v.3l.7-.4c-.1-.2-.2-.3-.4-.3Zm-1.7,1.4c.4.1.6.2.6.6l-.6.1.3.4v.1l-.2.2a2.57,2.57,0,0,0-1-.4l-.2.9h.1l.1.1a2.84,2.84,0,0,1-.5.9c-.1,0-.2-.2-.2-.7.1,0,.3-.4.6-1.3l.1-.1h.1l.8.1v-.1l.2-.5-.2-.3Z" />
  <path
     id="afc3f463-1071-4d9b-b1d9-efc0a480a1db"
     data-name="ffc6bec9-dd8d-47a2-80b8-467e72ae5547"
     class="b772c575-4354-414f-b3e9-f7dcd7a2d5d9"
     d="M530.8,90.7h0l.1.2a2.48,2.48,0,0,1-.6,1.1v.2l1.8-1h.6v.2l-1.5.7c-1.2.7-2,1.3-2.2,1.9l-.4.1-.2-.2v-.1a20.1,20.1,0,0,0,2-2.5c-.2,0-.2-.1-.2-.2a.61.61,0,0,1,.6-.4Zm-3.2,1.2.4.4a1.08,1.08,0,0,1-.4.9l-.2-.1.1-.9-.1-.2Zm3.2.6h.4l.2.1h-.1l.1.3h.5l.2.2a2.62,2.62,0,0,1-.5.6h-.2v-.1l.2-.3h-.1c-.1,0-.3.2-.4.6a.61.61,0,0,1,.6.3v.4a1.9,1.9,0,0,1-1.3.7,4.87,4.87,0,0,1-1.6,2.1h-.1l-.2-.2a16.59,16.59,0,0,0,2-3.4l-.8.3-.1-.1v-.1c0-.1.4-.3,1.1-.7l.2-.5-.7.3-.1-.1V93Zm.5,1.7-.6.8h.1a.94.94,0,0,0,.6-.8Zm-3.9.8h0l.3.2v.2a1.23,1.23,0,0,1-.4.8l-.1-.1H527c.2-.8.3-1.1.4-1.1Zm4.2.5h.4v.2a1.68,1.68,0,0,0-.4.9v.1h.1l.4-.1h.1l.2.1a1.68,1.68,0,0,1-.9.4c-.2-.1-.4-.2-.4-.3l.2-.9a1.22,1.22,0,0,0-.6,1h-.2l-.2-.1v-.7l.2-.1.1.1Zm-4.5.9h0l.2.5h.1c.1-.4.3-.5.4-.5h.1v.1a1.09,1.09,0,0,1-.5,1h-.2l-.2-.2v-.4c-.1-.4,0-.5.1-.5Z" />
  <path
     id="ab8b7631-225c-4b93-b9d4-e20608e2c83d"
     data-name="e7a975ad-9883-46eb-8849-312bcfdf5391"
     class="b772c575-4354-414f-b3e9-f7dcd7a2d5d9"
     d="M538.5,90.7h.4l.2.2a2.5,2.5,0,0,1-1.1,1.6l-1.3.6v2a1.21,1.21,0,0,0,.3-.2l-.2-.2v-.1l.2-.2.3.2.6-.1v.2h-.2v.1h.3c0-.2.1-.2.2-.2a3.57,3.57,0,0,1,1.4,1v.2c0,.3-.4.8-1.2,1.7h-.2l-.2-.2a3.84,3.84,0,0,0,.9-1.7l-.3-.2h-.2c0,.6-.8,1-2.5,1.2h-.1l-.1-.1v-.3c.1-.4.1-.5.2-.6l-.2-.4.3-1.6-.1-.1h-.1l-.1.1h-.1l-.1-.1v-.1q.6-.3.6-1.5v-.1h.2v.8h.1c0-.2.6-.8,1.9-1.7l-.1-.1Zm-3.7.8a.22.22,0,0,1,.2.2,15.06,15.06,0,0,0-.7,4.1v.1h.1c.4-.9.7-1.3.8-1.3l.2.2c-.6,1.5-1,2.3-1.3,2.3a1,1,0,0,1-.5-.4V96l.1-.1-.1-.1v-.1q.45-3.6.9-3.6Zm1.8,4.4h0l.3.1c.3,0,.6-.2,1-.7v-.1A1.45,1.45,0,0,0,536.6,95.9Z" />
  <path
     id="text1"
     style="font-weight:500;font-size:64.5324px;font-family:SrcWagon;-inkscape-font-specification:'SrcWagon Medium';display:inline;fill:#ffcf60;stroke-width:1.44798"
     d="m 441.35749,46.67095 v 4.69519 h 16.31068 v 0.77973 l -13.15999,36.35172 h 5.31411 l 13.28153,-36.94633 v -4.88031 z m 32.49982,0.0618 -8.89674,17.91687 -0.18512,0.30853 c -0.90611,1.97699 -1.58694,3.81055 -2.04,5.49922 -0.45306,1.68868 -0.67875,3.43829 -0.67875,5.25052 0,2.55362 0.43274,4.84044 1.29768,6.85861 0.90611,2.01817 2.22298,3.62417 3.95285,4.8186 1.77105,1.15325 3.87134,1.72961 6.3014,1.72961 2.18292,0 4.13957,-0.55585 5.86944,-1.6679 1.77105,-1.11206 3.13084,-2.69754 4.07814,-4.7569 0.98849,-2.05937 1.48279,-4.46928 1.48279,-7.22883 0,-2.59479 -0.47378,-4.85922 -1.42109,-6.79503 -0.90612,-1.93579 -2.14092,-3.41869 -3.70604,-4.44836 -1.56511,-1.02968 -3.27556,-1.5445 -5.12898,-1.5445 -1.34154,0 -2.57634,0.24133 -3.70605,0.7255 V 62.7966 l 8.031,-16.06385 z m -0.3104,20.38881 c 1.2768,0 2.41088,0.3488 3.39938,1.04898 0.9885,0.65899 1.74952,1.62707 2.28496,2.90388 0.53543,1.2768 0.80404,2.7802 0.80404,4.51006 0,1.81225 -0.26861,3.39772 -0.80404,4.75689 -0.53544,1.318 -1.29646,2.32711 -2.28496,3.02729 -0.9885,0.70018 -2.12258,1.05086 -3.39938,1.05086 -1.19443,0 -2.30612,-0.35068 -3.3358,-1.05086 -0.9885,-0.70018 -1.77003,-1.70929 -2.34666,-3.02729 -0.57662,-1.35917 -0.86574,-2.94464 -0.86574,-4.75689 0,-1.72986 0.28912,-3.23326 0.86574,-4.51006 0.57663,-1.27681 1.35816,-2.24489 2.34666,-2.90388 1.02968,-0.70018 2.14137,-1.04898 3.3358,-1.04898 z"
     sodipodi:nodetypes="ccccccccc" />
</svg>
