<?xml version="1.0" encoding="UTF-8" standalone="no"?>
<svg
   width="542"
   height="112"
   viewBox="0 0 542 112"
   fill="none"
   version="1.1"
   id="svg32"
   sodipodi:docname="game_logo.svg"
   inkscape:version="1.4.2 (f4327f4, 2025-05-13)"
   xmlns:inkscape="http://www.inkscape.org/namespaces/inkscape"
   xmlns:sodipodi="http://sodipodi.sourceforge.net/DTD/sodipodi-0.dtd"
   xmlns="http://www.w3.org/2000/svg"
   xmlns:svg="http://www.w3.org/2000/svg">
  <defs
     id="defs36" />
  <sodipodi:namedview
     id="namedview34"
     pagecolor="#3f008c"
     bordercolor="#000000"
     borderopacity="0.25"
     inkscape:showpageshadow="2"
     inkscape:pageopacity="0"
     inkscape:pagecheckerboard="0"
     inkscape:deskcolor="#d1d1d1"
     showgrid="false"
     inkscape:zoom="2.0000001"
     inkscape:cx="389.24999"
     inkscape:cy="117.75"
     inkscape:window-width="2560"
     inkscape:window-height="1494"
     inkscape:window-x="-11"
     inkscape:window-y="-11"
     inkscape:window-maximized="1"
     inkscape:current-layer="svg32" />
  <g
     id="g297"
     transform="matrix(0.91575742,0,0,0.91575742,-0.01375042,2.3561145)">
    <path
       id="path2"
       style="fill:#ffffff;fill-opacity:1;stroke-width:0.953723"
       d="M 0.09179732,5.1668527 V 45.891261 L 16.30417,57.67847 V 21.379226 h 6.674954 V 5.1668527 Z m 29.56475968,0 V 21.379226 h 4.76747 v 6.677435 H 22.979124 v 40.550774 l 11.444903,8.135953 v 9.678806 L 16.30417,73.223596 v -8.33439 L 0.09179732,53.032544 V 81.319861 L 42.053962,111.98347 84.018607,81.319861 V 53.042466 L 67.803755,64.896647 v 8.336871 L 49.683898,86.414751 V 76.743388 L 61.128803,68.607435 V 28.056661 H 49.683898 v -6.677435 h 4.769951 V 5.1668527 Z m 31.472246,0 V 21.379226 h 6.674952 v 35.59231 L 84.018607,45.402608 V 5.1668527 Z m -19.064918,29.8128063 3.891861,9.862363 10.410547,0.701974 -7.959839,6.650149 2.470553,10.234432 -8.832966,-5.588507 -8.810641,5.588507 2.477993,-10.244354 -7.982164,-6.674954 10.452714,-0.706935 z" />
    <path
       id="path42"
       style="fill:#ffffff;fill-opacity:1;stroke-width:1.21401"
       d="M 110.97391,5.1618925 V 48.865349 H 92.762275 v 63.130521 h 19.424585 v -4.85676 h 18.21163 v 4.85676 h 9.71106 L 149.8206,99.856444 V 48.865349 H 130.39849 V 34.29753 h 13.96011 l 6.06476,-13.354868 H 130.39849 V 5.1618925 Z m 46.73955,0 3.03364,15.7807695 h -6.06974 l -6.06972,13.354868 h 14.56784 l 8.49809,44.313653 -26.70725,33.384687 h 19.3948 l 10.95625,-13.90305 2.46807,13.90305 h 21.81825 l -6.71216,-35.051565 6.71216,-7.791165 V 45.228976 L 189.2775,57.36345 184.42072,34.29753 h 15.17554 l -2.42838,-24.278872 h -13.35239 l 2.42591,10.924004 h -4.24906 L 178.90415,5.1618925 Z m -45.5266,57.0583245 h 18.21163 v 31.564021 h -18.21163 z" />
    <path
       id="path46"
       style="fill:#ffffff;fill-opacity:1;stroke-width:1.21401"
       d="m 223.09873,5.1618925 -2.23739,7.2826685 h -12.76698 v 41.277554 h -3.03361 l 3.03361,12.747151 v 45.526604 h 12.14191 l 3.64134,-3.64133 V 65.861552 l 12.13944,26.709736 V 65.861552 h 3.64132 v 46.134318 h 11.97077 l 3.81249,-3.64133 V 65.861552 h 3.0361 l -3.0361,-12.139437 V 12.444561 h -16.99621 l 1.99678,-7.2826685 z m 37.19968,0 V 84.680901 l 14.5678,-13.962583 V 17.41791 l 26.70726,-0.116579 V 84.17737 h 11.1274 l 3.44291,-3.745516 V 5.1618925 Z M 279.6957,23.371046 V 71.93375 L 260.29841,90.750618 V 111.99587 L 296.7192,75.575085 V 23.371046 Z m -55.81809,2.393656 15.78076,0.03473 V 53.722121 L 227.51895,28.835534 v 24.886587 h -3.64134 z m 72.84159,55.880101 -17.0235,16.388486 v 13.962581 h 36.44808 V 96.212622 H 296.7192 Z" />
    <path
       d="m 418.12102,24.651485 12.14025,-0.06553 v 10.926216 l -2.42803,2.428049 h -9.71221 v 43.704856 l -3.64209,3.653006 h -52.20302 l 19.42436,-20.042328 v 6.677135 h 16.99636 V 37.940194 h -16.99636 v 21.245423 l -19.42436,20.031395 v -41.27682 h -12.14026 v 57.059132 h 80.12561 v 13.354266 l -3.64209,3.6421 H 329.49724 V 39.154217 l -7.85351,-14.502731 h 7.85351 V 5.1615437 h 20.63842 V 24.651485 h 12.14026 V 5.1615437 h 19.42436 V 24.585928 l 16.99636,0.06553 V 5.1615437 h 19.72663 z"
       fill="#ffffff"
       id="path50"
       style="stroke-width:1.21401"
       sodipodi:nodetypes="cccccccccccccccccccccccccccccccccccc" />
    <path
       id="path52"
       style="fill:#ffffff;fill-opacity:1;stroke-width:1.21401"
       d="M 438.75853,5.1618925 V 59.791832 h 14.57029 l -18.20915,9.713535 v 19.424585 l 53.52364,-28.957045 53.30786,28.957045 V 69.505367 l -18.20916,-9.713535 h 10.9265 l 2.42588,-2.428382 V 5.1618925 Z M 459.39854,18.51676 h 18.20916 v 8.4981 h -14.56782 l 4.85677,10.926486 h 9.71105 v 8.408804 h -18.20916 z m 57.05833,0 v 27.83339 h -18.13226 v -8.346793 h 12.06253 l 2.42841,-2.490395 V 27.01486 h -14.49094 v -8.483217 z m -44.9189,55.845372 -23.06592,12.139437 v 25.494301 h 19.09469 l 3.97123,-3.64133 z m 35.17063,0 v 37.633738 h 19.58582 l 3.51731,-3.64133 V 86.501569 Z" />
  </g>
  <g
     id="g16"
     transform="translate(-2)">
    <path
       style="font-size:18.6605px;font-family:KingHwaOldSong-LT;-inkscape-font-specification:KingHwaOldSong-LT;fill:#ffffff;stroke:#ffffff;stroke-width:0.602288;stroke-dasharray:none;stroke-opacity:1"
       d="m 522.84198,11.855814 0.0637,-0.07948 -0.0956,-2.939432 -0.0956,-1.0486659 v -0.047682 h -2.92569 v 0.031743 q -0.1267,-0.015897 -0.44522,-0.031743 h -7.09136 l -0.0637,0.015905 0.0637,0.5084437 q 0,2.5739882 0.0317,2.7169892 l 0.0637,0.873889 z m -10.43047,5.370419 q -0.0637,0.715001 -0.0637,0.82622 0.12698,0.143004 0.15946,0.206555 0.0318,0.603777 -1.93984,0.746773 -1.11301,-0.190662 -1.14482,-0.413104 0.12669,-2.637548 0.318,-8.8183059 -0.0321,-1.4776583 -0.28619,-3.2413169 l 0.41338,-0.1429989 h 0.28621 q 0.57242,0.2542228 2.06705,0.778548 h 3.30719 l 0.12668,-0.03176 q 1.55823,0.047674 2.67119,0.015897 l 2.00344,0.015906 h 1.90804 q 1.14478,-0.7149953 1.52634,-0.7308854 0.63601,0.095336 2.6077,0.8421092 0.44518,0.1429989 0.41334,0.365444 0,0.142998 -1.08116,0.5084428 l -0.1267,0.1429989 0.0956,1.4776582 q 0.28625,5.926538 0.34983,6.927533 l 0.0637,1.112216 q 0.0637,0.84211 -2.3214,0.889775 -0.57241,-0.09533 -0.85859,-0.333662 l -0.0637,-0.635555 0.12669,-0.492553 q -0.032,0 -0.0637,-0.01591 z M 522.8101,16.65424 q 0.0956,-0.04767 0.0956,-0.174779 0.0956,-1.128108 -0.032,-3.431988 l -0.0318,-0.49255 q 0,-0.06358 -0.15944,-0.127114 h -10.30344 q -0.12683,0.174778 -0.12683,0.476665 v 3.686207 q 0.0956,0.03174 0.15943,0.06358 h 0.8268 l 0.12669,-0.01591 q 0.0956,0 0.15944,0.01591 h 5.02446 l 0.15938,-0.03178 q 0.0637,0.0159 0.31803,0.03178 z"
       id="path7" />
    <path
       style="font-size:18.6605px;font-family:KingHwaOldSong-LT;-inkscape-font-specification:KingHwaOldSong-LT;fill:#ffffff;stroke:#ffffff;stroke-width:0.5;stroke-dasharray:none;stroke-opacity:1"
       d="m 516.62939,21.082526 q 2.13277,0.272006 2.13277,0.592011 0.0218,0.208003 -0.73994,0.576009 0,0.064 0.13057,0.560011 -0.0435,1.424024 -0.0218,1.984034 l 0.19587,0.064 2.02396,-0.048 q 0.087,0 0.087,-0.08 0.43526,0.144002 1.26226,0.112001 0.30467,0 0.45702,-0.08 l 0.5876,0.064 h 0.19586 q 0.52232,-0.016 1.28402,-1.168021 h 0.30468 q 2.04573,1.120019 2.06749,1.504026 -0.56585,0.176003 -0.56585,0.224004 l -0.19586,-0.064 q -2.43746,-0.016 -2.87272,-0.016 v 0.08 q -0.087,0 -0.10881,-0.064 -1.76281,-0.032 -2.5898,-0.016 h -0.36997 q -0.087,0.016 -0.78346,-0.112003 l -0.087,0.144003 v 0.064 q 0.0435,0.960016 3.61267,3.728064 2.74214,1.568028 4.96196,1.504027 l 0.10882,0.144003 v 0.208003 q 0.0218,0.176003 -1.21872,0.384006 l -0.827,0.864016 q -1.80634,-0.224004 -4.63552,-2.640046 -1.39283,-1.360024 -2.65509,-3.824067 -0.0218,-0.272005 -0.19587,-0.272005 h -0.10882 l 0.0218,0.208003 q 0.0218,0.49601 -0.1741,0.49601 l 0.13058,0.704012 v 0.08 q 0.0218,0.688013 -0.0653,0.704012 0.10881,0.592011 0.13057,0.976018 l 0.0435,1.136019 q 0.0218,0.496009 -0.0218,1.552028 l 0.47879,0.064 1.15344,-0.032 q 1.0011,-0.944017 1.30578,-0.944017 0.21764,-0.016 1.58871,1.088019 v 0.288005 q -0.47879,0 -0.45702,0.144003 -1.84987,-0.160003 -3.76501,-0.128003 l -0.087,0.016 q -0.15234,0 -0.28293,0.352006 0.13059,0.704013 0.15235,1.056019 l 0.0653,1.760031 q -0.13058,0.928016 -1.10992,0.944017 -1.06638,-0.128003 -1.08814,-0.608011 0.1741,-0.400007 0.23939,-3.45606 h -0.56584 q -0.82699,0.032 -1.74104,-0.016 l -0.36997,0.08 q -1.74104,-0.032 -1.74104,-0.256005 l -0.0218,-0.272005 q 0.47878,-0.016 0.47878,-0.160002 l 0.19588,0.064 h 0.39172 q 1.08816,-0.032 3.35151,-0.016 l 0.087,-0.144003 v -0.352006 q -0.087,-1.632029 0.0218,-3.600063 l -0.19586,-0.064 q -3.5909,3.504061 -6.70301,4.960087 -0.17411,0 -1.30578,0.672012 h -0.28292 q -0.10881,0 -0.39173,-0.272006 -0.0218,-0.144002 3.26445,-2.128036 2.54627,-2.24004 4.48318,-4.768084 v -0.272005 q -4.28732,0.032 -5.85426,0.064 l -0.67464,0.08 q -0.50055,0.016 -0.78347,-0.400008 0,-0.208003 0.56583,-0.432007 5.44076,0.096 5.57133,0.224004 0.0653,0 0.56584,-0.096 1.13168,0.048 1.63223,0.032 v -0.064 q 0.0435,-1.584028 0,-2.544045 l -0.0218,-0.144002 q 0,-0.128003 -0.21763,-0.688012 0,-0.176003 0.56584,-0.304006 z"
       id="path8" />
    <path
       style="font-size:18.6605px;font-family:KingHwaOldSong-LT;-inkscape-font-specification:KingHwaOldSong-LT;fill:#ffffff;stroke:#ffffff;stroke-width:0.5;stroke-dasharray:none;stroke-opacity:1"
       d="m 511.25393,39.466882 h 0.19586 q 2.11101,0.064 2.11101,0.384006 v 0.064 q -0.56583,0.160002 -0.50055,1.71203 -0.10881,0.096 -0.087,0.496008 l 0.10881,0.144003 q -0.087,0.384007 -0.087,0.624011 l 0.0218,0.496009 q 0.0435,0.144002 0.19586,0.144002 0.10881,0 1.13168,-0.800014 h 0.19586 q 0.91405,0.352006 1.4799,1.024018 -0.10882,0.144003 -0.0871,0.208004 -1.95867,-0.032 -2.69862,-0.016 -0.17409,0.320006 -0.15233,0.928016 l 0.0653,1.69603 q 0,0.144003 0.28292,0.128002 0.26115,0 2.19807,-0.528009 l 0.19586,0.064 q 0,0.064 -0.47879,0.496008 l 0.30469,0.144003 q 0.97933,-0.096 1.15343,-0.096 l 0.95758,0.048 v -0.064 l 0.19586,0.064 0.65289,-0.016 q 0.21763,0 0.39173,-0.08 0.17411,0.064 0.39174,0.064 0.21763,0 0.36997,-0.08 0.17411,0.064 0.39174,0.064 0.21763,0 0.39173,-0.08 l 0.56584,0.064 h 0.28292 q 0.28292,-0.016 1.04462,-0.59201 l 0.19587,-0.08 q 1.67576,0.672012 1.93691,0.960017 l 0.0218,0.144003 q -1.4146,0.784013 -1.76281,1.792031 -1.30578,1.344024 -1.28402,1.584027 0.0218,0.624012 5.11431,1.168021 l 0.19587,-0.016 q 0.19587,-0.064 0.28292,-0.064 0.19586,0.064 0.30469,0.064 v 0.352007 q -1.80633,0.448007 -1.78457,1.16802 -0.36997,0.048 -0.36997,0.144003 -2.4157,-0.368006 -5.04903,-1.872033 h -0.19586 q -1.39283,1.104019 -5.50604,2.016036 h -0.56584 q -0.19587,0.016 -0.19587,-0.128003 v -0.08 l 3.02506,-1.104019 q 2.04572,-0.960017 2.24158,-1.68003 -1.00109,-1.136019 -2.04571,-3.280057 -1.91515,0.048 -1.93691,-0.448007 h -0.087 q -1.89338,0.544009 -1.89338,0.816013 0.0218,0.816015 0.13058,1.12002 -0.0435,1.15202 0,2.27204 l 0.0435,1.328023 q 0.0435,1.040018 -1.19697,1.296023 -0.76169,0.160002 -0.95757,0.160002 -0.84876,-0.896015 -2.24159,-1.088019 l -0.21762,-0.208003 v -0.064 q 0.0218,-0.144003 0.19586,-0.144003 1.58871,0.032 2.39394,0.016 l 0.19586,-0.208004 -0.0218,-0.432007 q -0.0218,-0.400008 -0.10881,-0.480009 0.0653,-0.464008 0.087,-2.688047 l -0.19587,-0.064 h -0.39173 q -1.84986,1.024018 -2.06748,1.040017 -0.4135,0 -0.91405,-1.536026 3.43856,-0.608011 3.41679,-0.992018 -0.0218,-0.704012 0,-2.89605 -0.17411,-0.048 -1.34931,-0.112002 -0.65289,0.08 -1.06638,0.096 -0.087,0 -0.76171,-0.064 l -0.19586,0.08 q -0.17412,-0.064 -0.28293,-0.064 l -0.0218,-0.352006 0.47879,-0.08 0.67466,-0.016 q 0.39173,0 1.06638,0.048 l 0.17411,-0.064 0.5876,0.048 h 0.39173 q 0.13058,0 0.26115,-0.224004 0,-0.464008 -0.10881,-0.704012 0.0653,-0.944017 0.0435,-1.616029 l -0.0435,-0.928016 q 0,-0.160003 -0.10881,-0.272004 0.10881,-0.352006 0.28292,-0.368007 z m 5.48427,0.528009 h 0.39173 q 0.827,0.688012 3.1774,0.640011 h 0.10881 q 0.0653,0 0.827,-0.656011 0.60936,-0.016 1.7628,0.816014 v 0.144002 q -0.45702,0.288005 -0.45702,0.352006 v 0.288005 q 0.0218,0.208005 0.10881,0.208005 l -0.087,0.352006 0.0653,1.696029 q 0,0.096 0.30467,0.208004 h 0.36997 q 0.34821,0.112002 1.34931,0.032 0.93581,-0.064 1.10992,-1.536027 0.1741,-0.112001 0.36997,0.032 0.39174,1.360024 0.73994,1.744031 v 0.208003 q 0.0218,0.56001 -2.65509,0.688013 -3.46032,0.08 -3.48208,-0.976018 l -0.0653,-1.632028 q -0.0218,-0.400007 0.0435,-1.12002 -0.19586,-0.432007 -0.39174,-0.416007 l -1.71928,0.032 q -0.19586,0.016 -0.19586,0.144002 0.13058,3.376059 -2.63332,4.288075 0.0218,0.064 -0.36997,0.208004 l -0.19587,0.016 q -0.19587,0 -0.19587,-0.144002 v -0.144003 q 1.78457,-0.960016 1.69752,-3.696065 -0.0218,-0.528008 -0.26115,-1.488025 0.13057,-0.272005 0.28291,-0.288005 z m 1.24049,7.456131 q 0.45702,1.104018 2.0022,2.30404 l 0.087,-0.016 q 0.39173,-0.320006 1.56693,-2.064036 l -0.0218,-0.432008 -0.47879,-0.064 -2.98153,0.064 q -0.19586,0 -0.1741,0.208004 z"
       id="path9" />
    <path
       style="font-size:18.6605px;font-family:KingHwaOldSong-LT;-inkscape-font-specification:KingHwaOldSong-LT;fill:#ffffff;stroke:#ffffff;stroke-width:0.5;stroke-dasharray:none;stroke-opacity:1"
       d="m 509.64346,66.187383 q 0.15234,0 0.15234,-0.048 0.21763,-0.032 0.43526,0.048 2.04572,-0.032 2.02396,-1.328023 l -0.0218,-0.496009 q -0.0218,-1.216021 -1.50165,-2.352041 v -0.160002 q 1.28402,-2.496044 1.28402,-3.072054 -0.95757,-0.064 -1.32755,-0.064 v 0.128003 q -0.32643,-0.112003 -0.91404,-0.176004 -0.32645,0.384007 -0.30469,1.360024 0,0.08 0.10881,0.208004 -0.087,0.256004 -0.087,0.288005 0,0.176003 0.10881,0.56001 l -0.15235,2.048036 0.10882,0.288005 q -0.0871,0.272004 -0.0871,0.512009 h 0.15235 l -0.15235,0.192003 v 0.208003 q 0.0218,0.032 0.15235,0.032 l -0.13058,0.192003 0.0218,1.616029 q 0.0218,0.016 0.13057,0.016 z m 8.35699,-6.544114 q 0.97934,1.440025 1.65399,1.600028 1.02286,-0.672012 1.39284,-1.504026 v -0.240005 q -1.654,-0.048 -2.48099,-0.032 h -0.45702 q -0.10882,0 -0.10882,0.176003 z m -1.63223,8.816154 h 0.34822 l 0.91404,-0.016 q 0.50055,0 1.45813,0.048 0.0435,0 0.10881,-1.376024 h -0.10881 l 0.10881,-0.192003 v -0.432007 q 0,-0.08 -0.21763,-0.160003 l -1.61046,0.032 q -0.39173,0 -0.80523,-0.064 l -0.21764,0.160003 z m -6.76829,-2.192038 -0.0653,0.112001 0.0218,1.344024 q 0.0218,0.384006 -0.0653,0.992017 0.087,0.112002 0.10881,0.272005 l -0.087,0.432007 0.10881,0.848016 q 0.0218,1.312023 -0.9358,1.328022 h -0.58761 q -0.26115,0 -0.50055,-0.464007 0.0653,-0.960017 0.26116,-1.408025 -0.21764,-0.448008 -0.21764,-0.56001 0,-0.160003 0.087,-0.784013 l -0.10881,-0.288005 q 0.087,-0.272006 0.087,-0.432008 l -0.13058,0.032 0.13058,-0.224004 0.10881,-3.328058 q -0.0871,-0.128002 -0.10881,-0.208003 0.10881,-0.128002 0.10881,-0.288005 -0.0218,-0.224004 -0.10881,-0.352006 0.087,-0.592011 0.0653,-0.976018 -0.0218,-0.640011 -0.10881,-0.848014 0.0653,-0.672012 0.0653,-1.280022 l -0.0435,-1.760031 -0.10882,-0.416007 q 0.15234,-0.336007 0.39174,-0.336007 h 0.34821 q 0.56583,0.384007 1.15343,0.608011 h 0.71819 q 0.36997,-0.016 0.7617,-0.08 0.39174,0.064 0.78347,0.064 0.28292,-0.016 0.97934,-0.592011 0.58759,0.048 1.82809,1.072019 v 0.272005 q -0.97934,0.016 -2.72038,2.816049 0,0.288005 1.56693,1.520027 0.34821,0.496008 0.78347,1.424024 1.34931,-0.320005 4.57024,-2.624045 l 0.0653,-0.128003 v -0.192003 q -0.43526,-0.368006 -1.54518,-1.936033 l -0.10881,0.016 q 0,0.192004 -2.87271,2.576046 h -0.2394 q -0.15233,0 -0.41349,-0.256005 2.72037,-2.88005 3.26445,-5.008088 l 0.1741,-0.032 q 2.32864,0.448008 2.3504,0.736013 v 0.160002 q -1.04462,0.52801 -1.04462,0.704013 v 0.176003 l 0.5876,0.048 2.28513,-0.032 q 0.0218,0 0.58759,-0.512009 h 0.45703 q 0.28292,0 1.67575,1.072019 v 0.176003 l -1.13168,0.57601 q 0,0.096 -1.78457,1.648029 v 0.048 q 0,0.432008 2.80742,0.976017 0.28293,0 0.52233,0.144002 l 0.32643,-0.016 q 0.19588,0 0.36998,-0.08 0.34821,0.144003 1.24049,0.208004 l 0.19587,-0.08 q 1.0011,0.064 1.0011,0.256004 v 0.08 q -1.82809,0.656011 -2.08925,1.088019 l -0.26116,0.112001 h -0.13058 q -2.04573,-0.160002 -4.98372,-1.920033 h -0.19588 q -3.50384,2.096037 -5.83248,2.464043 0.0218,1.440025 -2.02396,2.224039 -0.65289,0.016 -1.39283,-0.704012 -1.0011,-0.224004 -1.0011,-0.368007 z m 5.39723,2.192038 q 0.0218,-1.264022 -0.0218,-2.368042 l 0.0218,-0.464007 q 0.15235,-0.304006 0.43526,-0.160003 0.45702,0.240003 0.84875,0.432007 1.0664,0.016 2.04573,0 l 0.67465,-0.016 q 0.087,0 0.087,-0.096 l -0.0435,-1.408024 q 0,-0.272005 0.36997,-0.480009 1.19697,0.208004 1.76281,0.192004 0,0.144002 0.15234,0.144002 -0.43526,0.592011 -0.41349,0.768013 l 0.0218,0.848015 q 0.0218,0.08 0.087,0.08 h 0.1741 v -0.112 q 0.52232,0.176003 0.78347,0.176003 0.10881,0 1.17521,-0.864016 h 0.36997 q 1.17519,0.57601 1.5234,0.928017 l 0.0218,0.160002 q 0,0.160003 -0.28291,0.192004 h -0.78347 q -0.54407,0.016 -1.32754,-0.048 l -0.19588,0.064 q -0.67464,-0.048 -1.06638,-0.048 h -0.34821 q -0.21762,0.064 -0.21762,0.384007 l 0.0435,1.552027 q 0.10881,0.224004 0.47878,0.208004 l 2.24159,-0.016 q 0.827,-0.800014 1.30578,-0.944017 1.54517,0.688012 1.93691,1.088019 0,0.304006 -0.28292,0.304006 l -5.28841,0.016 h -0.30468 q -0.0435,0 -0.15234,0.400008 0.10881,0.640011 0.10881,0.992017 0.13058,1.456025 -0.73994,1.456025 -0.0653,0 -0.23939,0.08 -0.93582,0 -0.93582,-0.672011 0.0435,-1.584028 0.0435,-1.712031 H 518.958 l 0.10881,-0.192003 -0.0218,-0.384007 -1.00109,0.016 -0.47879,0.016 H 513.996 l -1.32754,0.016 q -0.6529,-0.048 -0.54407,-0.384007 0.0435,-0.128002 0.47878,-0.144003 z"
       id="path10" />
    <path
       style="font-size:18.6605px;font-family:KingHwaOldSong-LT;-inkscape-font-specification:KingHwaOldSong-LT;fill:#ffffff;stroke:#ffffff;stroke-width:0.5;stroke-dasharray:none;stroke-opacity:1"
       d="m 515.43242,75.419579 q 2.1763,0.432007 2.28511,0.816014 v 0.096 q -2.30688,1.216022 -2.74214,2.160039 v 0.128002 q 4.67905,-0.192003 6.39833,-0.320006 0.32645,0.064 0.54408,0.064 l 0.0653,-0.096 v -0.08 q 0,-0.432007 -1.4146,-0.944016 l -0.0653,-0.288005 v -0.272006 q 2.65509,0.416008 4.20026,1.392025 0.58761,0.624011 0.58761,0.960017 v 0.192003 q -0.21764,0.976014 -1.28402,0.976014 h -0.34821 q -0.47879,-0.04802 -1.0011,-1.424021 -0.10881,-0.048 -0.13058,-0.048 -2.39393,0.288005 -9.03165,0.672012 l -2.58979,0.592011 q 0,0.096 -0.30469,0.208006 h -0.13058 q -1.0011,0 -1.93691,-1.120023 0.0218,-0.224004 0.76171,-0.224004 h 0.50055 q -0.0218,0 -0.0218,-0.144002 l 0.32645,0.144002 h 0.84875 q 0.36998,0 0.93581,0.064 1.63223,-0.240004 1.63223,-0.672012 0.36997,0 1.30578,-2.608045 z m -2.19807,4.224074 h 0.13058 q 0.45702,0 1.78458,0.512007 v 0.08 l -1.50166,1.280023 v 0.096 q 0,0.112007 0.13058,0.112007 0.39173,0 0.39173,-0.06396 0.93581,0.06396 1.37107,0.06396 h 2.74215 q 1.26225,0 3.41679,-0.06396 1.21872,-0.848018 1.7628,-0.848018 1.30579,0.336006 1.89338,1.120024 0,0.175999 -0.93581,0.287998 l -0.7617,-0.06397 q -3.30799,0.06397 -4.80963,0.06397 -0.71818,0 -0.71818,0.480012 -0.23939,1.072016 -0.23939,1.664028 v 0.144007 l 0.0653,0.096 3.15564,-0.128007 q 0.5876,0.06397 1.65399,0.06397 h 0.91404 q 1.28402,-1.040025 1.80633,-1.040025 1.87163,0.640011 1.87163,1.328031 l -0.54409,0.255997 q -0.47878,0 -0.60936,-0.04802 -2.52451,0.04802 -4.02615,0.04802 h -2.67685 l -0.89229,-0.04802 -0.0653,0.09601 q 0,0.75201 3.06858,2.288039 2.80743,1.024016 5.09255,1.024016 0,0.08 0.2394,0.224006 0,0.320006 -1.17521,0.496004 -1.17521,0.752011 -1.78457,0.752011 -3.30798,-0.86401 -5.24488,-2.96005 -0.89228,-1.360022 -1.17521,-1.50402 h -0.10881 q -1.21873,2.480037 -4.00439,3.408054 -1.71928,0.576011 -4.89669,1.120024 -0.60936,-0.08 -0.60936,-0.176007 v -0.256007 q 0,-0.191998 2.78566,-0.67201 3.26446,-0.83201 4.61377,-2.784043 0.2394,-0.688019 0.2394,-1.008025 -0.0871,0 -0.0871,-0.04802 l -0.89229,0.04802 h -0.0653 q -0.65288,0 -0.73994,-0.04802 -0.47879,0.04802 -0.84876,0.04802 h -3.48208 q -1.15344,0.03198 -1.15344,0.128007 -0.71818,0 -0.95757,-0.336005 v -0.09601 q 0,-0.255997 1.76281,-0.368005 0.78346,0.06397 4.96196,0.192007 l 0.15234,-0.06396 q 0.13058,0 0.41349,0.06396 1.34931,0 1.34931,-0.368005 v -0.192007 q 0,-0.608012 0.17411,-1.520029 0,-0.304005 -0.63113,-0.368005 -1.04462,0.06397 -1.19696,0.06397 -1.17521,-0.127999 -1.30578,-0.127999 -0.10881,0 -2.72039,1.936034 l -0.54407,0.272006 h -0.15233 q -0.26117,0 -0.26117,-0.127999 v -0.160007 q 3.35151,-3.248056 3.56914,-4.224072 z"
       id="path11"
       inkscape:label="path11" />
    <path
       style="font-size:18.6605px;font-family:KingHwaOldSong-LT;-inkscape-font-specification:KingHwaOldSong-LT;fill:#ffffff;stroke:#ffffff;stroke-width:0"
       d="m 517.39109,93.915935 h 0.28292 q 1.0011,0.608011 1.02286,0.768018 v 0.560004 q -0.26116,0.224006 -0.26116,0.256006 v 1.264022 q 0,0.432005 0.0653,0.912018 -0.15233,0.70401 -0.34821,0.76801 l 0.0653,0.256006 v 0.352005 q 0,0.400005 -0.0653,1.072026 0.0653,0.096 0.0653,0.144 -0.10881,0 -0.28292,0.208 v 1.12002 q 0,0.11201 -0.0653,0.20801 0.10881,0.288 0.28291,0.448 v 0.11201 q -0.1741,0.256 -0.54407,0.256 h -0.56584 q -0.54407,-0.224 -0.60937,-0.36801 v -0.048 q 0,-0.16 0.19588,-0.448 l -0.0653,-0.25601 q 0,-0.24 0.0653,-0.51201 l -0.28293,-0.76801 v -0.864017 q -0.1741,-1.312022 -0.34821,-1.376022 v -0.960017 q -0.19586,-0.528012 -0.19586,-1.120023 0,-0.111999 0.0653,-0.207998 -0.0653,-0.272006 -0.0653,-0.448013 v -0.304006 q 0.47879,-0.81601 1.10992,-0.81601 0.30467,0 0.47879,-0.208006 z m -0.34821,9.264165 h 0.63113 q 0.69642,0.16 1.02286,0.54401 0.3482,0.56001 0.3482,0.62401 v 0.60801 q -0.67464,0.86401 -1.65398,0.86401 0,0.048 -0.0653,0.048 h -0.28292 q -1.52342,-0.43202 -1.52342,-0.96002 -0.0653,0 -0.0653,-0.064 v -0.24 q 0,-0.67202 0.47879,-0.88002 0.2394,-0.19201 0.91404,-0.4 0,-0.08 0.19588,-0.14401 z"
       id="path12" />
    <path
       d="m 537.81091,29.486023 q -0.048,0.336 -0.12,0.336 -0.372,0 -0.684,0.024 -0.48,-0.036 -0.552,-0.036 -0.384,0.012 -0.48,0.036 l -0.096,-0.024 q -0.048,0 -0.264,0.024 -0.264,-0.036 -0.456,-0.036 h -0.048 q -0.12,0 -0.456,0.048 -0.084,-0.012 -0.168,-0.012 -0.108,0.036 -0.156,0.036 h -3.792 q -0.096,0.168 -0.216,0.168 v 0.144 q 0,0.096 -0.024,0.24 0,0.072 0.168,0.312 0.024,0.168 0.024,0.264 -0.156,0.48 -0.408,0.48 h -0.108 q -0.144,0 -0.144,-0.204 0.048,-0.336 0.048,-0.66 -0.036,-0.324 -0.036,-0.456 v -0.024 l 0.084,-0.444 -0.132,-2.124 q 0.096,-0.636 0.168,-0.636 h 0.012 q 0.348,0 0.348,0.108 0.06,0.54 0.096,1.272 -0.012,0.204 -0.036,0.216 0,0.192 0.276,0.192 0.024,0.06 0.156,0.06 h 0.252 q 0.18,0 0.468,-0.084 h 0.036 q 0.168,0 0.42,-0.012 0.24,0.048 0.288,0.048 0.3,-0.012 0.348,-0.012 l 0.084,0.048 h 0.264 q 0.072,0 0.288,-0.048 l 0.408,0.048 h 0.024 q 0.312,-0.048 0.336,-0.048 h 0.216 q 0.048,0.036 0.156,0.06 l 0.12,-0.012 h 0.216 q 0.18,0 0.528,-0.156 h 0.036 q 0.312,0.132 0.492,0.132 0.432,-0.012 0.468,-0.348 0.024,-0.348 0.048,-0.612 -0.012,-0.168 -0.012,-0.324 v -0.06 q 0,-0.048 -0.012,-0.072 0.096,-0.408 0.144,-0.408 h 0.072 q 0.132,0 0.132,0.564 v 0.096 q 0.24,0.444 0.24,0.48 0.24,0.636 0.468,0.792 0.468,0.444 0.468,0.624 z m 0.096,5.78399 q -0.06,0.72 -0.084,0.744 -0.084,0 -0.168,0.528 -0.192,0.348 -0.312,0.444 -0.42,0.264 -0.42,0.444 -0.024,0.036 -0.216,0.096 0,0.048 -0.156,0.084 0,0.048 -0.204,0.12 l -0.864,0.36 q -0.096,0 -0.18,0.06 h -0.108 q -0.06,0 -0.156,-0.012 -0.048,0 -0.552,0.204 -0.024,0 -0.324,0.084 -0.564,-0.132 -0.648,-0.132 -0.084,0.012 -0.144,0.012 h -0.252 q -0.672,-0.084 -0.84,-0.204 -0.144,-0.048 -0.48,-0.084 0,-0.048 -0.324,-0.168 -0.06,-0.06 -0.36,-0.192 0,-0.06 -0.36,-0.252 0,-0.06 -0.18,-0.06 0,-0.036 -0.168,-0.228 -0.072,-0.276 -0.54,-0.696 -0.204,-0.504 -0.204,-0.552 v -0.168 q 0,-0.024 0.012,-0.024 -0.06,-0.3 -0.12,-0.3 0,-0.444 0.192,-0.816 0,-0.096 0.132,-0.252 0,-0.072 0.12,-0.204 0.012,-0.084 0.12,-0.192 0,-0.096 0.12,-0.18 0,-0.144 0.264,-0.252 0.084,-0.12 0.36,-0.336 0,-0.06 0.156,-0.108 0.276,0.012 0.42,0.012 l 0.036,-0.012 q 0.468,0.228 0.468,0.396 0.132,0.24 0.252,0.624 0,0.516 -0.132,0.516 -0.144,0.324 -0.444,0.324 h -0.012 q -0.228,0 -0.444,-0.132 -0.276,-0.06 -0.348,-0.192 -0.06,0 -0.192,-0.168 -0.108,0 -0.204,0.12 -0.132,0.072 -0.132,0.288 0,0.012 0.012,0.144 0,0.18 -0.096,0.468 -0.024,0.108 -0.024,0.24 0.12,0.336 0.468,0.816 0,0.108 0.288,0.144 0.072,0.048 0.372,0.12 l 0.312,0.192 q 0.06,0.132 0.456,0.132 l 0.432,0.072 q 0.384,0 0.636,-0.168 0.204,-0.024 0.204,-0.18 v -0.132 q 0,-0.252 -0.144,-0.372 0,-0.036 -0.12,-0.132 v -0.024 q 0,-0.12 0.036,-0.216 -0.06,-0.18 -0.06,-0.216 0.024,-0.42 0.024,-0.66 -0.06,-0.024 -0.108,-0.144 0.024,-0.132 0.144,-0.384 0.036,-0.264 0.204,-0.36 0,-0.132 0.588,-0.624 0.072,-0.156 0.276,-0.156 0,-0.036 0.348,-0.204 0.408,-0.18 0.408,-0.216 0.828,0.036 1.116,0.072 0.024,0 0.024,-0.024 0.3,0.036 0.78,0.312 0,0.012 0.432,0.576 0.12,0.24 0.372,0.588 0.084,0.192 0.12,0.48 0.084,0.168 0.12,0.312 z m -0.576,0.348 q 0,-0.084 0.036,-0.084 -0.144,-0.468 -0.396,-0.864 0,-0.18 -0.336,-0.24 -0.084,0 -0.384,-0.036 -0.024,0 -0.024,0.012 -0.192,-0.012 -0.384,-0.048 -0.18,0.024 -0.288,0.024 -0.144,-0.06 -0.312,-0.084 -0.096,0 -0.252,0.18 l -0.084,0.012 q 0,-0.024 -0.048,-0.048 -0.036,0.072 -0.42,0.192 -0.444,0.168 -0.54,0.372 -0.12,0.072 -0.12,0.204 0.012,0.168 0.012,0.204 -0.036,0.432 -0.048,0.504 0,0.012 0.012,0.012 l -0.012,0.084 0.012,0.096 -0.012,0.024 q 0.012,0.144 0.336,0.492 h 0.324 q 0.108,0.12 0.288,0.156 0.024,0.12 0.216,0.12 0.276,0.096 0.444,0.096 l 0.252,-0.084 0.12,0.024 q 0.132,-0.084 0.156,-0.084 l 0.024,0.012 q 0.036,0 0.18,-0.096 h 0.312 q 0.084,0 0.192,-0.144 0.18,0 0.504,-0.336 0.108,0 0.204,-0.288 0.108,-0.036 0.108,-0.072 v -0.012 q 0,-0.18 -0.072,-0.3 z m 0.576,7.799995 q -0.048,0.396 -0.324,0.396 0,0.06 -0.504,0.084 -0.156,0 -0.744,-0.168 h -0.072 q -0.108,0 -0.24,0.036 -0.12,-0.048 -0.168,-0.048 -0.144,0 -0.252,0.012 -0.624,-0.012 -0.984,-0.06 h -0.264 q -0.324,0.048 -0.456,0.048 -0.312,0 -0.78,-0.012 l -0.24,0.108 q -0.144,-0.012 -0.24,-0.012 -0.072,0 -0.132,0.168 0.072,0.204 0.132,1.02 v 0.156 q -0.084,0.144 -0.216,0.144 h -0.06 q -0.312,0 -0.312,-0.252 -0.072,-0.024 -0.072,-0.048 v -0.048 q 0,-0.024 0.048,-0.24 v -0.108 q -0.06,-0.12 -0.12,-0.924 l -0.06,-0.048 -0.312,0.048 q -0.348,-0.024 -0.552,-0.072 -0.072,0 -0.372,0.24 -0.288,0.108 -0.288,0.204 0,0.336 0.012,1.008 -0.048,0.24 -0.3,0.24 -0.096,0 -0.312,-0.24 v -0.084 q 0,-0.18 0.024,-0.3 -0.024,-0.108 -0.024,-0.24 0,-0.096 0.06,-0.216 -0.036,-0.492 -0.06,-0.492 0,-0.036 0.024,-0.036 -0.024,-0.312 -0.024,-0.456 v -0.156 q 0.06,-0.576 0.06,-0.636 -0.072,-0.096 -0.144,-0.576 -0.048,-0.048 -0.048,-0.12 l 0.072,-0.24 v -0.12 q 0,-0.06 -0.12,-0.216 l -0.024,-0.156 0.168,-0.288 q 0,-0.108 0.348,-0.132 0,-0.024 0.048,-0.024 0.18,0 0.372,0.36 0.024,0 0.036,0.216 -0.084,0.468 -0.084,0.48 v 0.3 q 0,0.036 0.036,0.168 l -0.06,0.396 q 0,0.084 0.288,0.12 0.552,0.036 0.852,0.096 h 0.204 q 0.156,0 0.156,-0.18 v -0.12 q 0,-0.276 0.024,-0.816 0,-0.12 -0.084,-0.372 v -0.072 q 0,-0.072 0.084,-0.432 -0.012,-0.408 -0.012,-0.54 -0.168,-0.204 -0.168,-0.756 v -0.048 q 0,-0.024 0.048,-0.048 h 0.732 q 0.396,0.42 0.588,0.492 0.408,0.288 0.456,0.288 0.18,0.204 0.396,0.3 0,0.024 0.408,0.276 0.372,0.276 0.6,0.492 0.54,0.336 0.6,0.336 0,0.024 0.3,0.204 0.12,0.12 0.396,0.276 0.12,0.156 0.348,0.252 0.348,0.168 0.432,0.24 h 0.132 q 0.708,0.216 0.708,0.708 0.036,0.18 0.036,0.24 z m -5.196,-3.072 h -0.144 q -0.144,0.048 -0.144,0.24 0,0.168 0.084,0.444 -0.036,0.72 -0.084,0.948 0.024,0.6 0.132,0.6 l 0.072,0.06 h 0.12 q 0.06,0 0.396,0.06 h 0.12 q 0.12,-0.036 0.144,-0.036 0.372,0.036 0.396,0.036 h 0.432 q 0.048,0 0.24,-0.06 h 0.012 q 0.252,0.06 0.456,0.096 0.228,-0.012 0.324,-0.012 l 0.24,0.012 q 0.468,-0.048 0.468,-0.156 v -0.06 q -0.372,-0.456 -0.528,-0.456 0,-0.036 -0.228,-0.144 -0.3,-0.144 -0.552,-0.456 -0.672,-0.492 -1.236,-0.672 -0.456,-0.216 -0.624,-0.42 z m 5.148,10.283992 q 0,0.048 -0.156,0.168 h -0.036 q -0.036,0 -0.06,-0.012 -0.06,0.036 -0.108,0.036 -0.084,-0.132 -0.252,-0.228 -0.336,-0.156 -0.336,-0.312 0,-0.048 -0.168,-0.168 -0.06,-0.288 -0.144,-0.444 0.024,-0.312 0.024,-0.528 v -0.096 l 0.084,-0.108 q -0.024,-0.468 -0.024,-0.588 -0.084,-0.24 -0.084,-0.456 v -0.168 q -0.216,-0.228 -0.42,-0.264 -0.24,-0.168 -1.32,-0.168 -0.12,0.156 -0.12,0.204 v 0.108 q 0.252,0.408 0.252,0.42 0.084,0.156 0.156,0.264 -0.036,0.072 -0.036,0.192 v 0.084 q 0.048,0.048 0.12,0.24 0.024,0 0.048,0.096 -0.048,0.216 -0.048,0.252 0.072,0.204 0.072,0.468 -0.072,0 -0.204,0.336 l -0.204,0.24 q -0.192,0.48 -0.336,0.576 -0.024,0 -0.276,0.264 -0.372,0.192 -0.504,0.24 -0.012,0.048 -0.228,0.12 -0.036,0.072 -0.12,0.096 l -0.084,-0.012 q 0,0.036 -0.636,0.048 -0.12,0.072 -0.156,0.072 -0.108,0 -0.408,-0.108 -0.36,0.072 -0.384,0.072 h -0.024 q -0.168,-0.144 -0.864,-0.492 -0.336,-0.06 -0.78,-0.672 l -0.18,-0.348 q -0.12,-0.48 -0.228,-0.636 0.024,-0.18 0.024,-0.276 v -0.084 q -0.072,-0.18 -0.072,-0.252 0,-0.132 0.072,-0.54 -0.024,-0.036 -0.024,-0.072 0.108,-0.204 0.192,-0.3 v -0.156 q 0.216,-0.204 0.216,-0.252 0.024,-0.156 0.372,-0.576 0,-0.12 0.192,-0.156 0.156,-0.096 0.36,-0.096 l 0.024,0.012 q 0.192,-0.12 0.36,-0.192 0,-0.036 0.204,-0.096 h 0.276 q 0.108,0 0.348,0.156 0.072,0.012 0.132,0.012 h 0.072 q 0.18,0.132 0.252,0.336 0.048,0 0.084,0.492 0.036,0 0.036,0.072 -0.036,0.06 -0.036,0.084 l 0.024,0.084 q -0.156,0.168 -0.156,0.3 -0.204,0.228 -0.408,0.228 l -0.12,-0.024 q -0.084,0.024 -0.168,0.024 -0.048,0 -0.324,-0.12 -0.072,0 -0.216,-0.288 -0.06,0 -0.18,-0.288 -0.168,-0.24 -0.276,-0.24 h -0.072 q -0.156,0 -0.3,0.252 0,0.072 -0.024,0.072 l 0.024,0.036 v 0.06 q 0,0.108 -0.072,0.36 l 0.024,0.084 q -0.06,0.216 -0.06,0.324 v 0.12 q 0,0.048 0.072,0.24 -0.048,0.204 -0.048,0.288 0,0.144 0.132,0.3 0.24,0.432 0.276,0.564 0.108,0.084 0.336,0.144 0,0.06 0.276,0.084 0,0.06 0.18,0.12 0,0.108 0.576,0.108 0,0.012 0.156,0.036 0.324,-0.072 0.336,-0.072 l 0.096,0.012 q 0.096,-0.012 0.156,-0.012 0.072,0 0.156,0.036 0.228,-0.06 0.456,-0.168 0.408,-0.168 0.708,-0.48 l 0.084,-0.156 q 0.084,-0.144 0.144,-0.288 l 0.084,-0.012 q -0.024,-0.384 -0.024,-0.48 l 0.024,-0.144 q -0.024,0 -0.24,-0.24 -0.048,0 -0.072,-0.132 0.108,0 0.12,-0.228 -0.288,-0.324 -0.624,-0.432 0,-0.024 -0.168,-0.084 l -0.144,-0.18 q -0.024,-0.096 -0.024,-0.168 0,-0.384 0.12,-0.384 0.048,-0.108 0.144,-0.108 h 0.036 q 0.36,0.072 0.48,0.072 h 0.024 q 0.072,0.048 0.12,0.048 h 0.06 q 0.156,0 0.288,0.024 0.084,-0.024 0.18,-0.024 0.24,0.072 0.444,0.072 0.276,-0.048 0.324,-0.048 h 0.468 q 0.012,0 0.012,0.012 l 0.036,-0.012 h 0.528 q 0.684,0 0.792,0.228 v 0.396 q 0,0.132 -0.084,0.276 0,0.516 -0.096,0.636 -0.024,0.096 -0.024,0.168 v 0.312 q 0,0.072 -0.012,0.18 0,0.348 0.492,1.32 l 0.012,0.156 h -0.012 q 0.036,0.108 0.036,0.132 z m -3.912,5.591993 -0.024,0.636 q 0.024,0.216 0.024,0.252 -0.048,0.324 -0.048,0.492 0,0.048 0.048,0.552 0,0.324 -0.372,0.48 l -0.336,-0.012 q -0.048,0 -0.132,-0.252 l 0.06,-0.504 -0.036,-0.252 0.036,-0.204 -0.036,-0.168 q 0.06,-1.464 0.06,-1.884 -0.048,-0.228 -0.084,-1.14 -0.024,0 -0.024,-0.168 v -0.24 q 0,-0.36 0.468,-0.492 l 0.108,0.012 q 0.24,0.012 0.24,0.504 0,0.096 -0.036,0.468 0.036,0.396 0.036,0.744 h -0.036 l 0.036,0.084 v 0.384 q 0,0.036 -0.036,0.036 0.036,0.492 0.084,0.672 z m 3.756,6.384008 q 0,0.084 -0.12,0.636 v 0.072 q 0,0.036 0.024,0.06 -0.204,0.744 -0.264,0.864 -0.192,0.48 -0.6,0.888 -0.192,0.3 -0.816,0.456 l -0.204,0.036 h -0.084 q -0.36,0 -0.564,-0.036 0,0 -0.06,0.012 -0.516,0 -0.936,-0.336 -0.168,-0.108 -0.456,-0.252 -0.288,-0.096 -0.324,-0.216 -0.036,0 -0.132,-0.204 -0.336,-0.444 -0.66,-0.684 -0.072,-0.288 -0.492,-0.696 -0.144,-0.156 -0.252,-0.372 -0.192,-0.192 -0.288,-0.408 l -0.24,-0.168 q -0.132,-0.3 -0.24,-0.3 h -0.084 q -0.096,0 -0.12,0.408 -0.036,0 -0.036,0.168 v 0.012 q 0.06,0.564 0.084,0.564 l -0.012,0.084 v 0.132 q 0,0.024 0.036,0.144 v 0.06 q 0,0.504 0.084,0.816 0,0.276 -0.036,0.408 0.072,0.264 0.216,0.264 l 0.672,0.12 0.336,0.036 0.228,-0.012 q 0.384,0 0.48,0.168 0.06,0.06 0.096,0.3 v 0.036 q -0.144,0.204 -0.42,0.204 -0.276,-0.048 -0.552,-0.048 -0.024,0 -0.264,0.048 h -0.18 q -0.06,0 -0.156,-0.012 -0.132,0.06 -0.204,0.06 -0.168,0 -0.168,-0.036 -0.072,0.036 -0.216,0.036 h -0.108 q -0.06,0 -0.144,-0.012 -0.072,0.048 -0.636,0.06 0,0.036 -0.108,0.036 -0.096,-0.096 -0.096,-0.096 v -0.024 q 0.06,0 0.096,-0.288 0,-0.06 -0.036,-0.228 0,-0.024 0.012,-0.06 l -0.012,-0.144 0.06,-0.78 q -0.012,-0.072 -0.012,-0.12 0.072,-0.648 0.072,-1.272 v -1.404 q 0,-0.096 0.012,-0.24 l -0.072,-0.588 h 0.024 q -0.072,-0.132 -0.084,-0.156 0,-0.288 0.204,-0.288 h 0.264 q 0.252,0.012 0.432,0.168 0.228,0.36 0.768,0.972 0.204,0.24 0.444,0.672 0.12,0.156 0.624,0.54 0.156,0.096 0.324,0.492 0.132,0.132 0.48,0.372 0.216,0.228 0.576,0.372 0.204,0.3 0.504,0.36 l 0.036,-0.024 q 0.168,0 0.468,0.108 0.144,-0.036 0.192,-0.036 0.396,0.108 0.456,0.108 h 0.036 q 0.696,-0.096 0.792,-0.204 0.384,-0.288 0.444,-0.516 0.036,0 0.072,-0.3 0.18,-0.252 0.18,-0.492 0,-0.036 -0.18,-0.42 l -0.024,-0.156 h 0.024 q 0,-0.168 -0.348,-0.648 -0.108,-0.084 -0.348,-0.144 0,-0.048 -0.264,-0.072 -0.192,0.084 -0.192,0.288 0,0.588 -0.096,0.588 -0.168,0.396 -0.42,0.396 l -0.24,0.048 q -0.228,-0.036 -0.288,-0.036 l -0.108,0.036 q -0.276,0 -0.324,-0.12 -0.252,-0.288 -0.252,-0.444 0,-0.204 -0.12,-0.66 v -0.048 q 0.072,-0.072 0.468,-0.72 0.204,-0.228 0.624,-0.228 0.084,0 0.204,-0.084 0.288,0.036 0.444,0.036 0.012,0 0.132,-0.012 0.564,0.18 0.612,0.18 l 0.252,0.132 q 0.372,0.192 0.564,0.516 0,0.012 0.528,0.924 0.012,0.192 0.012,0.348 z m 0.12,6.768001 q -0.024,0.192 -0.036,0.288 0,0.072 0.012,0.18 -0.108,0.528 -0.216,0.708 -0.432,0.78 -0.588,0.804 -0.18,0.072 -0.36,0.372 -0.072,0.096 -1.116,0.348 -0.012,0.024 -0.264,0.084 0,0.024 -0.216,0.108 0,0.024 -0.024,0.024 -0.036,0 -0.06,-0.024 -0.048,0 -0.132,0.108 -0.18,-0.036 -0.228,-0.036 -0.36,-0.024 -0.564,0.048 -0.228,-0.024 -0.336,-0.024 l -0.312,-0.024 q -0.444,-0.012 -0.672,0 -0.528,-0.156 -0.6,-0.156 l -0.288,-0.012 q -1.272,-0.54 -1.356,-0.768 -0.072,0 -0.144,-0.156 -0.252,-0.288 -0.312,-0.6 -0.396,-0.672 -0.384,-0.912 l 0.012,-0.096 0.144,-0.54 q 0.024,-0.204 0.036,-0.456 0,-0.012 -0.024,-0.156 0.036,0 0.624,-0.564 0.06,0 0.408,-0.42 0.168,-0.18 0.336,-0.216 0,-0.048 0.168,-0.084 l 0.096,0.024 0.432,-0.168 q 0.228,0.012 0.468,-0.072 0.288,-0.12 0.348,-0.12 l 0.204,0.012 q 0.372,-0.048 0.912,-0.06 0.156,0.036 0.216,0.048 0.288,0.012 0.66,0.012 0.18,0.024 0.288,0.036 l 0.108,-0.012 q 0.156,0.108 0.864,0.288 0.06,0.06 0.48,0.276 0.42,0.24 0.78,0.66 0.3,0.348 0.3,0.42 0.276,0.552 0.336,0.828 z m -0.552,0.06 q -0.06,-0.036 -0.216,-0.42 -0.036,-0.012 -0.084,-0.228 -0.336,-0.312 -0.516,-0.36 0,-0.048 -0.396,-0.204 0.012,-0.048 -0.156,-0.084 -0.048,-0.084 -0.072,-0.084 l -0.168,-0.012 q -0.084,0 -0.216,0.06 -0.456,0 -0.744,-0.024 h -0.072 q -0.108,-0.084 -0.216,-0.108 -0.228,0.036 -0.6,0.036 0,0.06 -0.504,0.06 -0.024,0 -0.024,-0.012 -0.012,-0.012 -0.012,0.012 l -0.084,-0.024 q -0.312,0.036 -0.888,0.048 0,0.024 -0.336,0.084 -0.144,0.072 -0.216,0.072 l -0.18,-0.012 -0.3,0.288 q -0.108,-0.036 -0.132,-0.036 -0.024,0 -0.024,0.012 l -0.084,-0.012 -0.216,-0.012 q -0.132,0 -0.312,0.324 -0.108,0.204 -0.192,0.528 v 0.084 q -0.012,0.18 0.096,0.672 -0.012,0.396 0.108,0.408 0.156,0.096 0.264,0.288 0.108,0.204 0.288,0.216 -0.012,0.024 0.444,0.084 0.588,0.012 0.804,0.012 0.492,0.156 0.72,0.168 h 0.048 q 0.3,-0.048 0.372,-0.048 l 0.252,0.012 q 0.108,0.012 0.192,-0.072 h 0.024 q 0.18,0.072 0.264,0.084 0.468,-0.012 0.624,-0.012 l 0.072,0.012 q 0.06,0 0.552,-0.108 0.492,-0.012 0.492,-0.12 0.144,-0.048 0.3,-0.168 0.492,-0.036 0.756,-0.216 0.144,-0.132 0.144,-0.204 -0.048,-0.18 -0.072,-0.372 0.18,-0.168 0.192,-0.276 0.024,-0.156 0.024,-0.336 z m 0.432,6.143991 q 0,0.084 -0.12,0.636 v 0.072 q 0,0.036 0.024,0.06 -0.204,0.744 -0.264,0.864 -0.192,0.48 -0.6,0.888 -0.192,0.3 -0.816,0.456 l -0.204,0.036 h -0.084 q -0.36,0 -0.564,-0.036 0,0 -0.06,0.012 -0.516,0 -0.936,-0.336 -0.168,-0.108 -0.456,-0.252 -0.288,-0.096 -0.324,-0.216 -0.036,0 -0.132,-0.204 -0.336,-0.444 -0.66,-0.684 -0.072,-0.288 -0.492,-0.696 -0.144,-0.156 -0.252,-0.372 -0.192,-0.192 -0.288,-0.408 l -0.24,-0.168 q -0.132,-0.3 -0.24,-0.3 h -0.084 q -0.096,0 -0.12,0.408 -0.036,0 -0.036,0.168 v 0.012 q 0.06,0.564 0.084,0.564 l -0.012,0.084 v 0.132 q 0,0.024 0.036,0.144 v 0.06 q 0,0.504 0.084,0.816 0,0.276 -0.036,0.408 0.072,0.264 0.216,0.264 l 0.672,0.12 0.336,0.036 0.228,-0.012 q 0.384,0 0.48,0.168 0.06,0.06 0.096,0.3 v 0.036 q -0.144,0.204 -0.42,0.204 -0.276,-0.048 -0.552,-0.048 -0.024,0 -0.264,0.048 h -0.18 q -0.06,0 -0.156,-0.012 -0.132,0.06 -0.204,0.06 -0.168,0 -0.168,-0.036 -0.072,0.036 -0.216,0.036 h -0.108 q -0.06,0 -0.144,-0.012 -0.072,0.048 -0.636,0.06 0,0.036 -0.108,0.036 -0.096,-0.096 -0.096,-0.096 v -0.024 q 0.06,0 0.096,-0.288 0,-0.06 -0.036,-0.228 0,-0.024 0.012,-0.06 l -0.012,-0.144 0.06,-0.78 q -0.012,-0.072 -0.012,-0.12 0.072,-0.648 0.072,-1.272 v -1.404 q 0,-0.096 0.012,-0.24 l -0.072,-0.588 h 0.024 q -0.072,-0.132 -0.084,-0.156 0,-0.288 0.204,-0.288 h 0.264 q 0.252,0.012 0.432,0.168 0.228,0.36 0.768,0.972 0.204,0.24 0.444,0.672 0.12,0.156 0.624,0.54 0.156,0.096 0.324,0.492 0.132,0.132 0.48,0.372 0.216,0.228 0.576,0.372 0.204,0.3 0.504,0.36 l 0.036,-0.024 q 0.168,0 0.468,0.108 0.144,-0.036 0.192,-0.036 0.396,0.108 0.456,0.108 h 0.036 q 0.696,-0.096 0.792,-0.204 0.384,-0.288 0.444,-0.516 0.036,0 0.072,-0.3 0.18,-0.252 0.18,-0.492 0,-0.036 -0.18,-0.42 l -0.024,-0.156 h 0.024 q 0,-0.168 -0.348,-0.648 -0.108,-0.084 -0.348,-0.144 0,-0.048 -0.264,-0.072 -0.192,0.084 -0.192,0.288 0,0.588 -0.096,0.588 -0.168,0.396 -0.42,0.396 l -0.24,0.048 q -0.228,-0.036 -0.288,-0.036 l -0.108,0.036 q -0.276,0 -0.324,-0.12 -0.252,-0.288 -0.252,-0.444 0,-0.204 -0.12,-0.66 v -0.048 q 0.072,-0.072 0.468,-0.72 0.204,-0.228 0.624,-0.228 0.084,0 0.204,-0.084 0.288,0.036 0.444,0.036 0.012,0 0.132,-0.012 0.564,0.18 0.612,0.18 l 0.252,0.132 q 0.372,0.192 0.564,0.516 0,0.012 0.528,0.924 0.012,0.192 0.012,0.348 z m 0.156,8.520001 q 0,0.048 -0.156,0.168 h -0.036 q -0.036,0 -0.06,-0.012 -0.06,0.036 -0.108,0.036 -0.084,-0.132 -0.252,-0.228 -0.336,-0.156 -0.336,-0.312 0,-0.048 -0.168,-0.168 -0.06,-0.288 -0.144,-0.444 0.024,-0.312 0.024,-0.528 v -0.096 l 0.084,-0.108 q -0.024,-0.468 -0.024,-0.588 -0.084,-0.24 -0.084,-0.456 v -0.168 q -0.216,-0.228 -0.42,-0.264 -0.24,-0.168 -1.32,-0.168 -0.12,0.156 -0.12,0.204 v 0.108 q 0.252,0.408 0.252,0.42 0.084,0.156 0.156,0.264 -0.036,0.072 -0.036,0.192 v 0.084 q 0.048,0.048 0.12,0.24 0.024,0 0.048,0.096 -0.048,0.216 -0.048,0.252 0.072,0.204 0.072,0.468 -0.072,0 -0.204,0.336 l -0.204,0.24 q -0.192,0.48 -0.336,0.576 -0.024,0 -0.276,0.264 -0.372,0.192 -0.504,0.24 -0.012,0.048 -0.228,0.12 -0.036,0.072 -0.12,0.096 l -0.084,-0.012 q 0,0.036 -0.636,0.048 -0.12,0.072 -0.156,0.072 -0.108,0 -0.408,-0.108 -0.36,0.072 -0.384,0.072 h -0.024 q -0.168,-0.144 -0.864,-0.492 -0.336,-0.06 -0.78,-0.672 l -0.18,-0.348 q -0.12,-0.48 -0.228,-0.636 0.024,-0.18 0.024,-0.276 v -0.084 q -0.072,-0.18 -0.072,-0.252 0,-0.132 0.072,-0.54 -0.024,-0.036 -0.024,-0.072 0.108,-0.204 0.192,-0.3 v -0.156 q 0.216,-0.204 0.216,-0.252 0.024,-0.156 0.372,-0.576 0,-0.12 0.192,-0.156 0.156,-0.096 0.36,-0.096 l 0.024,0.012 q 0.192,-0.12 0.36,-0.192 0,-0.036 0.204,-0.096 h 0.276 q 0.108,0 0.348,0.156 0.072,0.012 0.132,0.012 h 0.072 q 0.18,0.132 0.252,0.336 0.048,0 0.084,0.492 0.036,0 0.036,0.072 -0.036,0.06 -0.036,0.084 l 0.024,0.084 q -0.156,0.168 -0.156,0.3 -0.204,0.228 -0.408,0.228 l -0.12,-0.024 q -0.084,0.024 -0.168,0.024 -0.048,0 -0.324,-0.12 -0.072,0 -0.216,-0.288 -0.06,0 -0.18,-0.288 -0.168,-0.24 -0.276,-0.24 h -0.072 q -0.156,0 -0.3,0.252 0,0.072 -0.024,0.072 l 0.024,0.036 v 0.06 q 0,0.108 -0.072,0.36 l 0.024,0.084 q -0.06,0.216 -0.06,0.324 v 0.12 q 0,0.048 0.072,0.24 -0.048,0.204 -0.048,0.288 0,0.144 0.132,0.3 0.24,0.432 0.276,0.564 0.108,0.084 0.336,0.144 0,0.06 0.276,0.084 0,0.06 0.18,0.12 0,0.108 0.576,0.108 0,0.012 0.156,0.036 0.324,-0.072 0.336,-0.072 l 0.096,0.012 q 0.096,-0.012 0.156,-0.012 0.072,0 0.156,0.036 0.228,-0.06 0.456,-0.168 0.408,-0.168 0.708,-0.48 l 0.084,-0.156 q 0.084,-0.144 0.144,-0.288 l 0.084,-0.012 q -0.024,-0.384 -0.024,-0.48 l 0.024,-0.144 q -0.024,0 -0.24,-0.24 -0.048,0 -0.072,-0.132 0.108,0 0.12,-0.228 -0.288,-0.324 -0.624,-0.432 0,-0.024 -0.168,-0.084 l -0.144,-0.18 q -0.024,-0.096 -0.024,-0.168 0,-0.384 0.12,-0.384 0.048,-0.108 0.144,-0.108 h 0.036 q 0.36,0.072 0.48,0.072 h 0.024 q 0.072,0.048 0.12,0.048 h 0.06 q 0.156,0 0.288,0.024 0.084,-0.024 0.18,-0.024 0.24,0.072 0.444,0.072 0.276,-0.048 0.324,-0.048 h 0.468 q 0.012,0 0.012,0.012 l 0.036,-0.012 h 0.528 q 0.684,0 0.792,0.228 v 0.396 q 0,0.132 -0.084,0.276 0,0.516 -0.096,0.636 -0.024,0.096 -0.024,0.168 v 0.312 q 0,0.072 -0.012,0.18 0,0.348 0.492,1.32 l 0.012,0.156 h -0.012 q 0.036,0.108 0.036,0.132 z"
       id="text12"
       style="font-size:12px;font-family:KingHwaOldSong-LT;-inkscape-font-specification:KingHwaOldSong-LT;writing-mode:tb-rl;fill:#ffffff;stroke:#ffffff;stroke-width:0.5"
       aria-label="1945-2025" />
  </g>
</svg>
