<?xml version="1.0" encoding="UTF-8" standalone="no"?>
<svg
   id="b21dd4e1-6437-4fc7-9a37-75c6f1294d6c"
   data-name="e3fc59e1-bbdc-42ff-88b4-4cc8c75ebce3"
   viewBox="0 0 542 112"
   version="1.1"
   sodipodi:docname="game_logo_2025springv3.svg"
   inkscape:version="1.2.2 (732a01da63, 2022-12-09)"
   xml:space="preserve"
   xmlns:inkscape="http://www.inkscape.org/namespaces/inkscape"
   xmlns:sodipodi="http://sodipodi.sourceforge.net/DTD/sodipodi-0.dtd"
   xmlns="http://www.w3.org/2000/svg"
   xmlns:svg="http://www.w3.org/2000/svg"><g
     id="g511"
     transform="translate(1.25)"><path
       d="m 257.96129,0.83430934 q 1.75467,0 2.8,0.98933516 1.04534,0.9893351 1.04534,2.7066715 0,1.7733365 -2.09067,4.0133406 -1.49334,1.5866694 -4.10668,3.9946734 h 0.74667 q 1.90401,0 2.78134,-0.07467 1.04534,-0.09333 1.49334,-0.448001 0.46666,-0.373334 1.04533,-1.624003 0.112,-0.056 0.24267,-0.056 0.46667,0 0.59733,0.28 l -0.56,2.949339 q -0.112,0.560001 -0.87733,0.560001 h -7.35468 q -0.168,-0.056 -0.29867,-0.392001 -0.13067,-0.336 -0.13067,-0.578667 l 1.49334,-1.306669 q 2.25867,-1.9786707 3.32267,-3.3973399 1.30667,-1.7360031 1.30667,-3.2480059 0,-1.2693356 -0.65333,-1.9786702 -0.616,-0.6720012 -1.68001,-0.6720012 -1.624,0 -2.94934,1.1946688 -0.37333,-0.5413343 -0.0373,-1.0080018 0.63467,-0.8773349 1.71734,-1.4000025 1.04533,-0.50400096 2.14667,-0.50400096 z"
       style="font-weight:900;font-size:18.6667px;font-family:FZChunWanLXTS;-inkscape-font-specification:'FZChunWanLXTS Heavy';text-align:center;text-anchor:middle;fill:#ffc74a"
       id="path438" /><path
       d="m 269.59066,0.83430934 q 2.688,0 3.99467,2.05333706 1.064,1.6613363 1.064,4.3120078 0,3.0053388 -1.344,5.0026758 -1.43734,2.14667 -3.88267,2.14667 -2.55734,0 -3.88268,-1.81067 -1.25067,-1.717336 -1.25067,-4.7973415 0,-1.0080018 0.29867,-2.1653373 0.336,-1.306669 0.91467,-2.2586707 1.49334,-2.48267116 4.08801,-2.48267116 z m -2.81867,6.72001216 q 0,3.2480055 0.63466,4.5173415 0.56,1.120002 1.88534,1.120002 1.456,0 2.20267,-1.530669 0.69067,-1.437336 0.69067,-4.1066745 0.0373,-3.8826737 -0.70934,-4.8906755 -0.54133,-0.746668 -1.736,-0.7093346 -1.60534,0 -2.31467,1.4373359 -0.65333,1.3253357 -0.65333,4.1626742 z"
       style="font-weight:900;font-size:18.6667px;font-family:FZChunWanLXTS;-inkscape-font-specification:'FZChunWanLXTS Heavy';text-align:center;text-anchor:middle;fill:#ffc74a"
       id="path440" /><path
       d="m 280.60402,0.83430934 q 1.75467,0 2.8,0.98933516 1.04534,0.9893351 1.04534,2.7066715 0,1.7733365 -2.09067,4.0133406 -1.49334,1.5866694 -4.10668,3.9946734 h 0.74667 q 1.90401,0 2.78134,-0.07467 1.04534,-0.09333 1.49334,-0.448001 0.46666,-0.373334 1.04533,-1.624003 0.112,-0.056 0.24267,-0.056 0.46667,0 0.59733,0.28 l -0.56,2.949339 q -0.112,0.560001 -0.87733,0.560001 h -7.35468 q -0.168,-0.056 -0.29867,-0.392001 -0.13067,-0.336 -0.13067,-0.578667 l 1.49334,-1.306669 q 2.25867,-1.9786707 3.32267,-3.3973399 1.30667,-1.7360031 1.30667,-3.2480059 0,-1.2693356 -0.65333,-1.9786702 -0.616,-0.6720012 -1.68001,-0.6720012 -1.624,0 -2.94933,1.1946688 -0.37334,-0.5413343 -0.0373,-1.0080018 0.63467,-0.8773349 1.71734,-1.4000025 1.04533,-0.50400096 2.14667,-0.50400096 z"
       style="font-weight:900;font-size:18.6667px;font-family:FZChunWanLXTS;-inkscape-font-specification:'FZChunWanLXTS Heavy';text-align:center;text-anchor:middle;fill:#ffc74a"
       id="path442" /><path
       d="m 290.06805,14.349 q -1.21334,0 -2.24,-0.298667 -1.10134,-0.317334 -1.45601,-0.821335 l 0.63467,-2.426671 q 0.20533,-0.130667 0.42934,-0.130667 0.24266,0 0.46666,0.09333 0.20534,1.194669 0.93334,1.69867 0.76533,0.522667 2.42667,0.522667 0.56,0 1.12,-0.690668 0.616,-0.765334 0.616,-1.773336 0,-1.6800032 -1.41867,-2.4640046 -1.21333,-0.6720012 -3.60267,-0.746668 -0.29867,-0.037333 -0.46667,-0.186667 -0.14933,-0.1680003 -0.14933,-0.3360006 0.672,-3.2666726 0.85867,-5.2453428 0.056,-0.4853343 0.672,-0.4853343 h 6.30934 q -0.056,0.9333351 -0.224,1.3066691 -0.20533,0.4480008 -0.672,0.4480008 l -4.49867,-0.074667 q -0.392,0.8773349 -0.72801,2.7626716 2.87468,0.1120002 4.42401,1.1386688 1.71734,1.1386687 1.71734,3.378673 -0.056,1.69867 -1.53067,2.986672 -1.47467,1.269336 -3.62134,1.344002 z"
       style="font-weight:900;font-size:18.6667px;font-family:FZChunWanLXTS;-inkscape-font-specification:'FZChunWanLXTS Heavy';text-align:center;text-anchor:middle;fill:#ffc74a"
       id="path444" /><path
       d="m 272.91333,18.962364 q 0,-0.709335 0.392,-1.082669 0.392,-0.373334 1.10133,-0.373334 1.49334,0.03733 1.51201,1.456003 -0.0187,1.437336 -1.51201,1.456002 -0.70933,0 -1.10133,-0.373334 -0.392,-0.373334 -0.392,-1.082668 z"
       style="font-weight:900;font-size:18.6667px;font-family:FZChunWanLXTS;-inkscape-font-specification:'FZChunWanLXTS Heavy';text-align:center;text-anchor:middle;fill:#ffc74a"
       id="path446" /><path
       d="m 269.14266,26.65307 0.85867,0.242667 -0.14934,0.504001 q -0.18667,0.597334 -0.82133,0.541334 -1.02667,-0.130667 -1.90401,-0.09333 -2.42667,0.130667 -5.33867,0.541335 l -0.14934,3.341339 q -0.0373,0.914668 0.46667,1.344002 0.46667,0.392001 1.456,0.429335 3.52801,0.130666 6.21601,-0.261334 1.32534,-0.186667 1.96001,-0.672001 0.56,-0.410668 1.02667,-1.456003 0.82133,1.176002 0.82133,2.314671 0,0.989335 -0.59733,1.474669 -0.52267,0.429334 -1.56801,0.541334 -4.18134,0.429335 -8.53068,0.205334 -1.88533,-0.09333 -2.72534,-1.008002 -0.82133,-0.933335 -0.74666,-2.893338 l 0.28,-8.568016 q 0.0373,-1.269335 -0.168,-1.960003 0.91466,-0.149334 1.71733,0.09333 0.616,0.186667 0.76534,0.653335 3.09867,-0.410668 4.77867,-0.466668 l 0.29867,-0.877335 q 0.87733,0.168001 2.016,0.672002 1.21334,0.541334 1.77334,1.064001 -0.41067,0.970669 -0.87733,1.064002 -0.33601,1.624003 -0.85867,3.229339 z m -2.20267,-0.205334 q 0.35466,-1.493336 0.69066,-3.67734 -2.59467,0.07467 -5.60001,0.541334 l -0.168,3.658673 q 2.07201,-0.298667 5.07735,-0.522667 z"
       style="font-weight:900;font-size:18.6667px;font-family:FZChunWanLXTS;-inkscape-font-specification:'FZChunWanLXTS Heavy';text-align:center;text-anchor:middle;fill:#ffc74a"
       id="path448" /><path
       d="m 289.19069,22.061061 -0.952,0.989335 q -0.26133,0.280001 -0.616,0.261334 -0.336,-0.01867 -0.56,-0.336 -0.672,-0.970669 -1.94134,-2.034671 l 0.70934,-0.728001 q 1.792,0.616001 3.36,1.848003 z m -2.78134,8.194682 q 1.43734,-0.821335 2.20268,-1.736003 0.37333,-0.466668 0.48533,-1.082669 1.12,0.317334 1.66134,0.914668 0.54133,0.634668 -0.20534,1.250669 -1.94133,1.568003 -4.25601,2.109337 l -0.0747,1.157336 q -0.0747,0.896001 0.784,0.952001 1.064,0.112001 2.31467,-0.149333 1.21334,-0.280001 2.09067,-1.58667 0.70934,1.344003 0.76534,2.016004 0.112,1.232002 -1.02667,1.512003 -2.29601,0.485334 -4.72268,0.298667 -2.27734,-0.205334 -2.16534,-2.445338 l 0.20534,-4.573341 q 0.056,-1.008002 -0.0373,-1.512003 -0.29866,0.205334 -0.616,0.205334 -0.392,-0.01867 -0.65333,-0.205334 -0.24267,-0.205334 -0.54134,-0.672001 -0.112,0.672001 -0.26133,1.400002 l 0.57867,0.168 -0.112,0.429335 q -0.13067,0.429334 -0.70934,0.354667 -0.41066,-0.056 -0.91466,-0.056 -0.61601,0 -0.91467,0.01867 -0.0747,2.034671 -0.0933,2.576005 l 1.06401,-0.336 q -0.20534,-1.045336 -0.41067,-1.58667 l 0.84,-0.242667 q 0.97067,1.138669 1.904,3.84534 l -0.82133,0.392001 q -0.48534,0.224 -0.82134,0.09333 -0.37333,-0.149333 -0.42933,-0.709334 -0.0373,-0.317334 -0.0747,-0.634668 -2.016,0.896002 -4.59201,2.277337 -0.59733,0.317334 -1.008,-0.168 -0.46667,-0.560001 -0.59733,-1.400002 l 3.17334,-0.989336 q 0.0187,-0.709334 0.0933,-2.893338 -0.29867,0.056 -0.616,0.112 v 0.130667 q -0.0373,0.578668 -0.31733,0.802668 -0.39201,0.298667 -1.38134,0.186667 0.112,-2.277337 0.0187,-4.461341 -0.0373,-0.896002 -0.28,-1.381336 1.60533,-0.522668 1.86667,0.410667 0.41066,-0.056 0.82133,-0.130667 0.0373,-0.877335 0.0747,-3.080005 0,-1.026669 -0.29867,-1.53067 1.12,-0.130666 1.624,0.130667 0.504,0.261334 0.48534,0.970669 -0.0187,0.448001 -0.0933,3.248006 0.29867,-0.01867 0.57867,-0.056 l 0.18667,-0.597335 q 1.25067,0.186667 2.09067,1.120002 -0.14933,0.560001 -0.56,0.709335 -0.0187,0.149333 -0.056,0.485334 1.232,-1.120002 1.13867,-3.173339 0.87733,0.01867 1.232,0.224 0.37333,0.186667 0.41067,0.653335 2.65067,-0.298667 4.032,-0.373334 l 0.336,-0.690668 q 1.79201,0.560001 2.78134,1.773336 -0.26133,0.840002 -1.21333,0.896002 -0.76534,0.784001 -1.68001,1.493336 -0.336,0.242667 -0.84,-0.07467 l -0.29866,-0.186667 q 0.616,-1.082668 0.91466,-1.960003 -1.75467,0.112 -4.10667,0.392 -0.112,0.933335 -0.42933,1.493336 -0.0747,0.130667 -0.14934,0.261334 0.336,-0.01867 0.672,0 1.17601,0.168001 1.10134,1.101336 z m -5.46934,-2.389338 q 0.0747,-0.728001 0.168,-2.184004 -0.35467,0.03733 -0.70933,0.07467 -0.0373,0.709335 -0.0747,2.165337 0.31733,-0.01867 0.616,-0.056 z m -2.33334,-1.848003 q -0.48533,0.07467 -0.70933,0.112 0.056,1.101335 0.0373,2.072004 0.42934,-0.07467 0.616,-0.09333 0.0187,-0.709334 0.056,-2.09067 z"
       style="font-weight:900;font-size:18.6667px;font-family:FZChunWanLXTS;-inkscape-font-specification:'FZChunWanLXTS Heavy';text-align:center;text-anchor:middle;fill:#ffc74a"
       id="path450" /></g><sodipodi:namedview
     id="namedview1171"
     pagecolor="#000093"
     bordercolor="#000000"
     borderopacity="0.25"
     inkscape:showpageshadow="2"
     inkscape:pageopacity="0"
     inkscape:pagecheckerboard="0"
     inkscape:deskcolor="#d1d1d1"
     showgrid="false"
     inkscape:zoom="4"
     inkscape:cx="218.375"
     inkscape:cy="59"
     inkscape:window-width="2560"
     inkscape:window-height="1334"
     inkscape:window-x="-11"
     inkscape:window-y="-11"
     inkscape:window-maximized="1"
     inkscape:current-layer="b21dd4e1-6437-4fc7-9a37-75c6f1294d6c" /><defs
     id="defs1113"><style
       id="style1106">.b91ba486-8858-4919-9717-c380eb21b765{fill:url(#e44bdbcf-c92c-49d2-9cfb-b170302f54b3);}.bc2efbb4-997a-41db-8876-3903896f938d,.ef06b456-a17b-4320-8650-785e88897555{fill:#fff;}.ef06b456-a17b-4320-8650-785e88897555{fill-rule:evenodd;}.b772c575-4354-414f-b3e9-f7dcd7a2d5d9{fill:#fec401;}.ee7ec5ab-a9da-41b5-9154-e8426a778d05{fill:#ee1c25;}.bd4c0d83-09f7-4db5-8560-b4c5e9b85b5a{fill:#ff0;}.af93773a-333b-4cc5-813b-f50efc5b81da{fill:#ffcf60;}</style><radialGradient
       id="e44bdbcf-c92c-49d2-9cfb-b170302f54b3"
       cx="271"
       cy="4935.1"
       r="384.36"
       gradientTransform="translate(0 -1770.43) scale(1 0.37)"
       gradientUnits="userSpaceOnUse"><stop
         offset="0"
         stop-color="#939393"
         id="stop1108" /><stop
         offset="0.68"
         stop-color="#382caf"
         stop-opacity="0"
         id="stop1110" /></radialGradient></defs><g
     id="g5602"
     transform="matrix(1.1196146,0,0,1.1196146,-27.307326,-6.6984155)"><g
       id="g5462"><path
         id="bfbbdff4-41fd-4ff4-88f6-491483237cbf"
         data-name="a202341d-bd75-4d7c-8b24-eb3583ec3829"
         class="bc2efbb4-997a-41db-8876-3903896f938d"
         d="m 126.47266,11.997097 h 12.07923 l 2.18577,21.972691 h -13.68979 l 4.37153,20.937329 9.31826,-11.043865 v 21.62757 l -6.09714,7.017457 6.09714,31.751111 H 120.95073 L 118.76497,91.720004 108.8715,104.25939 H 91.27034 L 115.4288,74.003802 107.7211,33.854748 H 94.49147 L 100.0134,21.77552 h 5.52193 L 102.77437,7.5105262 h 19.21172 l 2.76097,14.2649938 h 3.79633 z"
         style="fill:#ffc74a;fill-opacity:1;stroke-width:1.1504" /><path
         id="bff874b0-77f8-4210-9f5d-c8bc70eaa904"
         data-name="baee6368-4292-41fc-bd0c-cb427742de23"
         class="ef06b456-a17b-4320-8650-785e88897555"
         d="M 78.04071,47.084379 H 95.64187 V 93.215527 L 86.89881,104.25939 H 78.15575 V 99.887863 H 61.70499 v 4.371527 H 43.98879 V 47.084379 H 60.43955 V 7.5105262 H 78.04071 V 21.77552 H 96.21707 L 90.69514,33.854748 H 78.04071 Z M 61.58995,87.808635 H 78.04071 V 59.278648 H 61.58995 Z M 191.35538,14.182862 V 51.57095 l 2.76096,11.043866 h -2.76096 v 38.538494 l -3.45121,3.33616 H 177.09038 V 62.499775 h -3.33617 V 86.658232 L 162.71035,62.499775 v 38.538495 l -3.33617,3.33616 H 148.33032 V 63.074977 L 145.56935,51.57095 h 2.76097 V 14.182862 h 11.61906 l 2.07073,-6.5572955 h 15.76051 l -1.84064,6.5572955 z M 166.04652,29.023057 177.09038,51.57095 V 26.26209 h -14.26499 v 25.30886 h 3.33617 V 29.023057 Z"
         style="fill:#ffc74a;fill-opacity:1;stroke-width:1.1504" /><path
         id="a895cc1a-1921-4fd3-9fa0-358379d2ac2e"
         data-name="ae1a192c-24bd-41e7-b8ed-e7e7e0b3421e"
         class="bc2efbb4-997a-41db-8876-3903896f938d"
         d="M 213.32807,91.720004 228.74346,76.879809 V 90.10944 h 17.60117 v 14.26499 h -33.01656 z"
         style="fill:#ffc74a;fill-opacity:1;stroke-width:1.1504" /><path
         id="e0577246-c93c-46f3-bbd6-4b8abf50e4d5"
         data-name="b7335604-e28c-436d-a995-85100bc1937f"
         class="bc2efbb4-997a-41db-8876-3903896f938d"
         d="m 208.95654,66.986346 -13.22963,12.65443 V 7.5105262 h 50.61772 V 75.729406 l -3.10609,3.336168 H 233.11499 V 18.554392 l -24.15845,0.11504 z"
         style="fill:#ffc74a;fill-opacity:1;stroke-width:1.1504" /><path
         id="aa1ff473-633c-43ee-8a50-b1926bc36afe"
         data-name="acd3a19f-4f2c-4dfd-80f0-e8bc4f815535"
         class="bc2efbb4-997a-41db-8876-3903896f938d"
         d="m 376.72196,25.226728 11.04387,-0.11504 v 9.893463 l -2.18577,2.185765 H 376.837 v 39.573853 l -3.33617,3.336168 h -47.28155 l 17.60116,-18.176363 v 6.097134 h 15.4154 V 37.190916 h -15.4154 V 56.402641 L 326.21928,74.579004 V 37.190916 h -11.04386 v 51.653081 h 72.59041 v 12.079233 l -3.33617,3.33616 H 296.42385 V 38.341319 l -7.13249,-13.114591 h 7.13249 V 7.5105262 h 18.75157 V 25.111688 h 11.04386 V 7.5105262 h 17.60116 V 25.111688 l 15.4154,0.11504 V 7.5105262 h 17.83124 z"
         style="fill:#ffc74a;fill-opacity:1;stroke-width:1.1504" /><path
         id="e176212f-f2d0-4b08-869c-665b6d07d791"
         data-name="a98c7764-3d4e-4bab-a133-27de8d2818d7"
         class="ef06b456-a17b-4320-8650-785e88897555"
         d="m 482.32893,57.092883 h -9.89346 l 16.45076,8.74306 V 83.437104 L 440.56931,57.207923 392.13736,83.437104 V 65.835943 l 16.45076,-8.74306 H 395.35849 V 7.6255665 h 89.04116 V 54.792077 Z m -64.88271,-29.79543 h 13.22963 v -7.707698 h -16.5658 v 25.193819 h 16.45076 v -7.592658 h -8.74306 z m 31.98119,17.601161 h 16.45076 V 19.704795 h -16.45076 v 7.707698 H 462.542 v 7.707698 l -2.18576,2.300805 h -10.92883 z"
         style="fill:#ffc74a;fill-opacity:1;stroke-width:1.1504" /><path
         id="ad45a934-a00f-4282-99ed-56516bf611df"
         data-name="f9c61a56-7d94-49ed-8602-617555e31409"
         class="bc2efbb4-997a-41db-8876-3903896f938d"
         d="m 474.73627,104.37443 h -17.7162 V 70.207473 l 20.93733,11.043866 v 19.786931 z m -53.26364,0 H 404.21659 V 81.251339 l 20.93733,-11.043866 v 30.830797 z"
         style="fill:#ffc74a;fill-opacity:1;stroke-width:1.1504" /><path
         id="f54ca19c-efb3-44e2-921a-66fdd6b17541"
         data-name="beb9ed52-d647-4ce4-a822-6bc4f52d5904"
         class="bc2efbb4-997a-41db-8876-3903896f938d"
         d="m 213.32807,24.076325 h 15.41539 V 71.357876 L 195.72691,104.37443 V 85.047668 l 17.60116,-17.02596 z"
         style="fill:#ffc74a;fill-opacity:1;stroke-width:1.1504" /></g></g><g
     id="g5327"
     transform="matrix(1.1196146,0,0,1.1196146,-53.049175,28.09708)"><path
       id="a3985593-948d-4863-aa81-ae90390248a1"
       data-name="b393e1fe-7331-4826-b793-6bc37e820f10"
       class="bc2efbb4-997a-41db-8876-3903896f938d"
       d="m 283.69801,14.547492 h 2.69415 V 8.0408563 H 277.2422 V 24.358278 l 6.50664,4.727477 z"
       style="fill:#ffc74a;fill-opacity:1;stroke-width:0.508329" /><path
       id="bfdc8bdf-2098-4ac4-a7dc-d1dec24947f2"
       data-name="a7aadb53-417b-40cb-a9b1-6bb50a5df6e8"
       class="ef06b456-a17b-4320-8650-785e88897555"
       d="M 298.94794,14.547492 V 8.0408563 h -9.91245 v 6.5066357 h 1.93165 v 2.694153 h -4.57498 v 16.215756 l 4.57498,3.253318 v 3.863314 l -7.26913,-5.28664 v -3.304151 l -6.50664,-4.727478 v 11.335779 l 16.77492,12.250773 16.77492,-12.250773 V 27.204931 l -6.40497,4.778311 v 3.354983 l -7.26913,5.235808 v -3.863314 l 4.57498,-3.253318 V 17.241645 h -4.57498 v -2.694153 z m -3.35499,9.404121 4.16831,0.304999 -3.20248,2.64332 0.96583,4.117481 -3.55832,-2.236657 -3.50748,2.185824 1.01666,-4.11748 -3.20249,-2.694154 4.16832,-0.304999 1.57582,-3.914148 z"
       style="fill:#ffc74a;fill-opacity:1;stroke-width:0.508329" /><path
       id="b045bb36-5364-4be3-bd9d-a95b1529785e"
       data-name="b0088236-eb1c-4203-af62-153878ed4d23"
       class="bc2efbb4-997a-41db-8876-3903896f938d"
       d="m 310.79204,24.154946 -6.50663,4.62581 V 14.547492 h -2.69416 V 8.0408563 h 9.14996 V 24.154946 Z"
       style="fill:#ffc74a;fill-opacity:1;stroke-width:0.508329" /><path
       d="m 71.023371,108.19765 h -30.95728 l 1.42002,-1.60315 h 28.1207 z"
       fill="#ff0303"
       id="path4587"
       style="stroke-width:0.0345505"
       transform="matrix(0.73650981,0,0,0.73650981,253.07597,-16.097242)" /><path
       d="m 71.023371,108.19765 h -30.95728 l 1.42002,1.60314 h 28.1207 z"
       fill="#ce0000"
       id="path4589"
       style="stroke-width:0.0345505"
       transform="matrix(0.73650981,0,0,0.73650981,253.07597,-16.097242)" /><path
       d="m 69.606811,104.99135 h -28.1207 l 1.41658,-1.60314 h 25.28408 z"
       fill="#ff0303"
       id="path4591"
       style="stroke-width:0.0345505"
       transform="matrix(0.73650981,0,0,0.73650981,253.07597,-16.097242)" /><path
       d="m 69.606811,104.99135 h -28.1207 l 1.41658,1.60315 h 25.28408 z"
       fill="#ce0000"
       id="path4593"
       style="stroke-width:0.0345505"
       transform="matrix(0.73650981,0,0,0.73650981,253.07597,-16.097242)" /><path
       d="m 67.478491,101.78506 h -23.86405 l 1.41656,-1.60314 h 21.02746 z"
       fill="#ff0303"
       id="path4595"
       style="stroke-width:0.0345505"
       transform="matrix(0.73650981,0,0,0.73650981,253.07597,-16.097242)" /><path
       d="m 67.478491,101.78506 h -23.86405 l 1.41656,1.60315 h 21.02746 z m -25.99238,9.61887 h 28.1207 l -1.42004,1.60315 h -25.28408 z"
       fill="#ce0000"
       id="path4597"
       style="stroke-width:0.0345505"
       transform="matrix(0.73650981,0,0,0.73650981,253.07597,-16.097242)" /><path
       d="m 41.486111,111.40393 h 28.1207 l -1.42004,-1.60314 h -25.28408 z"
       fill="#ff0303"
       id="path4599"
       style="stroke-width:0.0345505"
       transform="matrix(0.73650981,0,0,0.73650981,253.07597,-16.097242)" /><path
       d="m 43.614441,114.61022 h 23.86405 l -1.42003,1.60315 h -21.02746 z"
       fill="#ce0000"
       id="path4601"
       style="stroke-width:0.0345505"
       transform="matrix(0.73650981,0,0,0.73650981,253.07597,-16.097242)" /><path
       d="m 43.614441,114.61022 h 23.86405 l -1.42003,-1.60314 h -21.02746 z"
       fill="#ff0303"
       id="path4603"
       style="stroke-width:0.0345505"
       transform="matrix(0.73650981,0,0,0.73650981,253.07597,-16.097242)" /><path
       d="m 47.159311,117.81651 h 16.77084 l -1.41657,1.60315 h -13.93424 z"
       fill="#ce0000"
       id="path4605"
       style="stroke-width:0.0345505"
       transform="matrix(0.73650981,0,0,0.73650981,253.07597,-16.097242)" /><path
       d="m 47.159311,117.81651 h 16.77084 l -1.41657,-1.60314 h -13.93424 z"
       fill="#ff0303"
       id="path4607"
       style="stroke-width:0.0345505"
       transform="matrix(0.73650981,0,0,0.73650981,253.07597,-16.097242)" /><path
       d="m 48.579341,119.41966 h 13.89277 v 1.78972 h -13.89277 z"
       fill="#ffc74a"
       id="path4609"
       style="stroke-width:0.0345505"
       sodipodi:nodetypes="ccccc"
       transform="matrix(0.73650981,0,0,0.73650981,253.07597,-16.097242)" /><path
       d="m 60.996811,99.059024 h -1.45458 c 0,-1.347469 -1.84154,-2.484178 -4.01822,-2.484178 -2.17669,0 -4.01824,1.136709 -4.01824,2.484178 h -1.45457 c 0,-2.207778 2.40471,-3.938767 5.47281,-3.938767 3.06808,0 5.4728,1.730989 5.4728,3.938767 z"
       fill="#ffc74a"
       id="path4611"
       style="stroke-width:0.0345505"
       transform="matrix(0.73650981,0,0,0.73650981,253.07597,-16.097242)" /><path
       d="m 51.505771,99.059024 c 0,-1.347469 1.84155,-2.484178 4.01824,-2.484178 2.17668,0 4.01822,1.136709 4.01822,2.484178 h 0.5459 c -0.49407,-1.734433 -2.31834,-2.992077 -4.56412,-2.992077 -2.24579,0 -4.0666,1.257644 -4.56068,2.992077 z"
       fill="#231815"
       opacity="0.2"
       id="path4613"
       style="stroke-width:0.0345505"
       transform="matrix(0.73650981,0,0,0.73650981,253.07597,-16.097242)" /><path
       d="m 45.031001,98.392203 h 20.986 v 1.789717 h -20.986 z"
       fill="#ffc74a"
       id="path4615"
       style="stroke-width:0.0345505"
       transform="matrix(0.73650981,0,0,0.73650981,253.07597,-16.097242)" /><path
       d="m 54.891732,88.918348 h 1.22999 v 6.927481 h -1.22999 z"
       style="fill:#ffc74a;stroke-width:0.0498541"
       id="path5267"
       transform="matrix(0.73650981,0,0,0.73650981,253.07597,-16.097242)" /></g></svg>
