<?xml version="1.0" encoding="UTF-8" standalone="no"?>
<svg
   width="542"
   height="112"
   viewBox="0 0 542 112"
   fill="none"
   version="1.1"
   id="svg32"
   sodipodi:docname="game_logo.svg"
   inkscape:version="1.2.2 (732a01da63, 2022-12-09)"
   xmlns:inkscape="http://www.inkscape.org/namespaces/inkscape"
   xmlns:sodipodi="http://sodipodi.sourceforge.net/DTD/sodipodi-0.dtd"
   xmlns="http://www.w3.org/2000/svg"
   xmlns:svg="http://www.w3.org/2000/svg">
  <defs
     id="defs36" />
  <sodipodi:namedview
     id="namedview34"
     pagecolor="#3f008c"
     bordercolor="#000000"
     borderopacity="0.25"
     inkscape:showpageshadow="2"
     inkscape:pageopacity="0"
     inkscape:pagecheckerboard="0"
     inkscape:deskcolor="#d1d1d1"
     showgrid="false"
     inkscape:zoom="1.4142136"
     inkscape:cx="246.42671"
     inkscape:cy="-127.27922"
     inkscape:window-width="2560"
     inkscape:window-height="1334"
     inkscape:window-x="-11"
     inkscape:window-y="-11"
     inkscape:window-maximized="1"
     inkscape:current-layer="svg32" />
  <g
     id="g297"
     transform="translate(-0.02148366,-2.5787068)">
    <path
       id="path2"
       style="fill:#ffffff;fill-opacity:1;stroke-width:0.953723"
       d="M 0.09179732,5.1668527 V 45.891261 L 16.30417,57.67847 V 21.379226 h 6.674954 V 5.1668527 Z m 29.56475968,0 V 21.379226 h 4.76747 v 6.677435 H 22.979124 v 40.550774 l 11.444903,8.135953 v 9.678806 L 16.30417,73.223596 v -8.33439 L 0.09179732,53.032544 V 81.319861 L 42.053962,111.98347 84.018607,81.319861 V 53.042466 L 67.803755,64.896647 v 8.336871 L 49.683898,86.414751 V 76.743388 L 61.128803,68.607435 V 28.056661 H 49.683898 v -6.677435 h 4.769951 V 5.1668527 Z m 31.472246,0 V 21.379226 h 6.674952 v 35.59231 L 84.018607,45.402608 V 5.1668527 Z m -19.064918,29.8128063 3.891861,9.862363 10.410547,0.701974 -7.959839,6.650149 2.470553,10.234432 -8.832966,-5.588507 -8.810641,5.588507 2.477993,-10.244354 -7.982164,-6.674954 10.452714,-0.706935 z" />
    <path
       id="path42"
       style="fill:#ffffff;fill-opacity:1;stroke-width:1.21401"
       d="M 110.97391,5.1618925 V 48.865349 H 92.762275 v 63.130521 h 19.424585 v -4.85676 h 18.21163 v 4.85676 h 9.71106 L 149.8206,99.856444 V 48.865349 H 130.39849 V 34.29753 h 13.96011 l 6.06476,-13.354868 H 130.39849 V 5.1618925 Z m 46.73955,0 3.03364,15.7807695 h -6.06974 l -6.06972,13.354868 h 14.56784 l 8.49809,44.313653 -26.70725,33.384687 h 19.3948 l 10.95625,-13.90305 2.46807,13.90305 h 21.81825 l -6.71216,-35.051565 6.71216,-7.791165 V 45.228976 L 189.2775,57.36345 184.42072,34.29753 h 15.17554 l -2.42838,-24.278872 h -13.35239 l 2.42591,10.924004 h -4.24906 L 178.90415,5.1618925 Z m -45.5266,57.0583245 h 18.21163 v 31.564021 h -18.21163 z" />
    <path
       id="path46"
       style="fill:#ffffff;fill-opacity:1;stroke-width:1.21401"
       d="m 223.09873,5.1618925 -2.23739,7.2826685 h -12.76698 v 41.277554 h -3.03361 l 3.03361,12.747151 v 45.526604 h 12.14191 l 3.64134,-3.64133 V 65.861552 l 12.13944,26.709736 V 65.861552 h 3.64132 v 46.134318 h 11.97077 l 3.81249,-3.64133 V 65.861552 h 3.0361 l -3.0361,-12.139437 V 12.444561 h -16.99621 l 1.99678,-7.2826685 z m 37.19968,0 V 84.680901 l 14.5678,-13.962583 V 17.41791 l 26.70726,-0.116579 V 84.17737 h 11.1274 l 3.44291,-3.745516 V 5.1618925 Z M 279.6957,23.371046 V 71.93375 L 260.29841,90.750618 V 111.99587 L 296.7192,75.575085 V 23.371046 Z m -55.81809,2.393656 15.78076,0.03473 V 53.722121 L 227.51895,28.835534 v 24.886587 h -3.64134 z m 72.84159,55.880101 -17.0235,16.388486 v 13.962581 h 36.44808 V 96.212622 H 296.7192 Z" />
    <path
       d="m 418.12102,24.651485 12.14025,-0.06553 v 10.926216 l -2.42803,2.428049 h -9.71221 v 43.704856 l -3.64209,3.653006 h -52.20302 l 19.42436,-20.042328 v 6.677135 h 16.99636 V 37.940194 h -16.99636 v 21.245423 l -19.42436,20.031395 v -41.27682 h -12.14026 v 57.059132 h 80.12561 v 13.354266 l -3.64209,3.6421 H 329.49724 V 39.154217 l -7.85351,-14.502731 h 7.85351 V 5.1615437 h 20.63842 V 24.651485 h 12.14026 V 5.1615437 h 19.42436 V 24.585928 l 16.99636,0.06553 V 5.1615437 h 19.72663 z"
       fill="#ffffff"
       id="path50"
       style="stroke-width:1.21401"
       sodipodi:nodetypes="cccccccccccccccccccccccccccccccccccc" />
    <path
       id="path52"
       style="fill:#ffffff;fill-opacity:1;stroke-width:1.21401"
       d="M 438.75853,5.1618925 V 59.791832 h 14.57029 l -18.20915,9.713535 v 19.424585 l 53.52364,-28.957045 53.30786,28.957045 V 69.505367 l -18.20916,-9.713535 h 10.9265 l 2.42588,-2.428382 V 5.1618925 Z M 459.39854,18.51676 h 18.20916 v 8.4981 h -14.56782 l 4.85677,10.926486 h 9.71105 v 8.408804 h -18.20916 z m 57.05833,0 v 27.83339 h -18.13226 v -8.346793 h 12.06253 l 2.42841,-2.490395 V 27.01486 h -14.49094 v -8.483217 z m -44.9189,55.845372 -23.06592,12.139437 v 25.494301 h 19.09469 l 3.97123,-3.64133 z m 35.17063,0 v 37.633738 h 19.58582 l 3.51731,-3.64133 V 86.501569 Z" />
  </g>
</svg>
