<?xml version="1.0" encoding="UTF-8" standalone="no"?>
<svg
   width="440"
   height="77"
   viewBox="0 0 440 77"
   fill="none"
   version="1.1"
   id="svg417"
   sodipodi:docname="game_logo_static.svg"
   inkscape:version="1.2.2 (732a01da63, 2022-12-09)"
   xmlns:inkscape="http://www.inkscape.org/namespaces/inkscape"
   xmlns:sodipodi="http://sodipodi.sourceforge.net/DTD/sodipodi-0.dtd"
   xmlns="http://www.w3.org/2000/svg"
   xmlns:svg="http://www.w3.org/2000/svg">
  <defs
     id="defs421" />
  <sodipodi:namedview
     id="namedview419"
     pagecolor="#ff0000"
     bordercolor="#000000"
     borderopacity="0.25"
     inkscape:showpageshadow="2"
     inkscape:pageopacity="0"
     inkscape:pagecheckerboard="0"
     inkscape:deskcolor="#d1d1d1"
     showgrid="false"
     inkscape:zoom="2.8284271"
     inkscape:cx="196.39891"
     inkscape:cy="24.395184"
     inkscape:window-width="2560"
     inkscape:window-height="1334"
     inkscape:window-x="-11"
     inkscape:window-y="-11"
     inkscape:window-maximized="1"
     inkscape:current-layer="svg417" />
  <path
     d="m 123.76504,3.5054658 h 9.62349 l 1.74973,17.4972692 h -10.9358 l 3.49946,16.622398 7.44115,-8.745134 v 17.240938 l -4.83756,5.613127 4.83756,25.259925 H 119.42082 L 117.6423,66.975928 109.7456,76.993989 H 95.769398 L 115.0164,52.93525 108.89236,21.002735 H 98.393988 l 4.374322,-9.623499 h 4.37431 L 104.95547,0.00601195 h 15.27161 l 2.22567,11.37322405 h 3.062 z"
     fill="#ffffff"
     id="path42"
     style="stroke-width:0.874863" />
  <path
     fill-rule="evenodd"
     clip-rule="evenodd"
     d="m 85.271048,31.5011 h 13.99782 v 36.744254 l -6.99891,8.748635 h -6.99891 V 73.49453 H 72.148095 v 3.499459 H 58.150281 V 31.5011 h 13.12295 V 0.00601195 H 85.271048 V 11.379236 h 14.43051 l -4.36959,9.623499 H 85.271048 Z M 72.148094,63.871037 H 85.271048 V 41.124592 H 72.148094 Z M 175.38196,5.2551928 V 35.000545 l 2.18717,8.748635 h -2.18717 v 30.620221 l -2.74706,2.624588 h -8.62616 V 43.74918 h -2.62459 V 62.996179 L 152.63554,43.74918 v 30.620221 l -2.62459,2.624588 h -8.74864 V 44.186615 l -2.18717,-9.18607 h 2.18717 V 5.2551928 h 9.20006 l 1.61237,-5.24918085 h 12.49742 l -1.43827,5.24918085 z m -20.12184,11.8106552 8.74862,17.934697 V 14.878689 l -11.3732,-0.02537 v 20.147227 h 2.62458 z"
     fill="#ffffff"
     id="path44"
     style="stroke-width:0.874863" />
  <path
     d="m 192.85999,66.93306 12.26733,-11.810658 v 10.498365 h 13.99782 v 11.373222 h -26.26515 z"
     fill="#ffffff"
     id="path46"
     style="stroke-width:0.874863" />
  <path
     d="M 189.37978,47.24864 178.88143,57.309568 V 0.00601195 h 40.24371 V 54.247544 l -2.48024,2.698944 h -8.01811 V 8.7546467 l -19.24701,0.083991 z"
     fill="#ffffff"
     id="path48"
     style="stroke-width:0.874863" />
  <path
     d="m 192.85999,13.128962 h 12.26733 V 50.748085 L 178.88143,76.993989 V 61.683885 l 13.97856,-13.560388 z m 99.75367,0.922106 8.74864,-0.04724 v 7.873764 l -1.74974,1.749731 h -6.9989 v 31.495079 l -2.62459,2.632463 h -37.61913 l 13.99781,-14.443121 v 4.811753 h 12.2481 V 23.627323 h -12.2481 V 38.937426 L 252.36994,53.372672 V 23.627323 h -8.74863 v 41.118586 h 57.74099 v 9.623492 l -2.62459,2.624588 H 228.74864 V 24.50218 l -5.6595,-10.451112 h 5.6595 V 0.00601195 h 14.87267 V 14.051068 h 8.74863 V 0.00601195 h 13.99781 V 14.003826 l 12.2481,0.04724 V 0.0060105 h 14.21566 z"
     fill="#ffffff"
     id="path50"
     style="stroke-width:0.874863" />
  <path
     fill-rule="evenodd"
     clip-rule="evenodd"
     d="m 376.60055,39.374862 h -7.87378 l 13.12295,6.998906 V 60.371591 L 343.4336,39.505222 304.86263,60.371591 V 46.373768 l 13.12208,-6.998906 H 307.48634 V 0.00601195 h 70.86394 V 37.625133 Z M 324.98362,15.753553 h 10.49835 V 9.6295105 H 322.35903 V 29.688376 h 13.12294 v -6.061053 h -6.99891 z m 25.42788,13.934823 h 13.06609 V 9.6295105 l -13.06609,0.011334 v 6.1126705 h 10.44151 v 6.124034 l -1.74974,1.796099 h -8.69177 z"
     fill="#ffffff"
     id="path52"
     style="stroke-width:0.874863" />
  <path
     d="M 370.56748,76.993989 H 356.45244 V 49.873227 l 16.64865,8.748635 v 15.747539 z m -42.32239,0 H 314.48525 V 58.621862 l 16.62239,-8.748635 v 24.496174 z"
     fill="#ffffff"
     id="path54"
     style="stroke-width:0.874863" />
</svg>
